  0
SECTION
  2
HEADER
  9
$ACADVER
  1
AC1009
  9
$EXTMIN
 10
0.0
 20
0.0
 30
0.0
  9
$EXTMAX
 10
1000.0
 20
1000.0
 30
0.0
  9
$FILLMODE
 70
 0
  9
$SPLFRAME
 70
 1
  0
ENDSEC
  0
SECTION
  2
TABLES
  0
TABLE
  2
LAYER
 70
1
  0
LAYER
  2
0
 70
     0
 62
     7
  6
CONTINUOUS
  0
ENDTAB
  0
ENDSEC
  0
SECTION
  2
ENTITIES
  0
LINE
  8
0
 62
     0
 10
0.0964629
 20
313.406
 30
0.0
 11
291.817
 21
313.406
 31
0.0
  0
LINE
  8
0
 62
     0
 10
291.817
 20
313.406
 30
0.0
 11
291.817
 21
0.0923286
 31
0.0
  0
LINE
  8
0
 62
     0
 10
291.817
 20
0.0923286
 30
0.0
 11
0.0964629
 21
0.0923286
 31
0.0
  0
LINE
  8
0
 62
     0
 10
0.0964629
 20
0.0923286
 30
0.0
 11
0.0964629
 21
313.406
 31
0.0
  0
LINE
  8
0
 62
     0
 10
172.615
 20
180.818
 30
0.0
 11
171.862
 21
181.092
 31
0.0
  0
LINE
  8
0
 62
     0
 10
171.862
 20
181.092
 30
0.0
 11
170.855
 21
178.32
 31
0.0
  0
LINE
  8
0
 62
     0
 10
170.855
 20
178.32
 30
0.0
 11
171.606
 21
178.045
 31
0.0
  0
LINE
  8
0
 62
     0
 10
171.606
 20
178.045
 30
0.0
 11
169.57
 21
172.455
 31
0.0
  0
LINE
  8
0
 62
     0
 10
169.57
 20
172.455
 30
0.0
 11
168.819
 21
172.727
 31
0.0
  0
LINE
  8
0
 62
     0
 10
168.819
 20
172.727
 30
0.0
 11
167.811
 21
169.956
 31
0.0
  0
LINE
  8
0
 62
     0
 10
167.811
 20
169.956
 30
0.0
 11
168.562
 21
169.683
 31
0.0
  0
LINE
  8
0
 62
     0
 10
168.562
 20
169.683
 30
0.0
 11
168.22
 21
168.742
 31
0.0
  0
LINE
  8
0
 62
     0
 10
168.22
 20
168.742
 30
0.0
 11
181.234
 21
164.006
 31
0.0
  0
LINE
  8
0
 62
     0
 10
181.234
 20
164.006
 30
0.0
 11
181.576
 21
164.946
 31
0.0
  0
LINE
  8
0
 62
     0
 10
181.576
 20
164.946
 30
0.0
 11
182.328
 21
164.671
 31
0.0
  0
LINE
  8
0
 62
     0
 10
182.328
 20
164.671
 30
0.0
 11
183.337
 21
167.444
 31
0.0
  0
LINE
  8
0
 62
     0
 10
183.337
 20
167.444
 30
0.0
 11
182.586
 21
167.718
 31
0.0
  0
LINE
  8
0
 62
     0
 10
182.586
 20
167.718
 30
0.0
 11
184.62
 21
173.309
 31
0.0
  0
LINE
  8
0
 62
     0
 10
184.62
 20
173.309
 30
0.0
 11
185.372
 21
173.035
 31
0.0
  0
LINE
  8
0
 62
     0
 10
185.372
 20
173.035
 30
0.0
 11
186.381
 21
175.808
 31
0.0
  0
LINE
  8
0
 62
     0
 10
186.381
 20
175.808
 30
0.0
 11
185.63
 21
176.08
 31
0.0
  0
LINE
  8
0
 62
     0
 10
185.63
 20
176.08
 30
0.0
 11
185.972
 21
177.021
 31
0.0
  0
LINE
  8
0
 62
     0
 10
185.972
 20
177.021
 30
0.0
 11
172.956
 21
181.758
 31
0.0
  0
LINE
  8
0
 62
     0
 10
172.956
 20
181.758
 30
0.0
 11
172.615
 21
180.818
 31
0.0
  0
LINE
  8
0
 62
     0
 10
132.176
 20
184.752
 30
0.0
 11
133.281
 21
181.717
 31
0.0
  0
LINE
  8
0
 62
     0
 10
133.281
 20
181.717
 30
0.0
 11
131.707
 21
181.144
 31
0.0
  0
LINE
  8
0
 62
     0
 10
131.707
 20
181.144
 30
0.0
 11
131.451
 21
181.849
 31
0.0
  0
LINE
  8
0
 62
     0
 10
131.451
 20
181.849
 30
0.0
 11
132.202
 21
182.122
 31
0.0
  0
LINE
  8
0
 62
     0
 10
132.202
 20
182.122
 30
0.0
 11
131.193
 21
184.894
 31
0.0
  0
LINE
  8
0
 62
     0
 10
131.193
 20
184.894
 30
0.0
 11
130.441
 21
184.621
 31
0.0
  0
LINE
  8
0
 62
     0
 10
130.441
 20
184.621
 30
0.0
 11
130.099
 21
185.56
 31
0.0
  0
LINE
  8
0
 62
     0
 10
130.099
 20
185.56
 30
0.0
 11
117.085
 21
180.823
 31
0.0
  0
LINE
  8
0
 62
     0
 10
117.085
 20
180.823
 30
0.0
 11
117.427
 21
179.884
 31
0.0
  0
LINE
  8
0
 62
     0
 10
117.427
 20
179.884
 30
0.0
 11
116.676
 21
179.609
 31
0.0
  0
LINE
  8
0
 62
     0
 10
116.676
 20
179.609
 30
0.0
 11
117.685
 21
176.838
 31
0.0
  0
LINE
  8
0
 62
     0
 10
117.685
 20
176.838
 30
0.0
 11
118.436
 21
177.112
 31
0.0
  0
LINE
  8
0
 62
     0
 10
118.436
 20
177.112
 30
0.0
 11
118.692
 21
176.407
 31
0.0
  0
LINE
  8
0
 62
     0
 10
118.692
 20
176.407
 30
0.0
 11
117.118
 21
175.834
 31
0.0
  0
LINE
  8
0
 62
     0
 10
117.118
 20
175.834
 30
0.0
 11
116.013
 21
178.869
 31
0.0
  0
LINE
  8
0
 62
     0
 10
116.013
 20
178.869
 30
0.0
 11
109.812
 21
176.612
 31
0.0
  0
LINE
  8
0
 62
     0
 10
109.812
 20
176.612
 30
0.0
 11
110.917
 21
173.576
 31
0.0
  0
LINE
  8
0
 62
     0
 10
110.917
 20
173.576
 30
0.0
 11
110.141
 21
173.294
 31
0.0
  0
LINE
  8
0
 62
     0
 10
110.141
 20
173.294
 30
0.0
 11
111.048
 21
170.804
 31
0.0
  0
LINE
  8
0
 62
     0
 10
111.048
 20
170.804
 30
0.0
 11
111.822
 21
171.086
 31
0.0
  0
LINE
  8
0
 62
     0
 10
111.822
 20
171.086
 30
0.0
 11
113.968
 21
165.194
 31
0.0
  0
LINE
  8
0
 62
     0
 10
113.968
 20
165.194
 30
0.0
 11
115.588
 21
165.784
 31
0.0
  0
LINE
  8
0
 62
     0
 10
115.588
 20
165.784
 30
0.0
 11
115.999
 21
164.656
 31
0.0
  0
LINE
  8
0
 62
     0
 10
115.999
 20
164.656
 30
0.0
 11
118.959
 21
165.734
 31
0.0
  0
LINE
  8
0
 62
     0
 10
118.959
 20
165.734
 30
0.0
 11
118.549
 21
166.861
 31
0.0
  0
LINE
  8
0
 62
     0
 10
118.549
 20
166.861
 30
0.0
 11
120.169
 21
167.452
 31
0.0
  0
LINE
  8
0
 62
     0
 10
120.169
 20
167.452
 30
0.0
 11
118.641
 21
171.651
 31
0.0
  0
LINE
  8
0
 62
     0
 10
118.641
 20
171.651
 30
0.0
 11
120.215
 21
172.224
 31
0.0
  0
LINE
  8
0
 62
     0
 10
120.215
 20
172.224
 30
0.0
 11
120.471
 21
171.52
 31
0.0
  0
LINE
  8
0
 62
     0
 10
120.471
 20
171.52
 30
0.0
 11
119.72
 21
171.248
 31
0.0
  0
LINE
  8
0
 62
     0
 10
119.72
 20
171.248
 30
0.0
 11
120.729
 21
168.475
 31
0.0
  0
LINE
  8
0
 62
     0
 10
120.729
 20
168.475
 30
0.0
 11
121.48
 21
168.748
 31
0.0
  0
LINE
  8
0
 62
     0
 10
121.48
 20
168.748
 30
0.0
 11
121.821
 21
167.809
 31
0.0
  0
LINE
  8
0
 62
     0
 10
121.821
 20
167.809
 30
0.0
 11
134.837
 21
172.545
 31
0.0
  0
LINE
  8
0
 62
     0
 10
134.837
 20
172.545
 30
0.0
 11
134.495
 21
173.486
 31
0.0
  0
LINE
  8
0
 62
     0
 10
134.495
 20
173.486
 30
0.0
 11
135.246
 21
173.758
 31
0.0
  0
LINE
  8
0
 62
     0
 10
135.246
 20
173.758
 30
0.0
 11
134.238
 21
176.531
 31
0.0
  0
LINE
  8
0
 62
     0
 10
134.238
 20
176.531
 30
0.0
 11
133.485
 21
176.257
 31
0.0
  0
LINE
  8
0
 62
     0
 10
133.485
 20
176.257
 30
0.0
 11
133.229
 21
176.962
 31
0.0
  0
LINE
  8
0
 62
     0
 10
133.229
 20
176.962
 30
0.0
 11
134.804
 21
177.535
 31
0.0
  0
LINE
  8
0
 62
     0
 10
134.804
 20
177.535
 30
0.0
 11
136.332
 21
173.335
 31
0.0
  0
LINE
  8
0
 62
     0
 10
136.332
 20
173.335
 30
0.0
 11
137.953
 21
173.925
 31
0.0
  0
LINE
  8
0
 62
     0
 10
137.953
 20
173.925
 30
0.0
 11
138.363
 21
172.796
 31
0.0
  0
LINE
  8
0
 62
     0
 10
138.363
 20
172.796
 30
0.0
 11
141.323
 21
173.874
 31
0.0
  0
LINE
  8
0
 62
     0
 10
141.323
 20
173.874
 30
0.0
 11
140.913
 21
175.001
 31
0.0
  0
LINE
  8
0
 62
     0
 10
140.913
 20
175.001
 30
0.0
 11
142.533
 21
175.592
 31
0.0
  0
LINE
  8
0
 62
     0
 10
142.533
 20
175.592
 30
0.0
 11
140.389
 21
181.483
 31
0.0
  0
LINE
  8
0
 62
     0
 10
140.389
 20
181.483
 30
0.0
 11
141.165
 21
181.766
 31
0.0
  0
LINE
  8
0
 62
     0
 10
141.165
 20
181.766
 30
0.0
 11
140.258
 21
184.256
 31
0.0
  0
LINE
  8
0
 62
     0
 10
140.258
 20
184.256
 30
0.0
 11
139.484
 21
183.974
 31
0.0
  0
LINE
  8
0
 62
     0
 10
139.484
 20
183.974
 30
0.0
 11
138.378
 21
187.009
 31
0.0
  0
LINE
  8
0
 62
     0
 10
138.378
 20
187.009
 30
0.0
 11
132.176
 21
184.752
 31
0.0
  0
LINE
  8
0
 62
     0
 10
154.714
 20
187.333
 30
0.0
 11
153.961
 21
187.608
 31
0.0
  0
LINE
  8
0
 62
     0
 10
153.961
 20
187.608
 30
0.0
 11
152.952
 21
184.835
 31
0.0
  0
LINE
  8
0
 62
     0
 10
152.952
 20
184.835
 30
0.0
 11
153.705
 21
184.561
 31
0.0
  0
LINE
  8
0
 62
     0
 10
153.705
 20
184.561
 30
0.0
 11
151.67
 21
178.97
 31
0.0
  0
LINE
  8
0
 62
     0
 10
151.67
 20
178.97
 30
0.0
 11
150.917
 21
179.244
 31
0.0
  0
LINE
  8
0
 62
     0
 10
150.917
 20
179.244
 30
0.0
 11
149.909
 21
176.471
 31
0.0
  0
LINE
  8
0
 62
     0
 10
149.909
 20
176.471
 30
0.0
 11
150.661
 21
176.197
 31
0.0
  0
LINE
  8
0
 62
     0
 10
150.661
 20
176.197
 30
0.0
 11
150.319
 21
175.258
 31
0.0
  0
LINE
  8
0
 62
     0
 10
150.319
 20
175.258
 30
0.0
 11
163.333
 21
170.521
 31
0.0
  0
LINE
  8
0
 62
     0
 10
163.333
 20
170.521
 30
0.0
 11
163.675
 21
171.461
 31
0.0
  0
LINE
  8
0
 62
     0
 10
163.675
 20
171.461
 30
0.0
 11
164.428
 21
171.188
 31
0.0
  0
LINE
  8
0
 62
     0
 10
164.428
 20
171.188
 30
0.0
 11
165.436
 21
173.959
 31
0.0
  0
LINE
  8
0
 62
     0
 10
165.436
 20
173.959
 30
0.0
 11
164.684
 21
174.232
 31
0.0
  0
LINE
  8
0
 62
     0
 10
164.684
 20
174.232
 30
0.0
 11
166.719
 21
179.824
 31
0.0
  0
LINE
  8
0
 62
     0
 10
166.719
 20
179.824
 30
0.0
 11
167.472
 21
179.552
 31
0.0
  0
LINE
  8
0
 62
     0
 10
167.472
 20
179.552
 30
0.0
 11
168.48
 21
182.323
 31
0.0
  0
LINE
  8
0
 62
     0
 10
168.48
 20
182.323
 30
0.0
 11
167.728
 21
182.597
 31
0.0
  0
LINE
  8
0
 62
     0
 10
167.728
 20
182.597
 30
0.0
 11
168.071
 21
183.535
 31
0.0
  0
LINE
  8
0
 62
     0
 10
168.071
 20
183.535
 30
0.0
 11
155.055
 21
188.273
 31
0.0
  0
LINE
  8
0
 62
     0
 10
155.055
 20
188.273
 30
0.0
 11
154.714
 21
187.333
 31
0.0
  0
LINE
  8
0
 62
     0
 10
113.279
 20
210.247
 30
0.0
 11
112.506
 21
210.455
 31
0.0
  0
LINE
  8
0
 62
     0
 10
112.506
 20
210.455
 30
0.0
 11
111.741
 21
207.604
 31
0.0
  0
LINE
  8
0
 62
     0
 10
111.741
 20
207.604
 30
0.0
 11
112.514
 21
207.397
 31
0.0
  0
LINE
  8
0
 62
     0
 10
112.514
 20
207.397
 30
0.0
 11
110.975
 21
201.651
 31
0.0
  0
LINE
  8
0
 62
     0
 10
110.975
 20
201.651
 30
0.0
 11
110.202
 21
201.858
 31
0.0
  0
LINE
  8
0
 62
     0
 10
110.202
 20
201.858
 30
0.0
 11
109.438
 21
199.009
 31
0.0
  0
LINE
  8
0
 62
     0
 10
109.438
 20
199.009
 30
0.0
 11
110.211
 21
198.801
 31
0.0
  0
LINE
  8
0
 62
     0
 10
110.211
 20
198.801
 30
0.0
 11
109.952
 21
197.835
 31
0.0
  0
LINE
  8
0
 62
     0
 10
109.952
 20
197.835
 30
0.0
 11
123.33
 21
194.251
 31
0.0
  0
LINE
  8
0
 62
     0
 10
123.33
 20
194.251
 30
0.0
 11
123.589
 21
195.217
 31
0.0
  0
LINE
  8
0
 62
     0
 10
123.589
 20
195.217
 30
0.0
 11
124.361
 21
195.01
 31
0.0
  0
LINE
  8
0
 62
     0
 10
124.361
 20
195.01
 30
0.0
 11
125.126
 21
197.859
 31
0.0
  0
LINE
  8
0
 62
     0
 10
125.126
 20
197.859
 30
0.0
 11
124.353
 21
198.065
 31
0.0
  0
LINE
  8
0
 62
     0
 10
124.353
 20
198.065
 30
0.0
 11
125.892
 21
203.813
 31
0.0
  0
LINE
  8
0
 62
     0
 10
125.892
 20
203.813
 30
0.0
 11
126.665
 21
203.606
 31
0.0
  0
LINE
  8
0
 62
     0
 10
126.665
 20
203.606
 30
0.0
 11
127.429
 21
206.456
 31
0.0
  0
LINE
  8
0
 62
     0
 10
127.429
 20
206.456
 30
0.0
 11
126.657
 21
206.663
 31
0.0
  0
LINE
  8
0
 62
     0
 10
126.657
 20
206.663
 30
0.0
 11
126.916
 21
207.629
 31
0.0
  0
LINE
  8
0
 62
     0
 10
126.916
 20
207.629
 30
0.0
 11
113.537
 21
211.213
 31
0.0
  0
LINE
  8
0
 62
     0
 10
113.537
 20
211.213
 30
0.0
 11
113.279
 21
210.247
 31
0.0
  0
LINE
  8
0
 62
     0
 10
169.157
 20
208.022
 30
0.0
 11
169.416
 21
207.056
 31
0.0
  0
LINE
  8
0
 62
     0
 10
169.416
 20
207.056
 30
0.0
 11
168.643
 21
206.849
 31
0.0
  0
LINE
  8
0
 62
     0
 10
168.643
 20
206.849
 30
0.0
 11
169.406
 21
203.999
 31
0.0
  0
LINE
  8
0
 62
     0
 10
169.406
 20
203.999
 30
0.0
 11
170.179
 21
204.206
 31
0.0
  0
LINE
  8
0
 62
     0
 10
170.179
 20
204.206
 30
0.0
 11
171.72
 21
198.458
 31
0.0
  0
LINE
  8
0
 62
     0
 10
171.72
 20
198.458
 30
0.0
 11
170.947
 21
198.252
 31
0.0
  0
LINE
  8
0
 62
     0
 10
170.947
 20
198.252
 30
0.0
 11
171.71
 21
195.403
 31
0.0
  0
LINE
  8
0
 62
     0
 10
171.71
 20
195.403
 30
0.0
 11
172.482
 21
195.61
 31
0.0
  0
LINE
  8
0
 62
     0
 10
172.482
 20
195.61
 30
0.0
 11
172.741
 21
194.644
 31
0.0
  0
LINE
  8
0
 62
     0
 10
172.741
 20
194.644
 30
0.0
 11
186.119
 21
198.228
 31
0.0
  0
LINE
  8
0
 62
     0
 10
186.119
 20
198.228
 30
0.0
 11
185.862
 21
199.194
 31
0.0
  0
LINE
  8
0
 62
     0
 10
185.862
 20
199.194
 30
0.0
 11
186.633
 21
199.401
 31
0.0
  0
LINE
  8
0
 62
     0
 10
186.633
 20
199.401
 30
0.0
 11
185.871
 21
202.251
 31
0.0
  0
LINE
  8
0
 62
     0
 10
185.871
 20
202.251
 30
0.0
 11
185.098
 21
202.044
 31
0.0
  0
LINE
  8
0
 62
     0
 10
185.098
 20
202.044
 30
0.0
 11
183.557
 21
207.79
 31
0.0
  0
LINE
  8
0
 62
     0
 10
183.557
 20
207.79
 30
0.0
 11
184.331
 21
207.998
 31
0.0
  0
LINE
  8
0
 62
     0
 10
184.331
 20
207.998
 30
0.0
 11
183.567
 21
210.848
 31
0.0
  0
LINE
  8
0
 62
     0
 10
183.567
 20
210.848
 30
0.0
 11
182.794
 21
210.641
 31
0.0
  0
LINE
  8
0
 62
     0
 10
182.794
 20
210.641
 30
0.0
 11
182.535
 21
211.607
 31
0.0
  0
LINE
  8
0
 62
     0
 10
182.535
 20
211.607
 30
0.0
 11
169.157
 21
208.022
 31
0.0
  0
LINE
  8
0
 62
     0
 10
96.1101
 20
219.778
 30
0.0
 11
95.3368
 21
219.986
 31
0.0
  0
LINE
  8
0
 62
     0
 10
95.3368
 20
219.986
 30
0.0
 11
94.5734
 21
217.136
 31
0.0
  0
LINE
  8
0
 62
     0
 10
94.5734
 20
217.136
 30
0.0
 11
95.3463
 21
216.929
 31
0.0
  0
LINE
  8
0
 62
     0
 10
95.3463
 20
216.929
 30
0.0
 11
93.8057
 21
211.182
 31
0.0
  0
LINE
  8
0
 62
     0
 10
93.8057
 20
211.182
 30
0.0
 11
93.0342
 21
211.388
 31
0.0
  0
LINE
  8
0
 62
     0
 10
93.0342
 20
211.388
 30
0.0
 11
92.2708
 21
208.539
 31
0.0
  0
LINE
  8
0
 62
     0
 10
92.2708
 20
208.539
 30
0.0
 11
93.0423
 21
208.332
 31
0.0
  0
LINE
  8
0
 62
     0
 10
93.0423
 20
208.332
 30
0.0
 11
92.7848
 21
207.366
 31
0.0
  0
LINE
  8
0
 62
     0
 10
92.7848
 20
207.366
 30
0.0
 11
106.163
 21
203.781
 31
0.0
  0
LINE
  8
0
 62
     0
 10
106.163
 20
203.781
 30
0.0
 11
106.42
 21
204.748
 31
0.0
  0
LINE
  8
0
 62
     0
 10
106.42
 20
204.748
 30
0.0
 11
107.193
 21
204.541
 31
0.0
  0
LINE
  8
0
 62
     0
 10
107.193
 20
204.541
 30
0.0
 11
107.957
 21
207.389
 31
0.0
  0
LINE
  8
0
 62
     0
 10
107.957
 20
207.389
 30
0.0
 11
107.184
 21
207.597
 31
0.0
  0
LINE
  8
0
 62
     0
 10
107.184
 20
207.597
 30
0.0
 11
108.724
 21
213.344
 31
0.0
  0
LINE
  8
0
 62
     0
 10
108.724
 20
213.344
 30
0.0
 11
109.498
 21
213.137
 31
0.0
  0
LINE
  8
0
 62
     0
 10
109.498
 20
213.137
 30
0.0
 11
110.261
 21
215.987
 31
0.0
  0
LINE
  8
0
 62
     0
 10
110.261
 20
215.987
 30
0.0
 11
109.488
 21
216.194
 31
0.0
  0
LINE
  8
0
 62
     0
 10
109.488
 20
216.194
 30
0.0
 11
109.747
 21
217.159
 31
0.0
  0
LINE
  8
0
 62
     0
 10
109.747
 20
217.159
 30
0.0
 11
96.369
 21
220.744
 31
0.0
  0
LINE
  8
0
 62
     0
 10
96.369
 20
220.744
 30
0.0
 11
96.1101
 21
219.778
 31
0.0
  0
LINE
  8
0
 62
     0
 10
186.326
 20
217.552
 30
0.0
 11
186.585
 21
216.586
 31
0.0
  0
LINE
  8
0
 62
     0
 10
186.585
 20
216.586
 30
0.0
 11
185.812
 21
216.379
 31
0.0
  0
LINE
  8
0
 62
     0
 10
185.812
 20
216.379
 30
0.0
 11
186.575
 21
213.53
 31
0.0
  0
LINE
  8
0
 62
     0
 10
186.575
 20
213.53
 30
0.0
 11
187.347
 21
213.736
 31
0.0
  0
LINE
  8
0
 62
     0
 10
187.347
 20
213.736
 30
0.0
 11
188.888
 21
207.99
 31
0.0
  0
LINE
  8
0
 62
     0
 10
188.888
 20
207.99
 30
0.0
 11
188.116
 21
207.783
 31
0.0
  0
LINE
  8
0
 62
     0
 10
188.116
 20
207.783
 30
0.0
 11
188.878
 21
204.932
 31
0.0
  0
LINE
  8
0
 62
     0
 10
188.878
 20
204.932
 30
0.0
 11
189.651
 21
205.14
 31
0.0
  0
LINE
  8
0
 62
     0
 10
189.651
 20
205.14
 30
0.0
 11
189.91
 21
204.174
 31
0.0
  0
LINE
  8
0
 62
     0
 10
189.91
 20
204.174
 30
0.0
 11
203.288
 21
207.759
 31
0.0
  0
LINE
  8
0
 62
     0
 10
203.288
 20
207.759
 30
0.0
 11
203.029
 21
208.724
 31
0.0
  0
LINE
  8
0
 62
     0
 10
203.029
 20
208.724
 30
0.0
 11
203.802
 21
208.931
 31
0.0
  0
LINE
  8
0
 62
     0
 10
203.802
 20
208.931
 30
0.0
 11
203.039
 21
211.782
 31
0.0
  0
LINE
  8
0
 62
     0
 10
203.039
 20
211.782
 30
0.0
 11
202.266
 21
211.574
 31
0.0
  0
LINE
  8
0
 62
     0
 10
202.266
 20
211.574
 30
0.0
 11
200.725
 21
217.322
 31
0.0
  0
LINE
  8
0
 62
     0
 10
200.725
 20
217.322
 30
0.0
 11
201.498
 21
217.529
 31
0.0
  0
LINE
  8
0
 62
     0
 10
201.498
 20
217.529
 30
0.0
 11
200.736
 21
220.377
 31
0.0
  0
LINE
  8
0
 62
     0
 10
200.736
 20
220.377
 30
0.0
 11
199.963
 21
220.17
 31
0.0
  0
LINE
  8
0
 62
     0
 10
199.963
 20
220.17
 30
0.0
 11
199.704
 21
221.137
 31
0.0
  0
LINE
  8
0
 62
     0
 10
199.704
 20
221.137
 30
0.0
 11
186.326
 21
217.552
 31
0.0
  0
LINE
  8
0
 62
     0
 10
118.208
 20
228.648
 30
0.0
 11
117.435
 21
228.856
 31
0.0
  0
LINE
  8
0
 62
     0
 10
117.435
 20
228.856
 30
0.0
 11
116.673
 21
226.005
 31
0.0
  0
LINE
  8
0
 62
     0
 10
116.673
 20
226.005
 30
0.0
 11
117.446
 21
225.799
 31
0.0
  0
LINE
  8
0
 62
     0
 10
117.446
 20
225.799
 30
0.0
 11
115.905
 21
220.052
 31
0.0
  0
LINE
  8
0
 62
     0
 10
115.905
 20
220.052
 30
0.0
 11
115.132
 21
220.259
 31
0.0
  0
LINE
  8
0
 62
     0
 10
115.132
 20
220.259
 30
0.0
 11
114.369
 21
217.409
 31
0.0
  0
LINE
  8
0
 62
     0
 10
114.369
 20
217.409
 30
0.0
 11
115.142
 21
217.202
 31
0.0
  0
LINE
  8
0
 62
     0
 10
115.142
 20
217.202
 30
0.0
 11
114.883
 21
216.236
 31
0.0
  0
LINE
  8
0
 62
     0
 10
114.883
 20
216.236
 30
0.0
 11
128.261
 21
212.652
 31
0.0
  0
LINE
  8
0
 62
     0
 10
128.261
 20
212.652
 30
0.0
 11
128.52
 21
213.618
 31
0.0
  0
LINE
  8
0
 62
     0
 10
128.52
 20
213.618
 30
0.0
 11
129.293
 21
213.411
 31
0.0
  0
LINE
  8
0
 62
     0
 10
129.293
 20
213.411
 30
0.0
 11
130.055
 21
216.26
 31
0.0
  0
LINE
  8
0
 62
     0
 10
130.055
 20
216.26
 30
0.0
 11
129.284
 21
216.466
 31
0.0
  0
LINE
  8
0
 62
     0
 10
129.284
 20
216.466
 30
0.0
 11
130.824
 21
222.214
 31
0.0
  0
LINE
  8
0
 62
     0
 10
130.824
 20
222.214
 30
0.0
 11
131.596
 21
222.008
 31
0.0
  0
LINE
  8
0
 62
     0
 10
131.596
 20
222.008
 30
0.0
 11
132.359
 21
224.857
 31
0.0
  0
LINE
  8
0
 62
     0
 10
132.359
 20
224.857
 30
0.0
 11
131.586
 21
225.064
 31
0.0
  0
LINE
  8
0
 62
     0
 10
131.586
 20
225.064
 30
0.0
 11
131.845
 21
226.03
 31
0.0
  0
LINE
  8
0
 62
     0
 10
131.845
 20
226.03
 30
0.0
 11
118.467
 21
229.614
 31
0.0
  0
LINE
  8
0
 62
     0
 10
118.467
 20
229.614
 30
0.0
 11
118.208
 21
228.648
 31
0.0
  0
LINE
  8
0
 62
     0
 10
164.226
 20
226.423
 30
0.0
 11
164.485
 21
225.457
 31
0.0
  0
LINE
  8
0
 62
     0
 10
164.485
 20
225.457
 30
0.0
 11
163.712
 21
225.25
 31
0.0
  0
LINE
  8
0
 62
     0
 10
163.712
 20
225.25
 30
0.0
 11
164.477
 21
222.4
 31
0.0
  0
LINE
  8
0
 62
     0
 10
164.477
 20
222.4
 30
0.0
 11
165.249
 21
222.607
 31
0.0
  0
LINE
  8
0
 62
     0
 10
165.249
 20
222.607
 30
0.0
 11
166.788
 21
216.861
 31
0.0
  0
LINE
  8
0
 62
     0
 10
166.788
 20
216.861
 30
0.0
 11
166.017
 21
216.652
 31
0.0
  0
LINE
  8
0
 62
     0
 10
166.017
 20
216.652
 30
0.0
 11
166.78
 21
213.804
 31
0.0
  0
LINE
  8
0
 62
     0
 10
166.78
 20
213.804
 30
0.0
 11
167.553
 21
214.011
 31
0.0
  0
LINE
  8
0
 62
     0
 10
167.553
 20
214.011
 30
0.0
 11
167.812
 21
213.045
 31
0.0
  0
LINE
  8
0
 62
     0
 10
167.812
 20
213.045
 30
0.0
 11
181.19
 21
216.629
 31
0.0
  0
LINE
  8
0
 62
     0
 10
181.19
 20
216.629
 30
0.0
 11
180.931
 21
217.595
 31
0.0
  0
LINE
  8
0
 62
     0
 10
180.931
 20
217.595
 30
0.0
 11
181.704
 21
217.802
 31
0.0
  0
LINE
  8
0
 62
     0
 10
181.704
 20
217.802
 30
0.0
 11
180.939
 21
220.652
 31
0.0
  0
LINE
  8
0
 62
     0
 10
180.939
 20
220.652
 30
0.0
 11
180.167
 21
220.445
 31
0.0
  0
LINE
  8
0
 62
     0
 10
180.167
 20
220.445
 30
0.0
 11
178.627
 21
226.191
 31
0.0
  0
LINE
  8
0
 62
     0
 10
178.627
 20
226.191
 30
0.0
 11
179.4
 21
226.399
 31
0.0
  0
LINE
  8
0
 62
     0
 10
179.4
 20
226.399
 30
0.0
 11
178.636
 21
229.249
 31
0.0
  0
LINE
  8
0
 62
     0
 10
178.636
 20
229.249
 30
0.0
 11
177.863
 21
229.041
 31
0.0
  0
LINE
  8
0
 62
     0
 10
177.863
 20
229.041
 30
0.0
 11
177.604
 21
230.007
 31
0.0
  0
LINE
  8
0
 62
     0
 10
177.604
 20
230.007
 30
0.0
 11
164.226
 21
226.423
 31
0.0
  0
LINE
  8
0
 62
     0
 10
78.9411
 20
229.308
 30
0.0
 11
78.1678
 21
229.517
 31
0.0
  0
LINE
  8
0
 62
     0
 10
78.1678
 20
229.517
 30
0.0
 11
77.4058
 21
226.667
 31
0.0
  0
LINE
  8
0
 62
     0
 10
77.4058
 20
226.667
 30
0.0
 11
78.1787
 21
226.46
 31
0.0
  0
LINE
  8
0
 62
     0
 10
78.1787
 20
226.46
 30
0.0
 11
76.6382
 21
220.712
 31
0.0
  0
LINE
  8
0
 62
     0
 10
76.6382
 20
220.712
 30
0.0
 11
75.8652
 21
220.92
 31
0.0
  0
LINE
  8
0
 62
     0
 10
75.8652
 20
220.92
 30
0.0
 11
75.1018
 21
218.07
 31
0.0
  0
LINE
  8
0
 62
     0
 10
75.1018
 20
218.07
 30
0.0
 11
75.8747
 21
217.862
 31
0.0
  0
LINE
  8
0
 62
     0
 10
75.8747
 20
217.862
 30
0.0
 11
75.6158
 21
216.896
 31
0.0
  0
LINE
  8
0
 62
     0
 10
75.6158
 20
216.896
 30
0.0
 11
88.9938
 21
213.312
 31
0.0
  0
LINE
  8
0
 62
     0
 10
88.9938
 20
213.312
 30
0.0
 11
89.2528
 21
214.278
 31
0.0
  0
LINE
  8
0
 62
     0
 10
89.2528
 20
214.278
 30
0.0
 11
90.0257
 21
214.071
 31
0.0
  0
LINE
  8
0
 62
     0
 10
90.0257
 20
214.071
 30
0.0
 11
90.7881
 21
216.921
 31
0.0
  0
LINE
  8
0
 62
     0
 10
90.7881
 20
216.921
 30
0.0
 11
90.0162
 21
217.128
 31
0.0
  0
LINE
  8
0
 62
     0
 10
90.0162
 20
217.128
 30
0.0
 11
91.5568
 21
222.874
 31
0.0
  0
LINE
  8
0
 62
     0
 10
91.5568
 20
222.874
 30
0.0
 11
92.3286
 21
222.668
 31
0.0
  0
LINE
  8
0
 62
     0
 10
92.3286
 20
222.668
 30
0.0
 11
93.0921
 21
225.517
 31
0.0
  0
LINE
  8
0
 62
     0
 10
93.0921
 20
225.517
 30
0.0
 11
92.3188
 21
225.726
 31
0.0
  0
LINE
  8
0
 62
     0
 10
92.3188
 20
225.726
 30
0.0
 11
92.5781
 21
226.69
 31
0.0
  0
LINE
  8
0
 62
     0
 10
92.5781
 20
226.69
 30
0.0
 11
79.2
 21
230.274
 31
0.0
  0
LINE
  8
0
 62
     0
 10
79.2
 20
230.274
 30
0.0
 11
78.9411
 21
229.308
 31
0.0
  0
LINE
  8
0
 62
     0
 10
59.3079
 20
229.639
 30
0.0
 11
58.535
 21
229.847
 31
0.0
  0
LINE
  8
0
 62
     0
 10
58.535
 20
229.847
 30
0.0
 11
57.7716
 21
226.997
 31
0.0
  0
LINE
  8
0
 62
     0
 10
57.7716
 20
226.997
 30
0.0
 11
58.5445
 21
226.789
 31
0.0
  0
LINE
  8
0
 62
     0
 10
58.5445
 20
226.789
 30
0.0
 11
57.0039
 21
221.043
 31
0.0
  0
LINE
  8
0
 62
     0
 10
57.0039
 20
221.043
 30
0.0
 11
56.231
 21
221.25
 31
0.0
  0
LINE
  8
0
 62
     0
 10
56.231
 20
221.25
 30
0.0
 11
55.4687
 21
218.4
 31
0.0
  0
LINE
  8
0
 62
     0
 10
55.4687
 20
218.4
 30
0.0
 11
56.2419
 21
218.193
 31
0.0
  0
LINE
  8
0
 62
     0
 10
56.2419
 20
218.193
 30
0.0
 11
55.9827
 21
217.227
 31
0.0
  0
LINE
  8
0
 62
     0
 10
55.9827
 20
217.227
 30
0.0
 11
69.3607
 21
213.643
 31
0.0
  0
LINE
  8
0
 62
     0
 10
69.3607
 20
213.643
 30
0.0
 11
69.62
 21
214.609
 31
0.0
  0
LINE
  8
0
 62
     0
 10
69.62
 20
214.609
 30
0.0
 11
70.3915
 21
214.402
 31
0.0
  0
LINE
  8
0
 62
     0
 10
70.3915
 20
214.402
 30
0.0
 11
71.1549
 21
217.25
 31
0.0
  0
LINE
  8
0
 62
     0
 10
71.1549
 20
217.25
 30
0.0
 11
70.382
 21
217.457
 31
0.0
  0
LINE
  8
0
 62
     0
 10
70.382
 20
217.457
 30
0.0
 11
71.9226
 21
223.205
 31
0.0
  0
LINE
  8
0
 62
     0
 10
71.9226
 20
223.205
 30
0.0
 11
72.6955
 21
222.998
 31
0.0
  0
LINE
  8
0
 62
     0
 10
72.6955
 20
222.998
 30
0.0
 11
73.4589
 21
225.848
 31
0.0
  0
LINE
  8
0
 62
     0
 10
73.4589
 20
225.848
 30
0.0
 11
72.686
 21
226.055
 31
0.0
  0
LINE
  8
0
 62
     0
 10
72.686
 20
226.055
 30
0.0
 11
72.9449
 21
227.021
 31
0.0
  0
LINE
  8
0
 62
     0
 10
72.9449
 20
227.021
 30
0.0
 11
59.5672
 21
230.605
 31
0.0
  0
LINE
  8
0
 62
     0
 10
59.5672
 20
230.605
 30
0.0
 11
59.3079
 21
229.639
 31
0.0
  0
LINE
  8
0
 62
     0
 10
203.494
 20
227.083
 30
0.0
 11
203.752
 21
226.117
 31
0.0
  0
LINE
  8
0
 62
     0
 10
203.752
 20
226.117
 30
0.0
 11
202.98
 21
225.91
 31
0.0
  0
LINE
  8
0
 62
     0
 10
202.98
 20
225.91
 30
0.0
 11
203.743
 21
223.06
 31
0.0
  0
LINE
  8
0
 62
     0
 10
203.743
 20
223.06
 30
0.0
 11
204.516
 21
223.268
 31
0.0
  0
LINE
  8
0
 62
     0
 10
204.516
 20
223.268
 30
0.0
 11
206.057
 21
217.521
 31
0.0
  0
LINE
  8
0
 62
     0
 10
206.057
 20
217.521
 30
0.0
 11
205.284
 21
217.314
 31
0.0
  0
LINE
  8
0
 62
     0
 10
205.284
 20
217.314
 30
0.0
 11
206.047
 21
214.464
 31
0.0
  0
LINE
  8
0
 62
     0
 10
206.047
 20
214.464
 30
0.0
 11
206.82
 21
214.671
 31
0.0
  0
LINE
  8
0
 62
     0
 10
206.82
 20
214.671
 30
0.0
 11
207.078
 21
213.705
 31
0.0
  0
LINE
  8
0
 62
     0
 10
207.078
 20
213.705
 30
0.0
 11
220.457
 21
217.29
 31
0.0
  0
LINE
  8
0
 62
     0
 10
220.457
 20
217.29
 30
0.0
 11
220.198
 21
218.257
 31
0.0
  0
LINE
  8
0
 62
     0
 10
220.198
 20
218.257
 30
0.0
 11
220.97
 21
218.463
 31
0.0
  0
LINE
  8
0
 62
     0
 10
220.97
 20
218.463
 30
0.0
 11
220.206
 21
221.312
 31
0.0
  0
LINE
  8
0
 62
     0
 10
220.206
 20
221.312
 30
0.0
 11
219.435
 21
221.105
 31
0.0
  0
LINE
  8
0
 62
     0
 10
219.435
 20
221.105
 30
0.0
 11
217.894
 21
226.853
 31
0.0
  0
LINE
  8
0
 62
     0
 10
217.894
 20
226.853
 30
0.0
 11
218.667
 21
227.059
 31
0.0
  0
LINE
  8
0
 62
     0
 10
218.667
 20
227.059
 30
0.0
 11
217.904
 21
229.909
 31
0.0
  0
LINE
  8
0
 62
     0
 10
217.904
 20
229.909
 30
0.0
 11
217.13
 21
229.702
 31
0.0
  0
LINE
  8
0
 62
     0
 10
217.13
 20
229.702
 30
0.0
 11
216.872
 21
230.668
 31
0.0
  0
LINE
  8
0
 62
     0
 10
216.872
 20
230.668
 30
0.0
 11
203.494
 21
227.083
 31
0.0
  0
LINE
  8
0
 62
     0
 10
223.128
 20
227.414
 30
0.0
 11
223.387
 21
226.447
 31
0.0
  0
LINE
  8
0
 62
     0
 10
223.387
 20
226.447
 30
0.0
 11
222.614
 21
226.241
 31
0.0
  0
LINE
  8
0
 62
     0
 10
222.614
 20
226.241
 30
0.0
 11
223.376
 21
223.391
 31
0.0
  0
LINE
  8
0
 62
     0
 10
223.376
 20
223.391
 30
0.0
 11
224.149
 21
223.598
 31
0.0
  0
LINE
  8
0
 62
     0
 10
224.149
 20
223.598
 30
0.0
 11
225.69
 21
217.851
 31
0.0
  0
LINE
  8
0
 62
     0
 10
225.69
 20
217.851
 30
0.0
 11
224.917
 21
217.643
 31
0.0
  0
LINE
  8
0
 62
     0
 10
224.917
 20
217.643
 30
0.0
 11
225.68
 21
214.793
 31
0.0
  0
LINE
  8
0
 62
     0
 10
225.68
 20
214.793
 30
0.0
 11
226.453
 21
215
 31
0.0
  0
LINE
  8
0
 62
     0
 10
226.453
 20
215
 30
0.0
 11
226.712
 21
214.036
 31
0.0
  0
LINE
  8
0
 62
     0
 10
226.712
 20
214.036
 30
0.0
 11
240.09
 21
217.62
 31
0.0
  0
LINE
  8
0
 62
     0
 10
240.09
 20
217.62
 30
0.0
 11
239.831
 21
218.586
 31
0.0
  0
LINE
  8
0
 62
     0
 10
239.831
 20
218.586
 30
0.0
 11
240.604
 21
218.792
 31
0.0
  0
LINE
  8
0
 62
     0
 10
240.604
 20
218.792
 30
0.0
 11
239.841
 21
221.642
 31
0.0
  0
LINE
  8
0
 62
     0
 10
239.841
 20
221.642
 30
0.0
 11
239.068
 21
221.435
 31
0.0
  0
LINE
  8
0
 62
     0
 10
239.068
 20
221.435
 30
0.0
 11
237.527
 21
227.183
 31
0.0
  0
LINE
  8
0
 62
     0
 10
237.527
 20
227.183
 30
0.0
 11
238.3
 21
227.39
 31
0.0
  0
LINE
  8
0
 62
     0
 10
238.3
 20
227.39
 30
0.0
 11
237.537
 21
230.239
 31
0.0
  0
LINE
  8
0
 62
     0
 10
237.537
 20
230.239
 30
0.0
 11
236.765
 21
230.032
 31
0.0
  0
LINE
  8
0
 62
     0
 10
236.765
 20
230.032
 30
0.0
 11
236.506
 21
230.998
 31
0.0
  0
LINE
  8
0
 62
     0
 10
236.506
 20
230.998
 30
0.0
 11
223.128
 21
227.414
 31
0.0
  0
LINE
  8
0
 62
     0
 10
15.4409
 20
231.533
 30
0.0
 11
14.6678
 21
231.739
 31
0.0
  0
LINE
  8
0
 62
     0
 10
14.6678
 20
231.739
 30
0.0
 11
13.9044
 21
228.889
 31
0.0
  0
LINE
  8
0
 62
     0
 10
13.9044
 20
228.889
 30
0.0
 11
14.6775
 21
228.683
 31
0.0
  0
LINE
  8
0
 62
     0
 10
14.6775
 20
228.683
 30
0.0
 11
13.1368
 21
222.936
 31
0.0
  0
LINE
  8
0
 62
     0
 10
13.1368
 20
222.936
 30
0.0
 11
12.3651
 21
223.143
 31
0.0
  0
LINE
  8
0
 62
     0
 10
12.3651
 20
223.143
 30
0.0
 11
11.6017
 21
220.293
 31
0.0
  0
LINE
  8
0
 62
     0
 10
11.6017
 20
220.293
 30
0.0
 11
12.3734
 21
220.086
 31
0.0
  0
LINE
  8
0
 62
     0
 10
12.3734
 20
220.086
 30
0.0
 11
12.1157
 21
219.121
 31
0.0
  0
LINE
  8
0
 62
     0
 10
12.1157
 20
219.121
 30
0.0
 11
25.4937
 21
215.536
 31
0.0
  0
LINE
  8
0
 62
     0
 10
25.4937
 20
215.536
 30
0.0
 11
25.7514
 21
216.502
 31
0.0
  0
LINE
  8
0
 62
     0
 10
25.7514
 20
216.502
 30
0.0
 11
26.5245
 21
216.295
 31
0.0
  0
LINE
  8
0
 62
     0
 10
26.5245
 20
216.295
 30
0.0
 11
27.2879
 21
219.144
 31
0.0
  0
LINE
  8
0
 62
     0
 10
27.2879
 20
219.144
 30
0.0
 11
26.5148
 21
219.351
 31
0.0
  0
LINE
  8
0
 62
     0
 10
26.5148
 20
219.351
 30
0.0
 11
28.0555
 21
225.098
 31
0.0
  0
LINE
  8
0
 62
     0
 10
28.0555
 20
225.098
 30
0.0
 11
28.8286
 21
224.89
 31
0.0
  0
LINE
  8
0
 62
     0
 10
28.8286
 20
224.89
 30
0.0
 11
29.592
 21
227.741
 31
0.0
  0
LINE
  8
0
 62
     0
 10
29.592
 20
227.741
 30
0.0
 11
28.8189
 21
227.948
 31
0.0
  0
LINE
  8
0
 62
     0
 10
28.8189
 20
227.948
 30
0.0
 11
29.078
 21
228.914
 31
0.0
  0
LINE
  8
0
 62
     0
 10
29.078
 20
228.914
 30
0.0
 11
15.7
 21
232.499
 31
0.0
  0
LINE
  8
0
 62
     0
 10
15.7
 20
232.499
 30
0.0
 11
15.4409
 21
231.533
 31
0.0
  0
LINE
  8
0
 62
     0
 10
266.995
 20
229.307
 30
0.0
 11
267.254
 21
228.341
 31
0.0
  0
LINE
  8
0
 62
     0
 10
267.254
 20
228.341
 30
0.0
 11
266.481
 21
228.134
 31
0.0
  0
LINE
  8
0
 62
     0
 10
266.481
 20
228.134
 30
0.0
 11
267.244
 21
225.285
 31
0.0
  0
LINE
  8
0
 62
     0
 10
267.244
 20
225.285
 30
0.0
 11
268.016
 21
225.491
 31
0.0
  0
LINE
  8
0
 62
     0
 10
268.016
 20
225.491
 30
0.0
 11
269.557
 21
219.744
 31
0.0
  0
LINE
  8
0
 62
     0
 10
269.557
 20
219.744
 30
0.0
 11
268.785
 21
219.537
 31
0.0
  0
LINE
  8
0
 62
     0
 10
268.785
 20
219.537
 30
0.0
 11
269.547
 21
216.688
 31
0.0
  0
LINE
  8
0
 62
     0
 10
269.547
 20
216.688
 30
0.0
 11
270.32
 21
216.895
 31
0.0
  0
LINE
  8
0
 62
     0
 10
270.32
 20
216.895
 30
0.0
 11
270.579
 21
215.929
 31
0.0
  0
LINE
  8
0
 62
     0
 10
270.579
 20
215.929
 30
0.0
 11
283.957
 21
219.513
 31
0.0
  0
LINE
  8
0
 62
     0
 10
283.957
 20
219.513
 30
0.0
 11
283.698
 21
220.479
 31
0.0
  0
LINE
  8
0
 62
     0
 10
283.698
 20
220.479
 30
0.0
 11
284.471
 21
220.686
 31
0.0
  0
LINE
  8
0
 62
     0
 10
284.471
 20
220.686
 30
0.0
 11
283.708
 21
223.536
 31
0.0
  0
LINE
  8
0
 62
     0
 10
283.708
 20
223.536
 30
0.0
 11
282.935
 21
223.329
 31
0.0
  0
LINE
  8
0
 62
     0
 10
282.935
 20
223.329
 30
0.0
 11
281.394
 21
229.076
 31
0.0
  0
LINE
  8
0
 62
     0
 10
281.394
 20
229.076
 30
0.0
 11
282.167
 21
229.282
 31
0.0
  0
LINE
  8
0
 62
     0
 10
282.167
 20
229.282
 30
0.0
 11
281.405
 21
232.133
 31
0.0
  0
LINE
  8
0
 62
     0
 10
281.405
 20
232.133
 30
0.0
 11
280.632
 21
231.925
 31
0.0
  0
LINE
  8
0
 62
     0
 10
280.632
 20
231.925
 30
0.0
 11
280.373
 21
232.891
 31
0.0
  0
LINE
  8
0
 62
     0
 10
280.373
 20
232.891
 30
0.0
 11
266.995
 21
229.307
 31
0.0
  0
LINE
  8
0
 62
     0
 10
101.04
 20
238.179
 30
0.0
 11
100.268
 21
238.385
 31
0.0
  0
LINE
  8
0
 62
     0
 10
100.268
 20
238.385
 30
0.0
 11
99.5041
 21
235.537
 31
0.0
  0
LINE
  8
0
 62
     0
 10
99.5041
 20
235.537
 30
0.0
 11
100.277
 21
235.33
 31
0.0
  0
LINE
  8
0
 62
     0
 10
100.277
 20
235.33
 30
0.0
 11
98.7365
 21
229.582
 31
0.0
  0
LINE
  8
0
 62
     0
 10
98.7365
 20
229.582
 30
0.0
 11
97.9646
 21
229.789
 31
0.0
  0
LINE
  8
0
 62
     0
 10
97.9646
 20
229.789
 30
0.0
 11
97.1998
 21
226.939
 31
0.0
  0
LINE
  8
0
 62
     0
 10
97.1998
 20
226.939
 30
0.0
 11
97.9731
 21
226.733
 31
0.0
  0
LINE
  8
0
 62
     0
 10
97.9731
 20
226.733
 30
0.0
 11
97.7138
 21
225.767
 31
0.0
  0
LINE
  8
0
 62
     0
 10
97.7138
 20
225.767
 30
0.0
 11
111.092
 21
222.183
 31
0.0
  0
LINE
  8
0
 62
     0
 10
111.092
 20
222.183
 30
0.0
 11
111.351
 21
223.149
 31
0.0
  0
LINE
  8
0
 62
     0
 10
111.351
 20
223.149
 30
0.0
 11
112.124
 21
222.94
 31
0.0
  0
LINE
  8
0
 62
     0
 10
112.124
 20
222.94
 30
0.0
 11
112.887
 21
225.79
 31
0.0
  0
LINE
  8
0
 62
     0
 10
112.887
 20
225.79
 30
0.0
 11
112.115
 21
225.998
 31
0.0
  0
LINE
  8
0
 62
     0
 10
112.115
 20
225.998
 30
0.0
 11
113.655
 21
231.745
 31
0.0
  0
LINE
  8
0
 62
     0
 10
113.655
 20
231.745
 30
0.0
 11
114.428
 21
231.538
 31
0.0
  0
LINE
  8
0
 62
     0
 10
114.428
 20
231.538
 30
0.0
 11
115.191
 21
234.388
 31
0.0
  0
LINE
  8
0
 62
     0
 10
115.191
 20
234.388
 30
0.0
 11
114.419
 21
234.594
 31
0.0
  0
LINE
  8
0
 62
     0
 10
114.419
 20
234.594
 30
0.0
 11
114.677
 21
235.56
 31
0.0
  0
LINE
  8
0
 62
     0
 10
114.677
 20
235.56
 30
0.0
 11
101.299
 21
239.145
 31
0.0
  0
LINE
  8
0
 62
     0
 10
101.299
 20
239.145
 30
0.0
 11
101.04
 21
238.179
 31
0.0
  0
LINE
  8
0
 62
     0
 10
181.394
 20
235.953
 30
0.0
 11
181.653
 21
234.987
 31
0.0
  0
LINE
  8
0
 62
     0
 10
181.653
 20
234.987
 30
0.0
 11
180.881
 21
234.779
 31
0.0
  0
LINE
  8
0
 62
     0
 10
180.881
 20
234.779
 30
0.0
 11
181.645
 21
231.931
 31
0.0
  0
LINE
  8
0
 62
     0
 10
181.645
 20
231.931
 30
0.0
 11
182.418
 21
232.137
 31
0.0
  0
LINE
  8
0
 62
     0
 10
182.418
 20
232.137
 30
0.0
 11
183.957
 21
226.391
 31
0.0
  0
LINE
  8
0
 62
     0
 10
183.957
 20
226.391
 30
0.0
 11
183.184
 21
226.184
 31
0.0
  0
LINE
  8
0
 62
     0
 10
183.184
 20
226.184
 30
0.0
 11
183.949
 21
223.333
 31
0.0
  0
LINE
  8
0
 62
     0
 10
183.949
 20
223.333
 30
0.0
 11
184.72
 21
223.541
 31
0.0
  0
LINE
  8
0
 62
     0
 10
184.72
 20
223.541
 30
0.0
 11
184.98
 21
222.575
 31
0.0
  0
LINE
  8
0
 62
     0
 10
184.98
 20
222.575
 30
0.0
 11
198.357
 21
226.159
 31
0.0
  0
LINE
  8
0
 62
     0
 10
198.357
 20
226.159
 30
0.0
 11
198.098
 21
227.125
 31
0.0
  0
LINE
  8
0
 62
     0
 10
198.098
 20
227.125
 30
0.0
 11
198.871
 21
227.332
 31
0.0
  0
LINE
  8
0
 62
     0
 10
198.871
 20
227.332
 30
0.0
 11
198.108
 21
230.183
 31
0.0
  0
LINE
  8
0
 62
     0
 10
198.108
 20
230.183
 30
0.0
 11
197.335
 21
229.975
 31
0.0
  0
LINE
  8
0
 62
     0
 10
197.335
 20
229.975
 30
0.0
 11
195.796
 21
235.723
 31
0.0
  0
LINE
  8
0
 62
     0
 10
195.796
 20
235.723
 30
0.0
 11
196.569
 21
235.93
 31
0.0
  0
LINE
  8
0
 62
     0
 10
196.569
 20
235.93
 30
0.0
 11
195.804
 21
238.778
 31
0.0
  0
LINE
  8
0
 62
     0
 10
195.804
 20
238.778
 30
0.0
 11
195.031
 21
238.572
 31
0.0
  0
LINE
  8
0
 62
     0
 10
195.031
 20
238.572
 30
0.0
 11
194.773
 21
239.538
 31
0.0
  0
LINE
  8
0
 62
     0
 10
194.773
 20
239.538
 30
0.0
 11
181.394
 21
235.953
 31
0.0
  0
LINE
  8
0
 62
     0
 10
43.3723
 20
243.769
 30
0.0
 11
42.5993
 21
243.976
 31
0.0
  0
LINE
  8
0
 62
     0
 10
42.5993
 20
243.976
 30
0.0
 11
41.8359
 21
241.128
 31
0.0
  0
LINE
  8
0
 62
     0
 10
41.8359
 20
241.128
 30
0.0
 11
42.6089
 21
240.921
 31
0.0
  0
LINE
  8
0
 62
     0
 10
42.6089
 20
240.921
 30
0.0
 11
41.0683
 21
235.173
 31
0.0
  0
LINE
  8
0
 62
     0
 10
41.0683
 20
235.173
 30
0.0
 11
40.2967
 21
235.381
 31
0.0
  0
LINE
  8
0
 62
     0
 10
40.2967
 20
235.381
 30
0.0
 11
39.5333
 21
232.53
 31
0.0
  0
LINE
  8
0
 62
     0
 10
39.5333
 20
232.53
 30
0.0
 11
40.3049
 21
232.324
 31
0.0
  0
LINE
  8
0
 62
     0
 10
40.3049
 20
232.324
 30
0.0
 11
40.0473
 21
231.357
 31
0.0
  0
LINE
  8
0
 62
     0
 10
40.0473
 20
231.357
 30
0.0
 11
53.425
 21
227.773
 31
0.0
  0
LINE
  8
0
 62
     0
 10
53.425
 20
227.773
 30
0.0
 11
53.6829
 21
228.739
 31
0.0
  0
LINE
  8
0
 62
     0
 10
53.6829
 20
228.739
 30
0.0
 11
54.4558
 21
228.533
 31
0.0
  0
LINE
  8
0
 62
     0
 10
54.4558
 20
228.533
 30
0.0
 11
55.2192
 21
231.382
 31
0.0
  0
LINE
  8
0
 62
     0
 10
55.2192
 20
231.382
 30
0.0
 11
54.4477
 21
231.589
 31
0.0
  0
LINE
  8
0
 62
     0
 10
54.4477
 20
231.589
 30
0.0
 11
55.9869
 21
237.335
 31
0.0
  0
LINE
  8
0
 62
     0
 10
55.9869
 20
237.335
 30
0.0
 11
56.7602
 21
237.129
 31
0.0
  0
LINE
  8
0
 62
     0
 10
56.7602
 20
237.129
 30
0.0
 11
57.5236
 21
239.979
 31
0.0
  0
LINE
  8
0
 62
     0
 10
57.5236
 20
239.979
 30
0.0
 11
56.7503
 21
240.185
 31
0.0
  0
LINE
  8
0
 62
     0
 10
56.7503
 20
240.185
 30
0.0
 11
57.0096
 21
241.151
 31
0.0
  0
LINE
  8
0
 62
     0
 10
57.0096
 20
241.151
 30
0.0
 11
43.6316
 21
244.735
 31
0.0
  0
LINE
  8
0
 62
     0
 10
43.6316
 20
244.735
 30
0.0
 11
43.3723
 21
243.769
 31
0.0
  0
LINE
  8
0
 62
     0
 10
239.062
 20
241.545
 30
0.0
 11
239.321
 21
240.579
 31
0.0
  0
LINE
  8
0
 62
     0
 10
239.321
 20
240.579
 30
0.0
 11
238.548
 21
240.371
 31
0.0
  0
LINE
  8
0
 62
     0
 10
238.548
 20
240.371
 30
0.0
 11
239.313
 21
237.521
 31
0.0
  0
LINE
  8
0
 62
     0
 10
239.313
 20
237.521
 30
0.0
 11
240.086
 21
237.728
 31
0.0
  0
LINE
  8
0
 62
     0
 10
240.086
 20
237.728
 30
0.0
 11
241.625
 21
231.982
 31
0.0
  0
LINE
  8
0
 62
     0
 10
241.625
 20
231.982
 30
0.0
 11
240.852
 21
231.775
 31
0.0
  0
LINE
  8
0
 62
     0
 10
240.852
 20
231.775
 30
0.0
 11
241.616
 21
228.925
 31
0.0
  0
LINE
  8
0
 62
     0
 10
241.616
 20
228.925
 30
0.0
 11
242.389
 21
229.132
 31
0.0
  0
LINE
  8
0
 62
     0
 10
242.389
 20
229.132
 30
0.0
 11
242.648
 21
228.166
 31
0.0
  0
LINE
  8
0
 62
     0
 10
242.648
 20
228.166
 30
0.0
 11
256.024
 21
231.75
 31
0.0
  0
LINE
  8
0
 62
     0
 10
256.024
 20
231.75
 30
0.0
 11
255.767
 21
232.716
 31
0.0
  0
LINE
  8
0
 62
     0
 10
255.767
 20
232.716
 30
0.0
 11
256.538
 21
232.924
 31
0.0
  0
LINE
  8
0
 62
     0
 10
256.538
 20
232.924
 30
0.0
 11
255.775
 21
235.774
 31
0.0
  0
LINE
  8
0
 62
     0
 10
255.775
 20
235.774
 30
0.0
 11
255.002
 21
235.567
 31
0.0
  0
LINE
  8
0
 62
     0
 10
255.002
 20
235.567
 30
0.0
 11
253.464
 21
241.314
 31
0.0
  0
LINE
  8
0
 62
     0
 10
253.464
 20
241.314
 30
0.0
 11
254.236
 21
241.52
 31
0.0
  0
LINE
  8
0
 62
     0
 10
254.236
 20
241.52
 30
0.0
 11
253.471
 21
244.37
 31
0.0
  0
LINE
  8
0
 62
     0
 10
253.471
 20
244.37
 30
0.0
 11
252.699
 21
244.162
 31
0.0
  0
LINE
  8
0
 62
     0
 10
252.699
 20
244.162
 30
0.0
 11
252.44
 21
245.128
 31
0.0
  0
LINE
  8
0
 62
     0
 10
252.44
 20
245.128
 30
0.0
 11
239.062
 21
241.545
 31
0.0
  0
LINE
  8
0
 62
     0
 10
123.14
 20
247.049
 30
0.0
 11
122.367
 21
247.257
 31
0.0
  0
LINE
  8
0
 62
     0
 10
122.367
 20
247.257
 30
0.0
 11
121.602
 21
244.408
 31
0.0
  0
LINE
  8
0
 62
     0
 10
121.602
 20
244.408
 30
0.0
 11
122.375
 21
244.199
 31
0.0
  0
LINE
  8
0
 62
     0
 10
122.375
 20
244.199
 30
0.0
 11
120.836
 21
238.453
 31
0.0
  0
LINE
  8
0
 62
     0
 10
120.836
 20
238.453
 30
0.0
 11
120.063
 21
238.66
 31
0.0
  0
LINE
  8
0
 62
     0
 10
120.063
 20
238.66
 30
0.0
 11
119.3
 21
235.81
 31
0.0
  0
LINE
  8
0
 62
     0
 10
119.3
 20
235.81
 30
0.0
 11
120.073
 21
235.603
 31
0.0
  0
LINE
  8
0
 62
     0
 10
120.073
 20
235.603
 30
0.0
 11
119.814
 21
234.637
 31
0.0
  0
LINE
  8
0
 62
     0
 10
119.814
 20
234.637
 30
0.0
 11
133.192
 21
231.053
 31
0.0
  0
LINE
  8
0
 62
     0
 10
133.192
 20
231.053
 30
0.0
 11
133.451
 21
232.019
 31
0.0
  0
LINE
  8
0
 62
     0
 10
133.451
 20
232.019
 30
0.0
 11
134.222
 21
231.812
 31
0.0
  0
LINE
  8
0
 62
     0
 10
134.222
 20
231.812
 30
0.0
 11
134.987
 21
234.661
 31
0.0
  0
LINE
  8
0
 62
     0
 10
134.987
 20
234.661
 30
0.0
 11
134.214
 21
234.867
 31
0.0
  0
LINE
  8
0
 62
     0
 10
134.214
 20
234.867
 30
0.0
 11
135.753
 21
240.615
 31
0.0
  0
LINE
  8
0
 62
     0
 10
135.753
 20
240.615
 30
0.0
 11
136.526
 21
240.409
 31
0.0
  0
LINE
  8
0
 62
     0
 10
136.526
 20
240.409
 30
0.0
 11
137.29
 21
243.258
 31
0.0
  0
LINE
  8
0
 62
     0
 10
137.29
 20
243.258
 30
0.0
 11
136.518
 21
243.465
 31
0.0
  0
LINE
  8
0
 62
     0
 10
136.518
 20
243.465
 30
0.0
 11
136.776
 21
244.431
 31
0.0
  0
LINE
  8
0
 62
     0
 10
136.776
 20
244.431
 30
0.0
 11
123.396
 21
248.015
 31
0.0
  0
LINE
  8
0
 62
     0
 10
123.396
 20
248.015
 30
0.0
 11
123.14
 21
247.049
 31
0.0
  0
LINE
  8
0
 62
     0
 10
159.297
 20
244.824
 30
0.0
 11
159.555
 21
243.858
 31
0.0
  0
LINE
  8
0
 62
     0
 10
159.555
 20
243.858
 30
0.0
 11
158.783
 21
243.651
 31
0.0
  0
LINE
  8
0
 62
     0
 10
158.783
 20
243.651
 30
0.0
 11
159.545
 21
240.801
 31
0.0
  0
LINE
  8
0
 62
     0
 10
159.545
 20
240.801
 30
0.0
 11
160.318
 21
241.008
 31
0.0
  0
LINE
  8
0
 62
     0
 10
160.318
 20
241.008
 30
0.0
 11
161.859
 21
235.262
 31
0.0
  0
LINE
  8
0
 62
     0
 10
161.859
 20
235.262
 30
0.0
 11
161.086
 21
235.053
 31
0.0
  0
LINE
  8
0
 62
     0
 10
161.086
 20
235.053
 30
0.0
 11
161.849
 21
232.204
 31
0.0
  0
LINE
  8
0
 62
     0
 10
161.849
 20
232.204
 30
0.0
 11
162.621
 21
232.41
 31
0.0
  0
LINE
  8
0
 62
     0
 10
162.621
 20
232.41
 30
0.0
 11
162.88
 21
231.445
 31
0.0
  0
LINE
  8
0
 62
     0
 10
162.88
 20
231.445
 30
0.0
 11
176.258
 21
235.03
 31
0.0
  0
LINE
  8
0
 62
     0
 10
176.258
 20
235.03
 30
0.0
 11
176
 21
235.996
 31
0.0
  0
LINE
  8
0
 62
     0
 10
176
 20
235.996
 30
0.0
 11
176.772
 21
236.203
 31
0.0
  0
LINE
  8
0
 62
     0
 10
176.772
 20
236.203
 30
0.0
 11
176.01
 21
239.052
 31
0.0
  0
LINE
  8
0
 62
     0
 10
176.01
 20
239.052
 30
0.0
 11
175.237
 21
238.846
 31
0.0
  0
LINE
  8
0
 62
     0
 10
175.237
 20
238.846
 30
0.0
 11
173.696
 21
244.592
 31
0.0
  0
LINE
  8
0
 62
     0
 10
173.696
 20
244.592
 30
0.0
 11
174.469
 21
244.8
 31
0.0
  0
LINE
  8
0
 62
     0
 10
174.469
 20
244.8
 30
0.0
 11
173.706
 21
247.649
 31
0.0
  0
LINE
  8
0
 62
     0
 10
173.706
 20
247.649
 30
0.0
 11
172.934
 21
247.442
 31
0.0
  0
LINE
  8
0
 62
     0
 10
172.934
 20
247.442
 30
0.0
 11
172.675
 21
248.408
 31
0.0
  0
LINE
  8
0
 62
     0
 10
172.675
 20
248.408
 30
0.0
 11
159.297
 21
244.824
 31
0.0
  0
LINE
  8
0
 62
     0
 10
83.8729
 20
247.709
 30
0.0
 11
83.1
 21
247.917
 31
0.0
  0
LINE
  8
0
 62
     0
 10
83.1
 20
247.917
 30
0.0
 11
82.3352
 21
245.068
 31
0.0
  0
LINE
  8
0
 62
     0
 10
82.3352
 20
245.068
 30
0.0
 11
83.1081
 21
244.861
 31
0.0
  0
LINE
  8
0
 62
     0
 10
83.1081
 20
244.861
 30
0.0
 11
81.5689
 21
239.113
 31
0.0
  0
LINE
  8
0
 62
     0
 10
81.5689
 20
239.113
 30
0.0
 11
80.7956
 21
239.32
 31
0.0
  0
LINE
  8
0
 62
     0
 10
80.7956
 20
239.32
 30
0.0
 11
80.0322
 21
236.472
 31
0.0
  0
LINE
  8
0
 62
     0
 10
80.0322
 20
236.472
 30
0.0
 11
80.8055
 21
236.263
 31
0.0
  0
LINE
  8
0
 62
     0
 10
80.8055
 20
236.263
 30
0.0
 11
80.5462
 21
235.297
 31
0.0
  0
LINE
  8
0
 62
     0
 10
80.5462
 20
235.297
 30
0.0
 11
93.9243
 21
231.713
 31
0.0
  0
LINE
  8
0
 62
     0
 10
93.9243
 20
231.713
 30
0.0
 11
94.1835
 21
232.679
 31
0.0
  0
LINE
  8
0
 62
     0
 10
94.1835
 20
232.679
 30
0.0
 11
94.9551
 21
232.472
 31
0.0
  0
LINE
  8
0
 62
     0
 10
94.9551
 20
232.472
 30
0.0
 11
95.7199
 21
235.322
 31
0.0
  0
LINE
  8
0
 62
     0
 10
95.7199
 20
235.322
 30
0.0
 11
94.947
 21
235.529
 31
0.0
  0
LINE
  8
0
 62
     0
 10
94.947
 20
235.529
 30
0.0
 11
96.4861
 21
241.275
 31
0.0
  0
LINE
  8
0
 62
     0
 10
96.4861
 20
241.275
 30
0.0
 11
97.2591
 21
241.069
 31
0.0
  0
LINE
  8
0
 62
     0
 10
97.2591
 20
241.069
 30
0.0
 11
98.0225
 21
243.918
 31
0.0
  0
LINE
  8
0
 62
     0
 10
98.0225
 20
243.918
 30
0.0
 11
97.251
 21
244.125
 31
0.0
  0
LINE
  8
0
 62
     0
 10
97.251
 20
244.125
 30
0.0
 11
97.5099
 21
245.091
 31
0.0
  0
LINE
  8
0
 62
     0
 10
97.5099
 20
245.091
 30
0.0
 11
84.1304
 21
248.675
 31
0.0
  0
LINE
  8
0
 62
     0
 10
84.1304
 20
248.675
 30
0.0
 11
83.8729
 21
247.709
 31
0.0
  0
LINE
  8
0
 62
     0
 10
64.2387
 20
248.04
 30
0.0
 11
63.4654
 21
248.247
 31
0.0
  0
LINE
  8
0
 62
     0
 10
63.4654
 20
248.247
 30
0.0
 11
62.702
 21
245.398
 31
0.0
  0
LINE
  8
0
 62
     0
 10
62.702
 20
245.398
 30
0.0
 11
63.4753
 21
245.19
 31
0.0
  0
LINE
  8
0
 62
     0
 10
63.4753
 20
245.19
 30
0.0
 11
61.9358
 21
239.444
 31
0.0
  0
LINE
  8
0
 62
     0
 10
61.9358
 20
239.444
 30
0.0
 11
61.1628
 21
239.65
 31
0.0
  0
LINE
  8
0
 62
     0
 10
61.1628
 20
239.65
 30
0.0
 11
60.398
 21
236.801
 31
0.0
  0
LINE
  8
0
 62
     0
 10
60.398
 20
236.801
 30
0.0
 11
61.171
 21
236.594
 31
0.0
  0
LINE
  8
0
 62
     0
 10
61.171
 20
236.594
 30
0.0
 11
60.912
 21
235.628
 31
0.0
  0
LINE
  8
0
 62
     0
 10
60.912
 20
235.628
 30
0.0
 11
74.2901
 21
232.044
 31
0.0
  0
LINE
  8
0
 62
     0
 10
74.2901
 20
232.044
 30
0.0
 11
74.549
 21
233.01
 31
0.0
  0
LINE
  8
0
 62
     0
 10
74.549
 20
233.01
 30
0.0
 11
75.3223
 21
232.802
 31
0.0
  0
LINE
  8
0
 62
     0
 10
75.3223
 20
232.802
 30
0.0
 11
76.0857
 21
235.651
 31
0.0
  0
LINE
  8
0
 62
     0
 10
76.0857
 20
235.651
 30
0.0
 11
75.3138
 21
235.858
 31
0.0
  0
LINE
  8
0
 62
     0
 10
75.3138
 20
235.858
 30
0.0
 11
76.8533
 21
241.606
 31
0.0
  0
LINE
  8
0
 62
     0
 10
76.8533
 20
241.606
 30
0.0
 11
77.6249
 21
241.399
 31
0.0
  0
LINE
  8
0
 62
     0
 10
77.6249
 20
241.399
 30
0.0
 11
78.3897
 21
244.249
 31
0.0
  0
LINE
  8
0
 62
     0
 10
78.3897
 20
244.249
 30
0.0
 11
77.6168
 21
244.456
 31
0.0
  0
LINE
  8
0
 62
     0
 10
77.6168
 20
244.456
 30
0.0
 11
77.8757
 21
245.422
 31
0.0
  0
LINE
  8
0
 62
     0
 10
77.8757
 20
245.422
 30
0.0
 11
64.4977
 21
249.006
 31
0.0
  0
LINE
  8
0
 62
     0
 10
64.4977
 20
249.006
 30
0.0
 11
64.2387
 21
248.04
 31
0.0
  0
LINE
  8
0
 62
     0
 10
198.563
 20
245.484
 30
0.0
 11
198.822
 21
244.518
 31
0.0
  0
LINE
  8
0
 62
     0
 10
198.822
 20
244.518
 30
0.0
 11
198.049
 21
244.311
 31
0.0
  0
LINE
  8
0
 62
     0
 10
198.049
 20
244.311
 30
0.0
 11
198.812
 21
241.461
 31
0.0
  0
LINE
  8
0
 62
     0
 10
198.812
 20
241.461
 30
0.0
 11
199.585
 21
241.669
 31
0.0
  0
LINE
  8
0
 62
     0
 10
199.585
 20
241.669
 30
0.0
 11
201.126
 21
235.922
 31
0.0
  0
LINE
  8
0
 62
     0
 10
201.126
 20
235.922
 30
0.0
 11
200.353
 21
235.713
 31
0.0
  0
LINE
  8
0
 62
     0
 10
200.353
 20
235.713
 30
0.0
 11
201.116
 21
232.865
 31
0.0
  0
LINE
  8
0
 62
     0
 10
201.116
 20
232.865
 30
0.0
 11
201.889
 21
233.072
 31
0.0
  0
LINE
  8
0
 62
     0
 10
201.889
 20
233.072
 30
0.0
 11
202.147
 21
232.106
 31
0.0
  0
LINE
  8
0
 62
     0
 10
202.147
 20
232.106
 30
0.0
 11
215.525
 21
235.692
 31
0.0
  0
LINE
  8
0
 62
     0
 10
215.525
 20
235.692
 30
0.0
 11
215.267
 21
236.657
 31
0.0
  0
LINE
  8
0
 62
     0
 10
215.267
 20
236.657
 30
0.0
 11
216.039
 21
236.864
 31
0.0
  0
LINE
  8
0
 62
     0
 10
216.039
 20
236.864
 30
0.0
 11
215.277
 21
239.713
 31
0.0
  0
LINE
  8
0
 62
     0
 10
215.277
 20
239.713
 30
0.0
 11
214.504
 21
239.506
 31
0.0
  0
LINE
  8
0
 62
     0
 10
214.504
 20
239.506
 30
0.0
 11
212.963
 21
245.252
 31
0.0
  0
LINE
  8
0
 62
     0
 10
212.963
 20
245.252
 30
0.0
 11
213.736
 21
245.46
 31
0.0
  0
LINE
  8
0
 62
     0
 10
213.736
 20
245.46
 30
0.0
 11
212.973
 21
248.31
 31
0.0
  0
LINE
  8
0
 62
     0
 10
212.973
 20
248.31
 30
0.0
 11
212.2
 21
248.103
 31
0.0
  0
LINE
  8
0
 62
     0
 10
212.2
 20
248.103
 30
0.0
 11
211.941
 21
249.069
 31
0.0
  0
LINE
  8
0
 62
     0
 10
211.941
 20
249.069
 30
0.0
 11
198.563
 21
245.484
 31
0.0
  0
LINE
  8
0
 62
     0
 10
218.196
 20
245.814
 30
0.0
 11
218.455
 21
244.849
 31
0.0
  0
LINE
  8
0
 62
     0
 10
218.455
 20
244.849
 30
0.0
 11
217.682
 21
244.64
 31
0.0
  0
LINE
  8
0
 62
     0
 10
217.682
 20
244.64
 30
0.0
 11
218.447
 21
241.792
 31
0.0
  0
LINE
  8
0
 62
     0
 10
218.447
 20
241.792
 30
0.0
 11
219.22
 21
241.998
 31
0.0
  0
LINE
  8
0
 62
     0
 10
219.22
 20
241.998
 30
0.0
 11
220.759
 21
236.252
 31
0.0
  0
LINE
  8
0
 62
     0
 10
220.759
 20
236.252
 30
0.0
 11
219.986
 21
236.044
 31
0.0
  0
LINE
  8
0
 62
     0
 10
219.986
 20
236.044
 30
0.0
 11
220.749
 21
233.194
 31
0.0
  0
LINE
  8
0
 62
     0
 10
220.749
 20
233.194
 30
0.0
 11
221.523
 21
233.402
 31
0.0
  0
LINE
  8
0
 62
     0
 10
221.523
 20
233.402
 30
0.0
 11
221.782
 21
232.436
 31
0.0
  0
LINE
  8
0
 62
     0
 10
221.782
 20
232.436
 30
0.0
 11
235.16
 21
236.021
 31
0.0
  0
LINE
  8
0
 62
     0
 10
235.16
 20
236.021
 30
0.0
 11
234.9
 21
236.987
 31
0.0
  0
LINE
  8
0
 62
     0
 10
234.9
 20
236.987
 30
0.0
 11
235.674
 21
237.193
 31
0.0
  0
LINE
  8
0
 62
     0
 10
235.674
 20
237.193
 30
0.0
 11
234.91
 21
240.043
 31
0.0
  0
LINE
  8
0
 62
     0
 10
234.91
 20
240.043
 30
0.0
 11
234.137
 21
239.835
 31
0.0
  0
LINE
  8
0
 62
     0
 10
234.137
 20
239.835
 30
0.0
 11
232.598
 21
245.584
 31
0.0
  0
LINE
  8
0
 62
     0
 10
232.598
 20
245.584
 30
0.0
 11
233.37
 21
245.791
 31
0.0
  0
LINE
  8
0
 62
     0
 10
233.37
 20
245.791
 30
0.0
 11
232.606
 21
248.64
 31
0.0
  0
LINE
  8
0
 62
     0
 10
232.606
 20
248.64
 30
0.0
 11
231.833
 21
248.433
 31
0.0
  0
LINE
  8
0
 62
     0
 10
231.833
 20
248.433
 30
0.0
 11
231.574
 21
249.399
 31
0.0
  0
LINE
  8
0
 62
     0
 10
231.574
 20
249.399
 30
0.0
 11
218.196
 21
245.814
 31
0.0
  0
LINE
  8
0
 62
     0
 10
20.3715
 20
249.934
 30
0.0
 11
19.5985
 21
250.142
 31
0.0
  0
LINE
  8
0
 62
     0
 10
19.5985
 20
250.142
 30
0.0
 11
18.835
 21
247.29
 31
0.0
  0
LINE
  8
0
 62
     0
 10
18.835
 20
247.29
 30
0.0
 11
19.6081
 21
247.084
 31
0.0
  0
LINE
  8
0
 62
     0
 10
19.6081
 20
247.084
 30
0.0
 11
18.0674
 21
241.337
 31
0.0
  0
LINE
  8
0
 62
     0
 10
18.0674
 20
241.337
 30
0.0
 11
17.2957
 21
241.544
 31
0.0
  0
LINE
  8
0
 62
     0
 10
17.2957
 20
241.544
 30
0.0
 11
16.531
 21
238.694
 31
0.0
  0
LINE
  8
0
 62
     0
 10
16.531
 20
238.694
 30
0.0
 11
17.304
 21
238.487
 31
0.0
  0
LINE
  8
0
 62
     0
 10
17.304
 20
238.487
 30
0.0
 11
17.045
 21
237.521
 31
0.0
  0
LINE
  8
0
 62
     0
 10
17.045
 20
237.521
 30
0.0
 11
30.423
 21
233.937
 31
0.0
  0
LINE
  8
0
 62
     0
 10
30.423
 20
233.937
 30
0.0
 11
30.682
 21
234.903
 31
0.0
  0
LINE
  8
0
 62
     0
 10
30.682
 20
234.903
 30
0.0
 11
31.4551
 21
234.696
 31
0.0
  0
LINE
  8
0
 62
     0
 10
31.4551
 20
234.696
 30
0.0
 11
32.2185
 21
237.545
 31
0.0
  0
LINE
  8
0
 62
     0
 10
32.2185
 20
237.545
 30
0.0
 11
31.4454
 21
237.751
 31
0.0
  0
LINE
  8
0
 62
     0
 10
31.4454
 20
237.751
 30
0.0
 11
32.9861
 21
243.499
 31
0.0
  0
LINE
  8
0
 62
     0
 10
32.9861
 20
243.499
 30
0.0
 11
33.7592
 21
243.291
 31
0.0
  0
LINE
  8
0
 62
     0
 10
33.7592
 20
243.291
 30
0.0
 11
34.5226
 21
246.143
 31
0.0
  0
LINE
  8
0
 62
     0
 10
34.5226
 20
246.143
 30
0.0
 11
33.7495
 21
246.349
 31
0.0
  0
LINE
  8
0
 62
     0
 10
33.7495
 20
246.349
 30
0.0
 11
34.0086
 21
247.315
 31
0.0
  0
LINE
  8
0
 62
     0
 10
34.0086
 20
247.315
 30
0.0
 11
20.6306
 21
250.899
 31
0.0
  0
LINE
  8
0
 62
     0
 10
20.6306
 20
250.899
 30
0.0
 11
20.3715
 21
249.934
 31
0.0
  0
LINE
  8
0
 62
     0
 10
262.063
 20
247.708
 30
0.0
 11
262.322
 21
246.742
 31
0.0
  0
LINE
  8
0
 62
     0
 10
262.322
 20
246.742
 30
0.0
 11
261.55
 21
246.535
 31
0.0
  0
LINE
  8
0
 62
     0
 10
261.55
 20
246.535
 30
0.0
 11
262.314
 21
243.685
 31
0.0
  0
LINE
  8
0
 62
     0
 10
262.314
 20
243.685
 30
0.0
 11
263.087
 21
243.892
 31
0.0
  0
LINE
  8
0
 62
     0
 10
263.087
 20
243.892
 30
0.0
 11
264.626
 21
238.144
 31
0.0
  0
LINE
  8
0
 62
     0
 10
264.626
 20
238.144
 30
0.0
 11
263.853
 21
237.938
 31
0.0
  0
LINE
  8
0
 62
     0
 10
263.853
 20
237.938
 30
0.0
 11
264.618
 21
235.088
 31
0.0
  0
LINE
  8
0
 62
     0
 10
264.618
 20
235.088
 30
0.0
 11
265.389
 21
235.296
 31
0.0
  0
LINE
  8
0
 62
     0
 10
265.389
 20
235.296
 30
0.0
 11
265.649
 21
234.33
 31
0.0
  0
LINE
  8
0
 62
     0
 10
265.649
 20
234.33
 30
0.0
 11
279.026
 21
237.914
 31
0.0
  0
LINE
  8
0
 62
     0
 10
279.026
 20
237.914
 30
0.0
 11
278.767
 21
238.88
 31
0.0
  0
LINE
  8
0
 62
     0
 10
278.767
 20
238.88
 30
0.0
 11
279.54
 21
239.087
 31
0.0
  0
LINE
  8
0
 62
     0
 10
279.54
 20
239.087
 30
0.0
 11
278.777
 21
241.937
 31
0.0
  0
LINE
  8
0
 62
     0
 10
278.777
 20
241.937
 30
0.0
 11
278.004
 21
241.73
 31
0.0
  0
LINE
  8
0
 62
     0
 10
278.004
 20
241.73
 30
0.0
 11
276.465
 21
247.476
 31
0.0
  0
LINE
  8
0
 62
     0
 10
276.465
 20
247.476
 30
0.0
 11
277.238
 21
247.685
 31
0.0
  0
LINE
  8
0
 62
     0
 10
277.238
 20
247.685
 30
0.0
 11
276.473
 21
250.533
 31
0.0
  0
LINE
  8
0
 62
     0
 10
276.473
 20
250.533
 30
0.0
 11
275.7
 21
250.326
 31
0.0
  0
LINE
  8
0
 62
     0
 10
275.7
 20
250.326
 30
0.0
 11
275.442
 21
251.292
 31
0.0
  0
LINE
  8
0
 62
     0
 10
275.442
 20
251.292
 30
0.0
 11
262.063
 21
247.708
 31
0.0
  0
LINE
  8
0
 62
     0
 10
105.971
 20
256.58
 30
0.0
 11
105.198
 21
256.786
 31
0.0
  0
LINE
  8
0
 62
     0
 10
105.198
 20
256.786
 30
0.0
 11
104.435
 21
253.938
 31
0.0
  0
LINE
  8
0
 62
     0
 10
104.435
 20
253.938
 30
0.0
 11
105.208
 21
253.731
 31
0.0
  0
LINE
  8
0
 62
     0
 10
105.208
 20
253.731
 30
0.0
 11
103.667
 21
247.983
 31
0.0
  0
LINE
  8
0
 62
     0
 10
103.667
 20
247.983
 30
0.0
 11
102.894
 21
248.19
 31
0.0
  0
LINE
  8
0
 62
     0
 10
102.894
 20
248.19
 30
0.0
 11
102.132
 21
245.34
 31
0.0
  0
LINE
  8
0
 62
     0
 10
102.132
 20
245.34
 30
0.0
 11
102.904
 21
245.134
 31
0.0
  0
LINE
  8
0
 62
     0
 10
102.904
 20
245.134
 30
0.0
 11
102.646
 21
244.168
 31
0.0
  0
LINE
  8
0
 62
     0
 10
102.646
 20
244.168
 30
0.0
 11
116.024
 21
240.584
 31
0.0
  0
LINE
  8
0
 62
     0
 10
116.024
 20
240.584
 30
0.0
 11
116.282
 21
241.549
 31
0.0
  0
LINE
  8
0
 62
     0
 10
116.282
 20
241.549
 30
0.0
 11
117.055
 21
241.341
 31
0.0
  0
LINE
  8
0
 62
     0
 10
117.055
 20
241.341
 30
0.0
 11
117.818
 21
244.191
 31
0.0
  0
LINE
  8
0
 62
     0
 10
117.818
 20
244.191
 30
0.0
 11
117.045
 21
244.399
 31
0.0
  0
LINE
  8
0
 62
     0
 10
117.045
 20
244.399
 30
0.0
 11
118.586
 21
250.146
 31
0.0
  0
LINE
  8
0
 62
     0
 10
118.586
 20
250.146
 30
0.0
 11
119.359
 21
249.939
 31
0.0
  0
LINE
  8
0
 62
     0
 10
119.359
 20
249.939
 30
0.0
 11
120.121
 21
252.789
 31
0.0
  0
LINE
  8
0
 62
     0
 10
120.121
 20
252.789
 30
0.0
 11
119.349
 21
252.995
 31
0.0
  0
LINE
  8
0
 62
     0
 10
119.349
 20
252.995
 30
0.0
 11
119.607
 21
253.962
 31
0.0
  0
LINE
  8
0
 62
     0
 10
119.607
 20
253.962
 30
0.0
 11
106.229
 21
257.546
 31
0.0
  0
LINE
  8
0
 62
     0
 10
106.229
 20
257.546
 30
0.0
 11
105.971
 21
256.58
 31
0.0
  0
LINE
  8
0
 62
     0
 10
176.465
 20
254.354
 30
0.0
 11
176.724
 21
253.388
 31
0.0
  0
LINE
  8
0
 62
     0
 10
176.724
 20
253.388
 30
0.0
 11
175.951
 21
253.182
 31
0.0
  0
LINE
  8
0
 62
     0
 10
175.951
 20
253.182
 30
0.0
 11
176.714
 21
250.332
 31
0.0
  0
LINE
  8
0
 62
     0
 10
176.714
 20
250.332
 30
0.0
 11
177.486
 21
250.539
 31
0.0
  0
LINE
  8
0
 62
     0
 10
177.486
 20
250.539
 30
0.0
 11
179.027
 21
244.792
 31
0.0
  0
LINE
  8
0
 62
     0
 10
179.027
 20
244.792
 30
0.0
 11
178.253
 21
244.585
 31
0.0
  0
LINE
  8
0
 62
     0
 10
178.253
 20
244.585
 30
0.0
 11
179.017
 21
241.735
 31
0.0
  0
LINE
  8
0
 62
     0
 10
179.017
 20
241.735
 30
0.0
 11
179.79
 21
241.942
 31
0.0
  0
LINE
  8
0
 62
     0
 10
179.79
 20
241.942
 30
0.0
 11
180.049
 21
240.976
 31
0.0
  0
LINE
  8
0
 62
     0
 10
180.049
 20
240.976
 30
0.0
 11
193.427
 21
244.56
 31
0.0
  0
LINE
  8
0
 62
     0
 10
193.427
 20
244.56
 30
0.0
 11
193.168
 21
245.526
 31
0.0
  0
LINE
  8
0
 62
     0
 10
193.168
 20
245.526
 30
0.0
 11
193.941
 21
245.733
 31
0.0
  0
LINE
  8
0
 62
     0
 10
193.941
 20
245.733
 30
0.0
 11
193.178
 21
248.583
 31
0.0
  0
LINE
  8
0
 62
     0
 10
193.178
 20
248.583
 30
0.0
 11
192.404
 21
248.376
 31
0.0
  0
LINE
  8
0
 62
     0
 10
192.404
 20
248.376
 30
0.0
 11
190.864
 21
254.124
 31
0.0
  0
LINE
  8
0
 62
     0
 10
190.864
 20
254.124
 30
0.0
 11
191.637
 21
254.331
 31
0.0
  0
LINE
  8
0
 62
     0
 10
191.637
 20
254.331
 30
0.0
 11
190.875
 21
257.179
 31
0.0
  0
LINE
  8
0
 62
     0
 10
190.875
 20
257.179
 30
0.0
 11
190.102
 21
256.973
 31
0.0
  0
LINE
  8
0
 62
     0
 10
190.102
 20
256.973
 30
0.0
 11
189.843
 21
257.938
 31
0.0
  0
LINE
  8
0
 62
     0
 10
189.843
 20
257.938
 30
0.0
 11
176.465
 21
254.354
 31
0.0
  0
LINE
  8
0
 62
     0
 10
48.303
 20
262.17
 30
0.0
 11
47.5297
 21
262.378
 31
0.0
  0
LINE
  8
0
 62
     0
 10
47.5297
 20
262.378
 30
0.0
 11
46.7663
 21
259.529
 31
0.0
  0
LINE
  8
0
 62
     0
 10
46.7663
 20
259.529
 30
0.0
 11
47.5396
 21
259.322
 31
0.0
  0
LINE
  8
0
 62
     0
 10
47.5396
 20
259.322
 30
0.0
 11
45.999
 21
253.574
 31
0.0
  0
LINE
  8
0
 62
     0
 10
45.999
 20
253.574
 30
0.0
 11
45.2258
 21
253.782
 31
0.0
  0
LINE
  8
0
 62
     0
 10
45.2258
 20
253.782
 30
0.0
 11
44.4638
 21
250.933
 31
0.0
  0
LINE
  8
0
 62
     0
 10
44.4638
 20
250.933
 30
0.0
 11
45.2356
 21
250.724
 31
0.0
  0
LINE
  8
0
 62
     0
 10
45.2356
 20
250.724
 30
0.0
 11
44.9778
 21
249.759
 31
0.0
  0
LINE
  8
0
 62
     0
 10
44.9778
 20
249.759
 30
0.0
 11
58.3558
 21
246.174
 31
0.0
  0
LINE
  8
0
 62
     0
 10
58.3558
 20
246.174
 30
0.0
 11
58.6147
 21
247.14
 31
0.0
  0
LINE
  8
0
 62
     0
 10
58.6147
 20
247.14
 30
0.0
 11
59.3866
 21
246.934
 31
0.0
  0
LINE
  8
0
 62
     0
 10
59.3866
 20
246.934
 30
0.0
 11
60.15
 21
249.783
 31
0.0
  0
LINE
  8
0
 62
     0
 10
60.15
 20
249.783
 30
0.0
 11
59.3771
 21
249.99
 31
0.0
  0
LINE
  8
0
 62
     0
 10
59.3771
 20
249.99
 30
0.0
 11
60.9177
 21
255.736
 31
0.0
  0
LINE
  8
0
 62
     0
 10
60.9177
 20
255.736
 30
0.0
 11
61.6906
 21
255.53
 31
0.0
  0
LINE
  8
0
 62
     0
 10
61.6906
 20
255.53
 30
0.0
 11
62.454
 21
258.379
 31
0.0
  0
LINE
  8
0
 62
     0
 10
62.454
 20
258.379
 30
0.0
 11
61.6811
 21
258.588
 31
0.0
  0
LINE
  8
0
 62
     0
 10
61.6811
 20
258.588
 30
0.0
 11
61.94
 21
259.553
 31
0.0
  0
LINE
  8
0
 62
     0
 10
61.94
 20
259.553
 30
0.0
 11
48.562
 21
263.136
 31
0.0
  0
LINE
  8
0
 62
     0
 10
48.562
 20
263.136
 30
0.0
 11
48.303
 21
262.17
 31
0.0
  0
LINE
  8
0
 62
     0
 10
234.133
 20
259.945
 30
0.0
 11
234.392
 21
258.979
 31
0.0
  0
LINE
  8
0
 62
     0
 10
234.392
 20
258.979
 30
0.0
 11
233.619
 21
258.772
 31
0.0
  0
LINE
  8
0
 62
     0
 10
233.619
 20
258.772
 30
0.0
 11
234.381
 21
255.922
 31
0.0
  0
LINE
  8
0
 62
     0
 10
234.381
 20
255.922
 30
0.0
 11
235.154
 21
256.13
 31
0.0
  0
LINE
  8
0
 62
     0
 10
235.154
 20
256.13
 30
0.0
 11
236.694
 21
250.383
 31
0.0
  0
LINE
  8
0
 62
     0
 10
236.694
 20
250.383
 30
0.0
 11
235.922
 21
250.176
 31
0.0
  0
LINE
  8
0
 62
     0
 10
235.922
 20
250.176
 30
0.0
 11
236.685
 21
247.326
 31
0.0
  0
LINE
  8
0
 62
     0
 10
236.685
 20
247.326
 30
0.0
 11
237.458
 21
247.533
 31
0.0
  0
LINE
  8
0
 62
     0
 10
237.458
 20
247.533
 30
0.0
 11
237.717
 21
246.567
 31
0.0
  0
LINE
  8
0
 62
     0
 10
237.717
 20
246.567
 30
0.0
 11
251.095
 21
250.151
 31
0.0
  0
LINE
  8
0
 62
     0
 10
251.095
 20
250.151
 30
0.0
 11
250.836
 21
251.117
 31
0.0
  0
LINE
  8
0
 62
     0
 10
250.836
 20
251.117
 30
0.0
 11
251.609
 21
251.325
 31
0.0
  0
LINE
  8
0
 62
     0
 10
251.609
 20
251.325
 30
0.0
 11
250.846
 21
254.174
 31
0.0
  0
LINE
  8
0
 62
     0
 10
250.846
 20
254.174
 30
0.0
 11
250.073
 21
253.968
 31
0.0
  0
LINE
  8
0
 62
     0
 10
250.073
 20
253.968
 30
0.0
 11
248.532
 21
259.715
 31
0.0
  0
LINE
  8
0
 62
     0
 10
248.532
 20
259.715
 30
0.0
 11
249.305
 21
259.921
 31
0.0
  0
LINE
  8
0
 62
     0
 10
249.305
 20
259.921
 30
0.0
 11
248.541
 21
262.771
 31
0.0
  0
LINE
  8
0
 62
     0
 10
248.541
 20
262.771
 30
0.0
 11
247.77
 21
262.563
 31
0.0
  0
LINE
  8
0
 62
     0
 10
247.77
 20
262.563
 30
0.0
 11
247.511
 21
263.529
 31
0.0
  0
LINE
  8
0
 62
     0
 10
247.511
 20
263.529
 30
0.0
 11
234.133
 21
259.945
 31
0.0
  0
LINE
  8
0
 62
     0
 10
128.069
 20
265.45
 30
0.0
 11
127.296
 21
265.657
 31
0.0
  0
LINE
  8
0
 62
     0
 10
127.296
 20
265.657
 30
0.0
 11
126.533
 21
262.809
 31
0.0
  0
LINE
  8
0
 62
     0
 10
126.533
 20
262.809
 30
0.0
 11
127.306
 21
262.6
 31
0.0
  0
LINE
  8
0
 62
     0
 10
127.306
 20
262.6
 30
0.0
 11
125.765
 21
256.854
 31
0.0
  0
LINE
  8
0
 62
     0
 10
125.765
 20
256.854
 30
0.0
 11
124.992
 21
257.061
 31
0.0
  0
LINE
  8
0
 62
     0
 10
124.992
 20
257.061
 30
0.0
 11
124.23
 21
254.212
 31
0.0
  0
LINE
  8
0
 62
     0
 10
124.23
 20
254.212
 30
0.0
 11
125.002
 21
254.004
 31
0.0
  0
LINE
  8
0
 62
     0
 10
125.002
 20
254.004
 30
0.0
 11
124.743
 21
253.038
 31
0.0
  0
LINE
  8
0
 62
     0
 10
124.743
 20
253.038
 30
0.0
 11
138.122
 21
249.454
 31
0.0
  0
LINE
  8
0
 62
     0
 10
138.122
 20
249.454
 30
0.0
 11
138.38
 21
250.42
 31
0.0
  0
LINE
  8
0
 62
     0
 10
138.38
 20
250.42
 30
0.0
 11
139.153
 21
250.212
 31
0.0
  0
LINE
  8
0
 62
     0
 10
139.153
 20
250.212
 30
0.0
 11
139.916
 21
253.063
 31
0.0
  0
LINE
  8
0
 62
     0
 10
139.916
 20
253.063
 30
0.0
 11
139.145
 21
253.268
 31
0.0
  0
LINE
  8
0
 62
     0
 10
139.145
 20
253.268
 30
0.0
 11
140.684
 21
259.016
 31
0.0
  0
LINE
  8
0
 62
     0
 10
140.684
 20
259.016
 30
0.0
 11
141.457
 21
258.809
 31
0.0
  0
LINE
  8
0
 62
     0
 10
141.457
 20
258.809
 30
0.0
 11
142.221
 21
261.659
 31
0.0
  0
LINE
  8
0
 62
     0
 10
142.221
 20
261.659
 30
0.0
 11
141.447
 21
261.866
 31
0.0
  0
LINE
  8
0
 62
     0
 10
141.447
 20
261.866
 30
0.0
 11
141.707
 21
262.832
 31
0.0
  0
LINE
  8
0
 62
     0
 10
141.707
 20
262.832
 30
0.0
 11
128.329
 21
266.416
 31
0.0
  0
LINE
  8
0
 62
     0
 10
128.329
 20
266.416
 30
0.0
 11
128.069
 21
265.45
 31
0.0
  0
LINE
  8
0
 62
     0
 10
154.365
 20
263.224
 30
0.0
 11
154.624
 21
262.259
 31
0.0
  0
LINE
  8
0
 62
     0
 10
154.624
 20
262.259
 30
0.0
 11
153.851
 21
262.052
 31
0.0
  0
LINE
  8
0
 62
     0
 10
153.851
 20
262.052
 30
0.0
 11
154.616
 21
259.202
 31
0.0
  0
LINE
  8
0
 62
     0
 10
154.616
 20
259.202
 30
0.0
 11
155.388
 21
259.409
 31
0.0
  0
LINE
  8
0
 62
     0
 10
155.388
 20
259.409
 30
0.0
 11
156.927
 21
253.662
 31
0.0
  0
LINE
  8
0
 62
     0
 10
156.927
 20
253.662
 30
0.0
 11
156.155
 21
253.456
 31
0.0
  0
LINE
  8
0
 62
     0
 10
156.155
 20
253.456
 30
0.0
 11
156.919
 21
250.605
 31
0.0
  0
LINE
  8
0
 62
     0
 10
156.919
 20
250.605
 30
0.0
 11
157.692
 21
250.811
 31
0.0
  0
LINE
  8
0
 62
     0
 10
157.692
 20
250.811
 30
0.0
 11
157.951
 21
249.845
 31
0.0
  0
LINE
  8
0
 62
     0
 10
157.951
 20
249.845
 30
0.0
 11
171.329
 21
253.432
 31
0.0
  0
LINE
  8
0
 62
     0
 10
171.329
 20
253.432
 30
0.0
 11
171.07
 21
254.397
 31
0.0
  0
LINE
  8
0
 62
     0
 10
171.07
 20
254.397
 30
0.0
 11
171.843
 21
254.604
 31
0.0
  0
LINE
  8
0
 62
     0
 10
171.843
 20
254.604
 30
0.0
 11
171.078
 21
257.453
 31
0.0
  0
LINE
  8
0
 62
     0
 10
171.078
 20
257.453
 30
0.0
 11
170.306
 21
257.245
 31
0.0
  0
LINE
  8
0
 62
     0
 10
170.306
 20
257.245
 30
0.0
 11
168.767
 21
262.994
 31
0.0
  0
LINE
  8
0
 62
     0
 10
168.767
 20
262.994
 30
0.0
 11
169.539
 21
263.201
 31
0.0
  0
LINE
  8
0
 62
     0
 10
169.539
 20
263.201
 30
0.0
 11
168.775
 21
266.049
 31
0.0
  0
LINE
  8
0
 62
     0
 10
168.775
 20
266.049
 30
0.0
 11
168.002
 21
265.843
 31
0.0
  0
LINE
  8
0
 62
     0
 10
168.002
 20
265.843
 30
0.0
 11
167.743
 21
266.809
 31
0.0
  0
LINE
  8
0
 62
     0
 10
167.743
 20
266.809
 30
0.0
 11
154.365
 21
263.224
 31
0.0
  0
LINE
  8
0
 62
     0
 10
88.8023
 20
266.11
 30
0.0
 11
88.029
 21
266.318
 31
0.0
  0
LINE
  8
0
 62
     0
 10
88.029
 20
266.318
 30
0.0
 11
87.267
 21
263.469
 31
0.0
  0
LINE
  8
0
 62
     0
 10
87.267
 20
263.469
 30
0.0
 11
88.0403
 21
263.26
 31
0.0
  0
LINE
  8
0
 62
     0
 10
88.0403
 20
263.26
 30
0.0
 11
86.4994
 21
257.514
 31
0.0
  0
LINE
  8
0
 62
     0
 10
86.4994
 20
257.514
 30
0.0
 11
85.7264
 21
257.721
 31
0.0
  0
LINE
  8
0
 62
     0
 10
85.7264
 20
257.721
 30
0.0
 11
84.963
 21
254.872
 31
0.0
  0
LINE
  8
0
 62
     0
 10
84.963
 20
254.872
 30
0.0
 11
85.7359
 21
254.664
 31
0.0
  0
LINE
  8
0
 62
     0
 10
85.7359
 20
254.664
 30
0.0
 11
85.477
 21
253.699
 31
0.0
  0
LINE
  8
0
 62
     0
 10
85.477
 20
253.699
 30
0.0
 11
98.855
 21
250.114
 31
0.0
  0
LINE
  8
0
 62
     0
 10
98.855
 20
250.114
 30
0.0
 11
99.114
 21
251.08
 31
0.0
  0
LINE
  8
0
 62
     0
 10
99.114
 20
251.08
 30
0.0
 11
99.8873
 21
250.873
 31
0.0
  0
LINE
  8
0
 62
     0
 10
99.8873
 20
250.873
 30
0.0
 11
100.649
 21
253.723
 31
0.0
  0
LINE
  8
0
 62
     0
 10
100.649
 20
253.723
 30
0.0
 11
99.8774
 21
253.93
 31
0.0
  0
LINE
  8
0
 62
     0
 10
99.8774
 20
253.93
 30
0.0
 11
101.418
 21
259.676
 31
0.0
  0
LINE
  8
0
 62
     0
 10
101.418
 20
259.676
 30
0.0
 11
102.19
 21
259.469
 31
0.0
  0
LINE
  8
0
 62
     0
 10
102.19
 20
259.469
 30
0.0
 11
102.953
 21
262.319
 31
0.0
  0
LINE
  8
0
 62
     0
 10
102.953
 20
262.319
 30
0.0
 11
102.18
 21
262.526
 31
0.0
  0
LINE
  8
0
 62
     0
 10
102.18
 20
262.526
 30
0.0
 11
102.439
 21
263.492
 31
0.0
  0
LINE
  8
0
 62
     0
 10
102.439
 20
263.492
 30
0.0
 11
89.0612
 21
267.076
 31
0.0
  0
LINE
  8
0
 62
     0
 10
89.0612
 20
267.076
 30
0.0
 11
88.8023
 21
266.11
 31
0.0
  0
LINE
  8
0
 62
     0
 10
69.1691
 20
266.441
 30
0.0
 11
68.3962
 21
266.648
 31
0.0
  0
LINE
  8
0
 62
     0
 10
68.3962
 20
266.648
 30
0.0
 11
67.6328
 21
263.799
 31
0.0
  0
LINE
  8
0
 62
     0
 10
67.6328
 20
263.799
 30
0.0
 11
68.4057
 21
263.591
 31
0.0
  0
LINE
  8
0
 62
     0
 10
68.4057
 20
263.591
 30
0.0
 11
66.8651
 21
257.845
 31
0.0
  0
LINE
  8
0
 62
     0
 10
66.8651
 20
257.845
 30
0.0
 11
66.0922
 21
258.051
 31
0.0
  0
LINE
  8
0
 62
     0
 10
66.0922
 20
258.051
 30
0.0
 11
65.3302
 21
255.202
 31
0.0
  0
LINE
  8
0
 62
     0
 10
65.3302
 20
255.202
 30
0.0
 11
66.1031
 21
254.995
 31
0.0
  0
LINE
  8
0
 62
     0
 10
66.1031
 20
254.995
 30
0.0
 11
65.8442
 21
254.03
 31
0.0
  0
LINE
  8
0
 62
     0
 10
65.8442
 20
254.03
 30
0.0
 11
79.2219
 21
250.443
 31
0.0
  0
LINE
  8
0
 62
     0
 10
79.2219
 20
250.443
 30
0.0
 11
79.4812
 21
251.409
 31
0.0
  0
LINE
  8
0
 62
     0
 10
79.4812
 20
251.409
 30
0.0
 11
80.2527
 21
251.202
 31
0.0
  0
LINE
  8
0
 62
     0
 10
80.2527
 20
251.202
 30
0.0
 11
81.0161
 21
254.054
 31
0.0
  0
LINE
  8
0
 62
     0
 10
81.0161
 20
254.054
 30
0.0
 11
80.2432
 21
254.26
 31
0.0
  0
LINE
  8
0
 62
     0
 10
80.2432
 20
254.26
 30
0.0
 11
81.7838
 21
260.007
 31
0.0
  0
LINE
  8
0
 62
     0
 10
81.7838
 20
260.007
 30
0.0
 11
82.5571
 21
259.8
 31
0.0
  0
LINE
  8
0
 62
     0
 10
82.5571
 20
259.8
 30
0.0
 11
83.3191
 21
262.65
 31
0.0
  0
LINE
  8
0
 62
     0
 10
83.3191
 20
262.65
 30
0.0
 11
82.5472
 21
262.856
 31
0.0
  0
LINE
  8
0
 62
     0
 10
82.5472
 20
262.856
 30
0.0
 11
82.8065
 21
263.823
 31
0.0
  0
LINE
  8
0
 62
     0
 10
82.8065
 20
263.823
 30
0.0
 11
69.427
 21
267.407
 31
0.0
  0
LINE
  8
0
 62
     0
 10
69.427
 20
267.407
 30
0.0
 11
69.1691
 21
266.441
 31
0.0
  0
LINE
  8
0
 62
     0
 10
193.632
 20
263.885
 30
0.0
 11
193.891
 21
262.919
 31
0.0
  0
LINE
  8
0
 62
     0
 10
193.891
 20
262.919
 30
0.0
 11
193.118
 21
262.712
 31
0.0
  0
LINE
  8
0
 62
     0
 10
193.118
 20
262.712
 30
0.0
 11
193.883
 21
259.862
 31
0.0
  0
LINE
  8
0
 62
     0
 10
193.883
 20
259.862
 30
0.0
 11
194.656
 21
260.07
 31
0.0
  0
LINE
  8
0
 62
     0
 10
194.656
 20
260.07
 30
0.0
 11
196.194
 21
254.322
 31
0.0
  0
LINE
  8
0
 62
     0
 10
196.194
 20
254.322
 30
0.0
 11
195.422
 21
254.114
 31
0.0
  0
LINE
  8
0
 62
     0
 10
195.422
 20
254.114
 30
0.0
 11
196.186
 21
251.266
 31
0.0
  0
LINE
  8
0
 62
     0
 10
196.186
 20
251.266
 30
0.0
 11
196.959
 21
251.473
 31
0.0
  0
LINE
  8
0
 62
     0
 10
196.959
 20
251.473
 30
0.0
 11
197.218
 21
250.507
 31
0.0
  0
LINE
  8
0
 62
     0
 10
197.218
 20
250.507
 30
0.0
 11
210.596
 21
254.092
 31
0.0
  0
LINE
  8
0
 62
     0
 10
210.596
 20
254.092
 30
0.0
 11
210.337
 21
255.058
 31
0.0
  0
LINE
  8
0
 62
     0
 10
210.337
 20
255.058
 30
0.0
 11
211.11
 21
255.265
 31
0.0
  0
LINE
  8
0
 62
     0
 10
211.11
 20
255.265
 30
0.0
 11
210.345
 21
258.113
 31
0.0
  0
LINE
  8
0
 62
     0
 10
210.345
 20
258.113
 30
0.0
 11
209.573
 21
257.907
 31
0.0
  0
LINE
  8
0
 62
     0
 10
209.573
 20
257.907
 30
0.0
 11
208.034
 21
263.653
 31
0.0
  0
LINE
  8
0
 62
     0
 10
208.034
 20
263.653
 30
0.0
 11
208.806
 21
263.861
 31
0.0
  0
LINE
  8
0
 62
     0
 10
208.806
 20
263.861
 30
0.0
 11
208.043
 21
266.711
 31
0.0
  0
LINE
  8
0
 62
     0
 10
208.043
 20
266.711
 30
0.0
 11
207.269
 21
266.504
 31
0.0
  0
LINE
  8
0
 62
     0
 10
207.269
 20
266.504
 30
0.0
 11
207.01
 21
267.47
 31
0.0
  0
LINE
  8
0
 62
     0
 10
207.01
 20
267.47
 30
0.0
 11
193.632
 21
263.885
 31
0.0
  0
LINE
  8
0
 62
     0
 10
213.267
 20
264.215
 30
0.0
 11
213.526
 21
263.249
 31
0.0
  0
LINE
  8
0
 62
     0
 10
213.526
 20
263.249
 30
0.0
 11
212.753
 21
263.041
 31
0.0
  0
LINE
  8
0
 62
     0
 10
212.753
 20
263.041
 30
0.0
 11
213.516
 21
260.193
 31
0.0
  0
LINE
  8
0
 62
     0
 10
213.516
 20
260.193
 30
0.0
 11
214.289
 21
260.4
 31
0.0
  0
LINE
  8
0
 62
     0
 10
214.289
 20
260.4
 30
0.0
 11
215.828
 21
254.653
 31
0.0
  0
LINE
  8
0
 62
     0
 10
215.828
 20
254.653
 30
0.0
 11
215.055
 21
254.447
 31
0.0
  0
LINE
  8
0
 62
     0
 10
215.055
 20
254.447
 30
0.0
 11
215.82
 21
251.595
 31
0.0
  0
LINE
  8
0
 62
     0
 10
215.82
 20
251.595
 30
0.0
 11
216.593
 21
251.803
 31
0.0
  0
LINE
  8
0
 62
     0
 10
216.593
 20
251.803
 30
0.0
 11
216.851
 21
250.837
 31
0.0
  0
LINE
  8
0
 62
     0
 10
216.851
 20
250.837
 30
0.0
 11
230.229
 21
254.422
 31
0.0
  0
LINE
  8
0
 62
     0
 10
230.229
 20
254.422
 30
0.0
 11
229.971
 21
255.388
 31
0.0
  0
LINE
  8
0
 62
     0
 10
229.971
 20
255.388
 30
0.0
 11
230.743
 21
255.595
 31
0.0
  0
LINE
  8
0
 62
     0
 10
230.743
 20
255.595
 30
0.0
 11
229.979
 21
258.444
 31
0.0
  0
LINE
  8
0
 62
     0
 10
229.979
 20
258.444
 30
0.0
 11
229.206
 21
258.238
 31
0.0
  0
LINE
  8
0
 62
     0
 10
229.206
 20
258.238
 30
0.0
 11
227.667
 21
263.985
 31
0.0
  0
LINE
  8
0
 62
     0
 10
227.667
 20
263.985
 30
0.0
 11
228.44
 21
264.192
 31
0.0
  0
LINE
  8
0
 62
     0
 10
228.44
 20
264.192
 30
0.0
 11
227.675
 21
267.04
 31
0.0
  0
LINE
  8
0
 62
     0
 10
227.675
 20
267.04
 30
0.0
 11
226.903
 21
266.834
 31
0.0
  0
LINE
  8
0
 62
     0
 10
226.903
 20
266.834
 30
0.0
 11
226.645
 21
267.8
 31
0.0
  0
LINE
  8
0
 62
     0
 10
226.645
 20
267.8
 30
0.0
 11
213.267
 21
264.215
 31
0.0
  0
LINE
  8
0
 62
     0
 10
25.3022
 20
268.334
 30
0.0
 11
24.5291
 21
268.543
 31
0.0
  0
LINE
  8
0
 62
     0
 10
24.5291
 20
268.543
 30
0.0
 11
23.7657
 21
265.691
 31
0.0
  0
LINE
  8
0
 62
     0
 10
23.7657
 20
265.691
 30
0.0
 11
24.5387
 21
265.485
 31
0.0
  0
LINE
  8
0
 62
     0
 10
24.5387
 20
265.485
 30
0.0
 11
22.9981
 21
259.738
 31
0.0
  0
LINE
  8
0
 62
     0
 10
22.9981
 20
259.738
 30
0.0
 11
22.225
 21
259.945
 31
0.0
  0
LINE
  8
0
 62
     0
 10
22.225
 20
259.945
 30
0.0
 11
21.4629
 21
257.095
 31
0.0
  0
LINE
  8
0
 62
     0
 10
21.4629
 20
257.095
 30
0.0
 11
22.2346
 21
256.889
 31
0.0
  0
LINE
  8
0
 62
     0
 10
22.2346
 20
256.889
 30
0.0
 11
21.977
 21
255.922
 31
0.0
  0
LINE
  8
0
 62
     0
 10
21.977
 20
255.922
 30
0.0
 11
35.355
 21
252.338
 31
0.0
  0
LINE
  8
0
 62
     0
 10
35.355
 20
252.338
 30
0.0
 11
35.6126
 21
253.304
 31
0.0
  0
LINE
  8
0
 62
     0
 10
35.6126
 20
253.304
 30
0.0
 11
36.3859
 21
253.097
 31
0.0
  0
LINE
  8
0
 62
     0
 10
36.3859
 20
253.097
 30
0.0
 11
37.1493
 21
255.946
 31
0.0
  0
LINE
  8
0
 62
     0
 10
37.1493
 20
255.946
 30
0.0
 11
36.376
 21
256.153
 31
0.0
  0
LINE
  8
0
 62
     0
 10
36.376
 20
256.153
 30
0.0
 11
37.9166
 21
261.9
 31
0.0
  0
LINE
  8
0
 62
     0
 10
37.9166
 20
261.9
 30
0.0
 11
38.6898
 21
261.692
 31
0.0
  0
LINE
  8
0
 62
     0
 10
38.6898
 20
261.692
 30
0.0
 11
39.4518
 21
264.543
 31
0.0
  0
LINE
  8
0
 62
     0
 10
39.4518
 20
264.543
 30
0.0
 11
38.6803
 21
264.75
 31
0.0
  0
LINE
  8
0
 62
     0
 10
38.6803
 20
264.75
 30
0.0
 11
38.9378
 21
265.716
 31
0.0
  0
LINE
  8
0
 62
     0
 10
38.9378
 20
265.716
 30
0.0
 11
25.5598
 21
269.3
 31
0.0
  0
LINE
  8
0
 62
     0
 10
25.5598
 20
269.3
 30
0.0
 11
25.3022
 21
268.334
 31
0.0
  0
LINE
  8
0
 62
     0
 10
257.132
 20
266.109
 30
0.0
 11
257.393
 21
265.143
 31
0.0
  0
LINE
  8
0
 62
     0
 10
257.393
 20
265.143
 30
0.0
 11
256.62
 21
264.936
 31
0.0
  0
LINE
  8
0
 62
     0
 10
256.62
 20
264.936
 30
0.0
 11
257.383
 21
262.086
 31
0.0
  0
LINE
  8
0
 62
     0
 10
257.383
 20
262.086
 30
0.0
 11
258.156
 21
262.293
 31
0.0
  0
LINE
  8
0
 62
     0
 10
258.156
 20
262.293
 30
0.0
 11
259.696
 21
256.545
 31
0.0
  0
LINE
  8
0
 62
     0
 10
259.696
 20
256.545
 30
0.0
 11
258.924
 21
256.339
 31
0.0
  0
LINE
  8
0
 62
     0
 10
258.924
 20
256.339
 30
0.0
 11
259.687
 21
253.489
 31
0.0
  0
LINE
  8
0
 62
     0
 10
259.687
 20
253.489
 30
0.0
 11
260.459
 21
253.697
 31
0.0
  0
LINE
  8
0
 62
     0
 10
260.459
 20
253.697
 30
0.0
 11
260.718
 21
252.729
 31
0.0
  0
LINE
  8
0
 62
     0
 10
260.718
 20
252.729
 30
0.0
 11
274.096
 21
256.315
 31
0.0
  0
LINE
  8
0
 62
     0
 10
274.096
 20
256.315
 30
0.0
 11
273.837
 21
257.281
 31
0.0
  0
LINE
  8
0
 62
     0
 10
273.837
 20
257.281
 30
0.0
 11
274.61
 21
257.488
 31
0.0
  0
LINE
  8
0
 62
     0
 10
274.61
 20
257.488
 30
0.0
 11
273.847
 21
260.338
 31
0.0
  0
LINE
  8
0
 62
     0
 10
273.847
 20
260.338
 30
0.0
 11
273.073
 21
260.131
 31
0.0
  0
LINE
  8
0
 62
     0
 10
273.073
 20
260.131
 30
0.0
 11
271.534
 21
265.877
 31
0.0
  0
LINE
  8
0
 62
     0
 10
271.534
 20
265.877
 30
0.0
 11
272.306
 21
266.085
 31
0.0
  0
LINE
  8
0
 62
     0
 10
272.306
 20
266.085
 30
0.0
 11
271.544
 21
268.934
 31
0.0
  0
LINE
  8
0
 62
     0
 10
271.544
 20
268.934
 30
0.0
 11
270.771
 21
268.727
 31
0.0
  0
LINE
  8
0
 62
     0
 10
270.771
 20
268.727
 30
0.0
 11
270.512
 21
269.693
 31
0.0
  0
LINE
  8
0
 62
     0
 10
270.512
 20
269.693
 30
0.0
 11
257.132
 21
266.109
 31
0.0
  0
LINE
  8
0
 62
     0
 10
110.902
 20
274.981
 30
0.0
 11
110.129
 21
275.187
 31
0.0
  0
LINE
  8
0
 62
     0
 10
110.129
 20
275.187
 30
0.0
 11
109.365
 21
272.339
 31
0.0
  0
LINE
  8
0
 62
     0
 10
109.365
 20
272.339
 30
0.0
 11
110.137
 21
272.132
 31
0.0
  0
LINE
  8
0
 62
     0
 10
110.137
 20
272.132
 30
0.0
 11
108.598
 21
266.384
 31
0.0
  0
LINE
  8
0
 62
     0
 10
108.598
 20
266.384
 30
0.0
 11
107.826
 21
266.591
 31
0.0
  0
LINE
  8
0
 62
     0
 10
107.826
 20
266.591
 30
0.0
 11
107.061
 21
263.741
 31
0.0
  0
LINE
  8
0
 62
     0
 10
107.061
 20
263.741
 30
0.0
 11
107.834
 21
263.535
 31
0.0
  0
LINE
  8
0
 62
     0
 10
107.834
 20
263.535
 30
0.0
 11
107.575
 21
262.569
 31
0.0
  0
LINE
  8
0
 62
     0
 10
107.575
 20
262.569
 30
0.0
 11
120.953
 21
258.984
 31
0.0
  0
LINE
  8
0
 62
     0
 10
120.953
 20
258.984
 30
0.0
 11
121.212
 21
259.95
 31
0.0
  0
LINE
  8
0
 62
     0
 10
121.212
 20
259.95
 30
0.0
 11
121.985
 21
259.742
 31
0.0
  0
LINE
  8
0
 62
     0
 10
121.985
 20
259.742
 30
0.0
 11
122.749
 21
262.593
 31
0.0
  0
LINE
  8
0
 62
     0
 10
122.749
 20
262.593
 30
0.0
 11
121.976
 21
262.8
 31
0.0
  0
LINE
  8
0
 62
     0
 10
121.976
 20
262.8
 30
0.0
 11
123.515
 21
268.546
 31
0.0
  0
LINE
  8
0
 62
     0
 10
123.515
 20
268.546
 30
0.0
 11
124.288
 21
268.34
 31
0.0
  0
LINE
  8
0
 62
     0
 10
124.288
 20
268.34
 30
0.0
 11
125.052
 21
271.188
 31
0.0
  0
LINE
  8
0
 62
     0
 10
125.052
 20
271.188
 30
0.0
 11
124.28
 21
271.397
 31
0.0
  0
LINE
  8
0
 62
     0
 10
124.28
 20
271.397
 30
0.0
 11
124.539
 21
272.362
 31
0.0
  0
LINE
  8
0
 62
     0
 10
124.539
 20
272.362
 30
0.0
 11
111.161
 21
275.947
 31
0.0
  0
LINE
  8
0
 62
     0
 10
111.161
 20
275.947
 30
0.0
 11
110.902
 21
274.981
 31
0.0
  0
LINE
  8
0
 62
     0
 10
171.534
 20
272.755
 30
0.0
 11
171.793
 21
271.789
 31
0.0
  0
LINE
  8
0
 62
     0
 10
171.793
 20
271.789
 30
0.0
 11
171.02
 21
271.582
 31
0.0
  0
LINE
  8
0
 62
     0
 10
171.02
 20
271.582
 30
0.0
 11
171.783
 21
268.733
 31
0.0
  0
LINE
  8
0
 62
     0
 10
171.783
 20
268.733
 30
0.0
 11
172.557
 21
268.939
 31
0.0
  0
LINE
  8
0
 62
     0
 10
172.557
 20
268.939
 30
0.0
 11
174.096
 21
263.193
 31
0.0
  0
LINE
  8
0
 62
     0
 10
174.096
 20
263.193
 30
0.0
 11
173.324
 21
262.986
 31
0.0
  0
LINE
  8
0
 62
     0
 10
173.324
 20
262.986
 30
0.0
 11
174.088
 21
260.137
 31
0.0
  0
LINE
  8
0
 62
     0
 10
174.088
 20
260.137
 30
0.0
 11
174.859
 21
260.343
 31
0.0
  0
LINE
  8
0
 62
     0
 10
174.859
 20
260.343
 30
0.0
 11
175.118
 21
259.377
 31
0.0
  0
LINE
  8
0
 62
     0
 10
175.118
 20
259.377
 30
0.0
 11
188.496
 21
262.961
 31
0.0
  0
LINE
  8
0
 62
     0
 10
188.496
 20
262.961
 30
0.0
 11
188.237
 21
263.928
 31
0.0
  0
LINE
  8
0
 62
     0
 10
188.237
 20
263.928
 30
0.0
 11
189.01
 21
264.135
 31
0.0
  0
LINE
  8
0
 62
     0
 10
189.01
 20
264.135
 30
0.0
 11
188.247
 21
266.984
 31
0.0
  0
LINE
  8
0
 62
     0
 10
188.247
 20
266.984
 30
0.0
 11
187.474
 21
266.777
 31
0.0
  0
LINE
  8
0
 62
     0
 10
187.474
 20
266.777
 30
0.0
 11
185.935
 21
272.524
 31
0.0
  0
LINE
  8
0
 62
     0
 10
185.935
 20
272.524
 30
0.0
 11
186.708
 21
272.732
 31
0.0
  0
LINE
  8
0
 62
     0
 10
186.708
 20
272.732
 30
0.0
 11
185.943
 21
275.582
 31
0.0
  0
LINE
  8
0
 62
     0
 10
185.943
 20
275.582
 30
0.0
 11
185.171
 21
275.373
 31
0.0
  0
LINE
  8
0
 62
     0
 10
185.171
 20
275.373
 30
0.0
 11
184.912
 21
276.339
 31
0.0
  0
LINE
  8
0
 62
     0
 10
184.912
 20
276.339
 30
0.0
 11
171.534
 21
272.755
 31
0.0
  0
LINE
  8
0
 62
     0
 10
53.2335
 20
280.571
 30
0.0
 11
52.4605
 21
280.779
 31
0.0
  0
LINE
  8
0
 62
     0
 10
52.4605
 20
280.779
 30
0.0
 11
51.6971
 21
277.93
 31
0.0
  0
LINE
  8
0
 62
     0
 10
51.6971
 20
277.93
 30
0.0
 11
52.47
 21
277.723
 31
0.0
  0
LINE
  8
0
 62
     0
 10
52.47
 20
277.723
 30
0.0
 11
50.9295
 21
271.975
 31
0.0
  0
LINE
  8
0
 62
     0
 10
50.9295
 20
271.975
 30
0.0
 11
50.1579
 21
272.183
 31
0.0
  0
LINE
  8
0
 62
     0
 10
50.1579
 20
272.183
 30
0.0
 11
49.3931
 21
269.333
 31
0.0
  0
LINE
  8
0
 62
     0
 10
49.3931
 20
269.333
 30
0.0
 11
50.1661
 21
269.125
 31
0.0
  0
LINE
  8
0
 62
     0
 10
50.1661
 20
269.125
 30
0.0
 11
49.9071
 21
268.159
 31
0.0
  0
LINE
  8
0
 62
     0
 10
49.9071
 20
268.159
 30
0.0
 11
63.2852
 21
264.575
 31
0.0
  0
LINE
  8
0
 62
     0
 10
63.2852
 20
264.575
 30
0.0
 11
63.5441
 21
265.541
 31
0.0
  0
LINE
  8
0
 62
     0
 10
63.5441
 20
265.541
 30
0.0
 11
64.317
 21
265.334
 31
0.0
  0
LINE
  8
0
 62
     0
 10
64.317
 20
265.334
 30
0.0
 11
65.0804
 21
268.184
 31
0.0
  0
LINE
  8
0
 62
     0
 10
65.0804
 20
268.184
 30
0.0
 11
64.3089
 21
268.391
 31
0.0
  0
LINE
  8
0
 62
     0
 10
64.3089
 20
268.391
 30
0.0
 11
65.8481
 21
274.137
 31
0.0
  0
LINE
  8
0
 62
     0
 10
65.8481
 20
274.137
 30
0.0
 11
66.62
 21
273.931
 31
0.0
  0
LINE
  8
0
 62
     0
 10
66.62
 20
273.931
 30
0.0
 11
67.3848
 21
276.78
 31
0.0
  0
LINE
  8
0
 62
     0
 10
67.3848
 20
276.78
 30
0.0
 11
66.6115
 21
276.988
 31
0.0
  0
LINE
  8
0
 62
     0
 10
66.6115
 20
276.988
 30
0.0
 11
66.8708
 21
277.953
 31
0.0
  0
LINE
  8
0
 62
     0
 10
66.8708
 20
277.953
 30
0.0
 11
53.4928
 21
281.537
 31
0.0
  0
LINE
  8
0
 62
     0
 10
53.4928
 20
281.537
 30
0.0
 11
53.2335
 21
280.571
 31
0.0
  0
LINE
  8
0
 62
     0
 10
229.201
 20
278.346
 30
0.0
 11
229.46
 21
277.38
 31
0.0
  0
LINE
  8
0
 62
     0
 10
229.46
 20
277.38
 30
0.0
 11
228.687
 21
277.173
 31
0.0
  0
LINE
  8
0
 62
     0
 10
228.687
 20
277.173
 30
0.0
 11
229.452
 21
274.323
 31
0.0
  0
LINE
  8
0
 62
     0
 10
229.452
 20
274.323
 30
0.0
 11
230.225
 21
274.531
 31
0.0
  0
LINE
  8
0
 62
     0
 10
230.225
 20
274.531
 30
0.0
 11
231.764
 21
268.784
 31
0.0
  0
LINE
  8
0
 62
     0
 10
231.764
 20
268.784
 30
0.0
 11
230.991
 21
268.577
 31
0.0
  0
LINE
  8
0
 62
     0
 10
230.991
 20
268.577
 30
0.0
 11
231.754
 21
265.727
 31
0.0
  0
LINE
  8
0
 62
     0
 10
231.754
 20
265.727
 30
0.0
 11
232.527
 21
265.934
 31
0.0
  0
LINE
  8
0
 62
     0
 10
232.527
 20
265.934
 30
0.0
 11
232.786
 21
264.968
 31
0.0
  0
LINE
  8
0
 62
     0
 10
232.786
 20
264.968
 30
0.0
 11
246.164
 21
268.554
 31
0.0
  0
LINE
  8
0
 62
     0
 10
246.164
 20
268.554
 30
0.0
 11
245.906
 21
269.519
 31
0.0
  0
LINE
  8
0
 62
     0
 10
245.906
 20
269.519
 30
0.0
 11
246.678
 21
269.726
 31
0.0
  0
LINE
  8
0
 62
     0
 10
246.678
 20
269.726
 30
0.0
 11
245.915
 21
272.574
 31
0.0
  0
LINE
  8
0
 62
     0
 10
245.915
 20
272.574
 30
0.0
 11
245.142
 21
272.368
 31
0.0
  0
LINE
  8
0
 62
     0
 10
245.142
 20
272.368
 30
0.0
 11
243.603
 21
278.116
 31
0.0
  0
LINE
  8
0
 62
     0
 10
243.603
 20
278.116
 30
0.0
 11
244.374
 21
278.322
 31
0.0
  0
LINE
  8
0
 62
     0
 10
244.374
 20
278.322
 30
0.0
 11
243.611
 21
281.172
 31
0.0
  0
LINE
  8
0
 62
     0
 10
243.611
 20
281.172
 30
0.0
 11
242.838
 21
280.966
 31
0.0
  0
LINE
  8
0
 62
     0
 10
242.838
 20
280.966
 30
0.0
 11
242.579
 21
281.932
 31
0.0
  0
LINE
  8
0
 62
     0
 10
242.579
 20
281.932
 30
0.0
 11
229.201
 21
278.346
 31
0.0
  0
LINE
  8
0
 62
     0
 10
93.7341
 20
284.511
 30
0.0
 11
92.9612
 21
284.719
 31
0.0
  0
LINE
  8
0
 62
     0
 10
92.9612
 20
284.719
 30
0.0
 11
92.1964
 21
281.869
 31
0.0
  0
LINE
  8
0
 62
     0
 10
92.1964
 20
281.869
 30
0.0
 11
92.9693
 21
281.661
 31
0.0
  0
LINE
  8
0
 62
     0
 10
92.9693
 20
281.661
 30
0.0
 11
91.4301
 21
275.915
 31
0.0
  0
LINE
  8
0
 62
     0
 10
91.4301
 20
275.915
 30
0.0
 11
90.6568
 21
276.122
 31
0.0
  0
LINE
  8
0
 62
     0
 10
90.6568
 20
276.122
 30
0.0
 11
89.8934
 21
273.273
 31
0.0
  0
LINE
  8
0
 62
     0
 10
89.8934
 20
273.273
 30
0.0
 11
90.6667
 21
273.065
 31
0.0
  0
LINE
  8
0
 62
     0
 10
90.6667
 20
273.065
 30
0.0
 11
90.4074
 21
272.099
 31
0.0
  0
LINE
  8
0
 62
     0
 10
90.4074
 20
272.099
 30
0.0
 11
103.785
 21
268.515
 31
0.0
  0
LINE
  8
0
 62
     0
 10
103.785
 20
268.515
 30
0.0
 11
104.045
 21
269.481
 31
0.0
  0
LINE
  8
0
 62
     0
 10
104.045
 20
269.481
 30
0.0
 11
104.816
 21
269.274
 31
0.0
  0
LINE
  8
0
 62
     0
 10
104.816
 20
269.274
 30
0.0
 11
105.581
 21
272.123
 31
0.0
  0
LINE
  8
0
 62
     0
 10
105.581
 20
272.123
 30
0.0
 11
104.808
 21
272.329
 31
0.0
  0
LINE
  8
0
 62
     0
 10
104.808
 20
272.329
 30
0.0
 11
106.347
 21
278.079
 31
0.0
  0
LINE
  8
0
 62
     0
 10
106.347
 20
278.079
 30
0.0
 11
107.12
 21
277.87
 31
0.0
  0
LINE
  8
0
 62
     0
 10
107.12
 20
277.87
 30
0.0
 11
107.884
 21
280.72
 31
0.0
  0
LINE
  8
0
 62
     0
 10
107.884
 20
280.72
 30
0.0
 11
107.112
 21
280.927
 31
0.0
  0
LINE
  8
0
 62
     0
 10
107.112
 20
280.927
 30
0.0
 11
107.37
 21
281.893
 31
0.0
  0
LINE
  8
0
 62
     0
 10
107.37
 20
281.893
 30
0.0
 11
93.992
 21
285.477
 31
0.0
  0
LINE
  8
0
 62
     0
 10
93.992
 20
285.477
 30
0.0
 11
93.7341
 21
284.511
 31
0.0
  0
LINE
  8
0
 62
     0
 10
74.0999
 20
284.842
 30
0.0
 11
73.3266
 21
285.049
 31
0.0
  0
LINE
  8
0
 62
     0
 10
73.3266
 20
285.049
 30
0.0
 11
72.5632
 21
282.2
 31
0.0
  0
LINE
  8
0
 62
     0
 10
72.5632
 20
282.2
 30
0.0
 11
73.3365
 21
281.994
 31
0.0
  0
LINE
  8
0
 62
     0
 10
73.3365
 20
281.994
 30
0.0
 11
71.7973
 21
276.244
 31
0.0
  0
LINE
  8
0
 62
     0
 10
71.7973
 20
276.244
 30
0.0
 11
71.024
 21
276.453
 31
0.0
  0
LINE
  8
0
 62
     0
 10
71.024
 20
276.453
 30
0.0
 11
70.2592
 21
273.602
 31
0.0
  0
LINE
  8
0
 62
     0
 10
70.2592
 20
273.602
 30
0.0
 11
71.0325
 21
273.396
 31
0.0
  0
LINE
  8
0
 62
     0
 10
71.0325
 20
273.396
 30
0.0
 11
70.7732
 21
272.43
 31
0.0
  0
LINE
  8
0
 62
     0
 10
70.7732
 20
272.43
 30
0.0
 11
84.1513
 21
268.844
 31
0.0
  0
LINE
  8
0
 62
     0
 10
84.1513
 20
268.844
 30
0.0
 11
84.4102
 21
269.81
 31
0.0
  0
LINE
  8
0
 62
     0
 10
84.4102
 20
269.81
 30
0.0
 11
85.1835
 21
269.603
 31
0.0
  0
LINE
  8
0
 62
     0
 10
85.1835
 20
269.603
 30
0.0
 11
85.9469
 21
272.453
 31
0.0
  0
LINE
  8
0
 62
     0
 10
85.9469
 20
272.453
 30
0.0
 11
85.175
 21
272.661
 31
0.0
  0
LINE
  8
0
 62
     0
 10
85.175
 20
272.661
 30
0.0
 11
86.7145
 21
278.408
 31
0.0
  0
LINE
  8
0
 62
     0
 10
86.7145
 20
278.408
 30
0.0
 11
87.4861
 21
278.201
 31
0.0
  0
LINE
  8
0
 62
     0
 10
87.4861
 20
278.201
 30
0.0
 11
88.2509
 21
281.05
 31
0.0
  0
LINE
  8
0
 62
     0
 10
88.2509
 20
281.05
 30
0.0
 11
87.478
 21
281.258
 31
0.0
  0
LINE
  8
0
 62
     0
 10
87.478
 20
281.258
 30
0.0
 11
87.7369
 21
282.222
 31
0.0
  0
LINE
  8
0
 62
     0
 10
87.7369
 20
282.222
 30
0.0
 11
74.3589
 21
285.808
 31
0.0
  0
LINE
  8
0
 62
     0
 10
74.3589
 20
285.808
 30
0.0
 11
74.0999
 21
284.842
 31
0.0
  0
LINE
  8
0
 62
     0
 10
188.703
 20
282.286
 30
0.0
 11
188.962
 21
281.319
 31
0.0
  0
LINE
  8
0
 62
     0
 10
188.962
 20
281.319
 30
0.0
 11
188.189
 21
281.113
 31
0.0
  0
LINE
  8
0
 62
     0
 10
188.189
 20
281.113
 30
0.0
 11
188.951
 21
278.263
 31
0.0
  0
LINE
  8
0
 62
     0
 10
188.951
 20
278.263
 30
0.0
 11
189.724
 21
278.471
 31
0.0
  0
LINE
  8
0
 62
     0
 10
189.724
 20
278.471
 30
0.0
 11
191.265
 21
272.723
 31
0.0
  0
LINE
  8
0
 62
     0
 10
191.265
 20
272.723
 30
0.0
 11
190.492
 21
272.515
 31
0.0
  0
LINE
  8
0
 62
     0
 10
190.492
 20
272.515
 30
0.0
 11
191.255
 21
269.667
 31
0.0
  0
LINE
  8
0
 62
     0
 10
191.255
 20
269.667
 30
0.0
 11
192.028
 21
269.874
 31
0.0
  0
LINE
  8
0
 62
     0
 10
192.028
 20
269.874
 30
0.0
 11
192.286
 21
268.908
 31
0.0
  0
LINE
  8
0
 62
     0
 10
192.286
 20
268.908
 30
0.0
 11
205.664
 21
272.493
 31
0.0
  0
LINE
  8
0
 62
     0
 10
205.664
 20
272.493
 30
0.0
 11
205.406
 21
273.458
 31
0.0
  0
LINE
  8
0
 62
     0
 10
205.406
 20
273.458
 30
0.0
 11
206.178
 21
273.666
 31
0.0
  0
LINE
  8
0
 62
     0
 10
206.178
 20
273.666
 30
0.0
 11
205.416
 21
276.514
 31
0.0
  0
LINE
  8
0
 62
     0
 10
205.416
 20
276.514
 30
0.0
 11
204.643
 21
276.308
 31
0.0
  0
LINE
  8
0
 62
     0
 10
204.643
 20
276.308
 30
0.0
 11
203.102
 21
282.055
 31
0.0
  0
LINE
  8
0
 62
     0
 10
203.102
 20
282.055
 30
0.0
 11
203.875
 21
282.262
 31
0.0
  0
LINE
  8
0
 62
     0
 10
203.875
 20
282.262
 30
0.0
 11
203.112
 21
285.112
 31
0.0
  0
LINE
  8
0
 62
     0
 10
203.112
 20
285.112
 30
0.0
 11
202.34
 21
284.905
 31
0.0
  0
LINE
  8
0
 62
     0
 10
202.34
 20
284.905
 30
0.0
 11
202.081
 21
285.871
 31
0.0
  0
LINE
  8
0
 62
     0
 10
202.081
 20
285.871
 30
0.0
 11
188.703
 21
282.286
 31
0.0
  0
LINE
  8
0
 62
     0
 10
208.336
 20
282.616
 30
0.0
 11
208.595
 21
281.65
 31
0.0
  0
LINE
  8
0
 62
     0
 10
208.595
 20
281.65
 30
0.0
 11
207.822
 21
281.442
 31
0.0
  0
LINE
  8
0
 62
     0
 10
207.822
 20
281.442
 30
0.0
 11
208.586
 21
278.594
 31
0.0
  0
LINE
  8
0
 62
     0
 10
208.586
 20
278.594
 30
0.0
 11
209.358
 21
278.801
 31
0.0
  0
LINE
  8
0
 62
     0
 10
209.358
 20
278.801
 30
0.0
 11
210.899
 21
273.054
 31
0.0
  0
LINE
  8
0
 62
     0
 10
210.899
 20
273.054
 30
0.0
 11
210.126
 21
272.848
 31
0.0
  0
LINE
  8
0
 62
     0
 10
210.126
 20
272.848
 30
0.0
 11
210.888
 21
269.996
 31
0.0
  0
LINE
  8
0
 62
     0
 10
210.888
 20
269.996
 30
0.0
 11
211.661
 21
270.205
 31
0.0
  0
LINE
  8
0
 62
     0
 10
211.661
 20
270.205
 30
0.0
 11
211.92
 21
269.238
 31
0.0
  0
LINE
  8
0
 62
     0
 10
211.92
 20
269.238
 30
0.0
 11
225.298
 21
272.822
 31
0.0
  0
LINE
  8
0
 62
     0
 10
225.298
 20
272.822
 30
0.0
 11
225.039
 21
273.789
 31
0.0
  0
LINE
  8
0
 62
     0
 10
225.039
 20
273.789
 30
0.0
 11
225.812
 21
273.995
 31
0.0
  0
LINE
  8
0
 62
     0
 10
225.812
 20
273.995
 30
0.0
 11
225.049
 21
276.845
 31
0.0
  0
LINE
  8
0
 62
     0
 10
225.049
 20
276.845
 30
0.0
 11
224.277
 21
276.638
 31
0.0
  0
LINE
  8
0
 62
     0
 10
224.277
 20
276.638
 30
0.0
 11
222.736
 21
282.385
 31
0.0
  0
LINE
  8
0
 62
     0
 10
222.736
 20
282.385
 30
0.0
 11
223.508
 21
282.593
 31
0.0
  0
LINE
  8
0
 62
     0
 10
223.508
 20
282.593
 30
0.0
 11
222.746
 21
285.441
 31
0.0
  0
LINE
  8
0
 62
     0
 10
222.746
 20
285.441
 30
0.0
 11
221.973
 21
285.235
 31
0.0
  0
LINE
  8
0
 62
     0
 10
221.973
 20
285.235
 30
0.0
 11
221.714
 21
286.2
 31
0.0
  0
LINE
  8
0
 62
     0
 10
221.714
 20
286.2
 30
0.0
 11
208.336
 21
282.616
 31
0.0
  0
LINE
  8
0
 62
     0
 10
30.2328
 20
286.735
 30
0.0
 11
29.4597
 21
286.942
 31
0.0
  0
LINE
  8
0
 62
     0
 10
29.4597
 20
286.942
 30
0.0
 11
28.6963
 21
284.092
 31
0.0
  0
LINE
  8
0
 62
     0
 10
28.6963
 20
284.092
 30
0.0
 11
29.468
 21
283.886
 31
0.0
  0
LINE
  8
0
 62
     0
 10
29.468
 20
283.886
 30
0.0
 11
27.9287
 21
278.139
 31
0.0
  0
LINE
  8
0
 62
     0
 10
27.9287
 20
278.139
 30
0.0
 11
27.157
 21
278.346
 31
0.0
  0
LINE
  8
0
 62
     0
 10
27.157
 20
278.346
 30
0.0
 11
26.3922
 21
275.496
 31
0.0
  0
LINE
  8
0
 62
     0
 10
26.3922
 20
275.496
 30
0.0
 11
27.1653
 21
275.289
 31
0.0
  0
LINE
  8
0
 62
     0
 10
27.1653
 20
275.289
 30
0.0
 11
26.9062
 21
274.323
 31
0.0
  0
LINE
  8
0
 62
     0
 10
26.9062
 20
274.323
 30
0.0
 11
40.284
 21
270.739
 31
0.0
  0
LINE
  8
0
 62
     0
 10
40.284
 20
270.739
 30
0.0
 11
40.5433
 21
271.704
 31
0.0
  0
LINE
  8
0
 62
     0
 10
40.5433
 20
271.704
 30
0.0
 11
41.3163
 21
271.497
 31
0.0
  0
LINE
  8
0
 62
     0
 10
41.3163
 20
271.497
 30
0.0
 11
42.0797
 21
274.347
 31
0.0
  0
LINE
  8
0
 62
     0
 10
42.0797
 20
274.347
 30
0.0
 11
41.3067
 21
274.554
 31
0.0
  0
LINE
  8
0
 62
     0
 10
41.3067
 20
274.554
 30
0.0
 11
42.8459
 21
280.301
 31
0.0
  0
LINE
  8
0
 62
     0
 10
42.8459
 20
280.301
 30
0.0
 11
43.6192
 21
280.093
 31
0.0
  0
LINE
  8
0
 62
     0
 10
43.6192
 20
280.093
 30
0.0
 11
44.384
 21
282.944
 31
0.0
  0
LINE
  8
0
 62
     0
 10
44.384
 20
282.944
 30
0.0
 11
43.6107
 21
283.151
 31
0.0
  0
LINE
  8
0
 62
     0
 10
43.6107
 20
283.151
 30
0.0
 11
43.8697
 21
284.117
 31
0.0
  0
LINE
  8
0
 62
     0
 10
43.8697
 20
284.117
 30
0.0
 11
30.4919
 21
287.701
 31
0.0
  0
LINE
  8
0
 62
     0
 10
30.4919
 20
287.701
 30
0.0
 11
30.2328
 21
286.735
 31
0.0
  0
LINE
  8
0
 62
     0
 10
252.203
 20
284.508
 30
0.0
 11
252.462
 21
283.544
 31
0.0
  0
LINE
  8
0
 62
     0
 10
252.462
 20
283.544
 30
0.0
 11
251.689
 21
283.336
 31
0.0
  0
LINE
  8
0
 62
     0
 10
251.689
 20
283.336
 30
0.0
 11
252.452
 21
280.487
 31
0.0
  0
LINE
  8
0
 62
     0
 10
252.452
 20
280.487
 30
0.0
 11
253.226
 21
280.694
 31
0.0
  0
LINE
  8
0
 62
     0
 10
253.226
 20
280.694
 30
0.0
 11
254.765
 21
274.946
 31
0.0
  0
LINE
  8
0
 62
     0
 10
254.765
 20
274.946
 30
0.0
 11
253.993
 21
274.739
 31
0.0
  0
LINE
  8
0
 62
     0
 10
253.993
 20
274.739
 30
0.0
 11
254.757
 21
271.89
 31
0.0
  0
LINE
  8
0
 62
     0
 10
254.757
 20
271.89
 30
0.0
 11
255.528
 21
272.096
 31
0.0
  0
LINE
  8
0
 62
     0
 10
255.528
 20
272.096
 30
0.0
 11
255.786
 21
271.131
 31
0.0
  0
LINE
  8
0
 62
     0
 10
255.786
 20
271.131
 30
0.0
 11
269.165
 21
274.716
 31
0.0
  0
LINE
  8
0
 62
     0
 10
269.165
 20
274.716
 30
0.0
 11
268.906
 21
275.682
 31
0.0
  0
LINE
  8
0
 62
     0
 10
268.906
 20
275.682
 30
0.0
 11
269.679
 21
275.889
 31
0.0
  0
LINE
  8
0
 62
     0
 10
269.679
 20
275.889
 30
0.0
 11
268.916
 21
278.737
 31
0.0
  0
LINE
  8
0
 62
     0
 10
268.916
 20
278.737
 30
0.0
 11
268.143
 21
278.53
 31
0.0
  0
LINE
  8
0
 62
     0
 10
268.143
 20
278.53
 30
0.0
 11
266.604
 21
284.278
 31
0.0
  0
LINE
  8
0
 62
     0
 10
266.604
 20
284.278
 30
0.0
 11
267.377
 21
284.486
 31
0.0
  0
LINE
  8
0
 62
     0
 10
267.377
 20
284.486
 30
0.0
 11
266.612
 21
287.335
 31
0.0
  0
LINE
  8
0
 62
     0
 10
266.612
 20
287.335
 30
0.0
 11
265.84
 21
287.128
 31
0.0
  0
LINE
  8
0
 62
     0
 10
265.84
 20
287.128
 30
0.0
 11
265.581
 21
288.094
 31
0.0
  0
LINE
  8
0
 62
     0
 10
265.581
 20
288.094
 30
0.0
 11
252.203
 21
284.508
 31
0.0
  0
ENDSEC
  0
EOF
