  0
SECTION
  2
HEADER
  9
$ACADVER
  1
AC1014
  9
$HANDSEED
  5
FFFF
  9
$MEASUREMENT
 70
     1
  0
ENDSEC
  0
SECTION
  2
TABLES
  0
TABLE
  2
VPORT
  5
8
330
0
100
AcDbSymbolTable
 70
     4
  0
VPORT
  5
2E
330
8
100
AcDbSymbolTableRecord
100
AcDbViewportTableRecord
  2
*ACTIVE
 70
     0
 10
0.0
 20
0.0
 11
1.0
 21
1.0
 12
210.0
 22
148.5
 13
0.0
 23
0.0
 14
10.0
 24
10.0
 15
10.0
 25
10.0
 16
0.0
 26
0.0
 36
1.0
 17
0.0
 27
0.0
 37
0.0
 40
341.0
 41
1.24
 42
50.0
 43
0.0
 44
0.0
 50
0.0
 51
0.0
 71
     0
 72
   100
 73
     1
 74
     3
 75
     0
 76
     0
 77
     0
 78
     0
  0
ENDTAB
  0
TABLE
  2
LTYPE
  5
5
330
0
100
AcDbSymbolTable
 70
     1
  0
LTYPE
  5
14
330
5
100
AcDbSymbolTableRecord
100
AcDbLinetypeTableRecord
  2
BYBLOCK
 70
     0
  3

 72
    65
 73
     0
 40
0.0
  0
LTYPE
  5
15
330
5
100
AcDbSymbolTableRecord
100
AcDbLinetypeTableRecord
  2
BYLAYER
 70
     0
  3

 72
    65
 73
     0
 40
0.0
  0
LTYPE
  5
16
330
5
100
AcDbSymbolTableRecord
100
AcDbLinetypeTableRecord
  2
CONTINUOUS
 70
     0
  3
Solid line
 72
    65
 73
     0
 40
0.0
  0
ENDTAB
  0
TABLE
  2
LAYER
  5
2
100
AcDbSymbolTable
 70
1
  0
LAYER
  5
50
100
AcDbSymbolTableRecord
100
AcDbLayerTableRecord
  2
0
 70
0
  6
CONTINUOUS
  0
ENDTAB
  0
TABLE
  2
STYLE
  5
3
330
0
100
AcDbSymbolTable
 70
     1
  0
STYLE
  5
11
330
3
100
AcDbSymbolTableRecord
100
AcDbTextStyleTableRecord
  2
STANDARD
 70
     0
 40
0.0
 41
1.0
 50
0.0
 71
     0
 42
2.5
  3
txt
  4

  0
ENDTAB
  0
TABLE
  2
VIEW
  5
6
330
0
100
AcDbSymbolTable
 70
     0
  0
ENDTAB
  0
TABLE
  2
UCS
  5
7
330
0
100
AcDbSymbolTable
 70
     0
  0
ENDTAB
  0
TABLE
  2
APPID
  5
9
330
0
100
AcDbSymbolTable
 70
     2
  0
APPID
  5
12
330
9
100
AcDbSymbolTableRecord
100
AcDbRegAppTableRecord
  2
ACAD
 70
     0
  0
ENDTAB
  0
TABLE
  2
DIMSTYLE
  5
A
330
0
100
AcDbSymbolTable
 70
     1
  0
DIMSTYLE
105
27
330
A
100
AcDbSymbolTableRecord
100
AcDbDimStyleTableRecord
  2
ISO-25
 70
     0
  3

  4

  5

  6

  7

 40
1.0
 41
2.5
 42
0.625
 43
3.75
 44
1.25
 45
0.0
 46
0.0
 47
0.0
 48
0.0
140
2.5
141
2.5
142
0.0
143
0.03937007874016
144
1.0
145
0.0
146
1.0
147
0.625
 71
     0
 72
     0
 73
     0
 74
     0
 75
     0
 76
     0
 77
     1
 78
     8
170
     0
171
     3
172
     1
173
     0
174
     0
175
     0
176
     0
177
     0
178
     0
270
     2
271
     2
272
     2
273
     2
274
     3
340
11
275
     0
280
     0
281
     0
282
     0
283
     0
284
     8
285
     0
286
     0
287
     3
288
     0
  0
ENDTAB
  0
TABLE
  2
BLOCK_RECORD
  5
1
330
0
100
AcDbSymbolTable
 70
     1
  0
BLOCK_RECORD
  5
1F
330
1
100
AcDbSymbolTableRecord
100
AcDbBlockTableRecord
  2
*MODEL_SPACE
  0
BLOCK_RECORD
  5
1B
330
1
100
AcDbSymbolTableRecord
100
AcDbBlockTableRecord
  2
*PAPER_SPACE
  0
ENDTAB
  0
ENDSEC
  0
SECTION
  2
BLOCKS
  0
BLOCK
  5
20
330
1F
100
AcDbEntity
  8
0
100
AcDbBlockBegin
  2
*MODEL_SPACE
 70
     0
 10
0.0
 20
0.0
 30
0.0
  3
*MODEL_SPACE
  1

  0
ENDBLK
  5
21
330
1F
100
AcDbEntity
  8
0
100
AcDbBlockEnd
  0
BLOCK
  5
1C
330
1B
100
AcDbEntity
 67
     1
  8
0
100
AcDbBlockBegin
  2
*PAPER_SPACE
  1

  0
ENDBLK
  5
1D
330
1B
100
AcDbEntity
 67
     1
  8
0
100
AcDbBlockEnd
  0
ENDSEC
  0
SECTION
  2
ENTITIES
  0
SPLINE
  5
100
100
AcDbEntity
  8
0
 62
5
100
AcDbSpline
 70
8
 71
3
 72
8
 73
4
 74
0
 40
0
 40
0
 40
0
 40
0
 40
1
 40
1
 40
1
 40
1
 10
612.955931
 20
594.518346
 30
0.0
 10
612.955931
 20
595.455113
 30
0.0
 10
612.456172
 20
596.320722
 30
0.0
 10
611.644908
 20
596.789106
 30
0.0
  0
SPLINE
  5
101
100
AcDbEntity
  8
0
 62
5
100
AcDbSpline
 70
8
 71
3
 72
8
 73
4
 74
0
 40
0
 40
0
 40
0
 40
0
 40
1
 40
1
 40
1
 40
1
 10
611.644908
 20
596.789106
 30
0.0
 10
610.833643
 20
597.257489
 30
0.0
 10
609.834125
 20
597.257489
 30
0.0
 10
609.022860
 20
596.789106
 30
0.0
  0
SPLINE
  5
102
100
AcDbEntity
  8
0
 62
5
100
AcDbSpline
 70
8
 71
3
 72
8
 73
4
 74
0
 40
0
 40
0
 40
0
 40
0
 40
1
 40
1
 40
1
 40
1
 10
609.022860
 20
596.789106
 30
0.0
 10
608.211596
 20
596.320722
 30
0.0
 10
607.711837
 20
595.455113
 30
0.0
 10
607.711837
 20
594.518346
 30
0.0
  0
SPLINE
  5
103
100
AcDbEntity
  8
0
 62
5
100
AcDbSpline
 70
8
 71
3
 72
8
 73
4
 74
0
 40
0
 40
0
 40
0
 40
0
 40
1
 40
1
 40
1
 40
1
 10
607.711837
 20
594.518346
 30
0.0
 10
607.711837
 20
593.581579
 30
0.0
 10
608.211596
 20
592.715970
 30
0.0
 10
609.022860
 20
592.247587
 30
0.0
  0
SPLINE
  5
104
100
AcDbEntity
  8
0
 62
5
100
AcDbSpline
 70
8
 71
3
 72
8
 73
4
 74
0
 40
0
 40
0
 40
0
 40
0
 40
1
 40
1
 40
1
 40
1
 10
609.022860
 20
592.247587
 30
0.0
 10
609.834125
 20
591.779203
 30
0.0
 10
610.833643
 20
591.779203
 30
0.0
 10
611.644908
 20
592.247587
 30
0.0
  0
SPLINE
  5
105
100
AcDbEntity
  8
0
 62
5
100
AcDbSpline
 70
8
 71
3
 72
8
 73
4
 74
0
 40
0
 40
0
 40
0
 40
0
 40
1
 40
1
 40
1
 40
1
 10
611.644908
 20
592.247587
 30
0.0
 10
612.456172
 20
592.715970
 30
0.0
 10
612.955931
 20
593.581579
 30
0.0
 10
612.955931
 20
594.518346
 30
0.0
  0
SPLINE
  5
106
100
AcDbEntity
  8
0
 62
5
100
AcDbSpline
 70
8
 71
3
 72
8
 73
4
 74
0
 40
0
 40
0
 40
0
 40
0
 40
1
 40
1
 40
1
 40
1
 10
437.880430
 20
693.704987
 30
0.0
 10
437.880430
 20
694.641754
 30
0.0
 10
437.380670
 20
695.507362
 30
0.0
 10
436.569406
 20
695.975746
 30
0.0
  0
SPLINE
  5
107
100
AcDbEntity
  8
0
 62
5
100
AcDbSpline
 70
8
 71
3
 72
8
 73
4
 74
0
 40
0
 40
0
 40
0
 40
0
 40
1
 40
1
 40
1
 40
1
 10
436.569406
 20
695.975746
 30
0.0
 10
435.758142
 20
696.444130
 30
0.0
 10
434.758623
 20
696.444130
 30
0.0
 10
433.947359
 20
695.975746
 30
0.0
  0
SPLINE
  5
108
100
AcDbEntity
  8
0
 62
5
100
AcDbSpline
 70
8
 71
3
 72
8
 73
4
 74
0
 40
0
 40
0
 40
0
 40
0
 40
1
 40
1
 40
1
 40
1
 10
433.947359
 20
695.975746
 30
0.0
 10
433.136095
 20
695.507362
 30
0.0
 10
432.636335
 20
694.641754
 30
0.0
 10
432.636335
 20
693.704987
 30
0.0
  0
SPLINE
  5
109
100
AcDbEntity
  8
0
 62
5
100
AcDbSpline
 70
8
 71
3
 72
8
 73
4
 74
0
 40
0
 40
0
 40
0
 40
0
 40
1
 40
1
 40
1
 40
1
 10
432.636335
 20
693.704987
 30
0.0
 10
432.636335
 20
692.768219
 30
0.0
 10
433.136095
 20
691.902611
 30
0.0
 10
433.947359
 20
691.434227
 30
0.0
  0
SPLINE
  5
10a
100
AcDbEntity
  8
0
 62
5
100
AcDbSpline
 70
8
 71
3
 72
8
 73
4
 74
0
 40
0
 40
0
 40
0
 40
0
 40
1
 40
1
 40
1
 40
1
 10
433.947359
 20
691.434227
 30
0.0
 10
434.758623
 20
690.965843
 30
0.0
 10
435.758142
 20
690.965843
 30
0.0
 10
436.569406
 20
691.434227
 30
0.0
  0
SPLINE
  5
10b
100
AcDbEntity
  8
0
 62
5
100
AcDbSpline
 70
8
 71
3
 72
8
 73
4
 74
0
 40
0
 40
0
 40
0
 40
0
 40
1
 40
1
 40
1
 40
1
 10
436.569406
 20
691.434227
 30
0.0
 10
437.380670
 20
691.902611
 30
0.0
 10
437.880430
 20
692.768219
 30
0.0
 10
437.880430
 20
693.704987
 30
0.0
  0
LWPOLYLINE
  5
10c
100
AcDbEntity
  8
0
 62
5
100
AcDbPolyline
 90
1
 70
1
 10
612.955931
 20
594.518346
 30
0.0
  0
SPLINE
  5
10d
100
AcDbEntity
  8
0
 62
5
100
AcDbSpline
 70
8
 71
3
 72
8
 73
4
 74
0
 40
0
 40
0
 40
0
 40
0
 40
1
 40
1
 40
1
 40
1
 10
406.622437
 20
693.159523
 30
0.0
 10
406.622437
 20
694.096290
 30
0.0
 10
406.122677
 20
694.961899
 30
0.0
 10
405.311413
 20
695.430282
 30
0.0
  0
SPLINE
  5
10e
100
AcDbEntity
  8
0
 62
5
100
AcDbSpline
 70
8
 71
3
 72
8
 73
4
 74
0
 40
0
 40
0
 40
0
 40
0
 40
1
 40
1
 40
1
 40
1
 10
405.311413
 20
695.430282
 30
0.0
 10
404.500149
 20
695.898666
 30
0.0
 10
403.500630
 20
695.898666
 30
0.0
 10
402.689366
 20
695.430282
 30
0.0
  0
SPLINE
  5
10f
100
AcDbEntity
  8
0
 62
5
100
AcDbSpline
 70
8
 71
3
 72
8
 73
4
 74
0
 40
0
 40
0
 40
0
 40
0
 40
1
 40
1
 40
1
 40
1
 10
402.689366
 20
695.430282
 30
0.0
 10
401.878102
 20
694.961899
 30
0.0
 10
401.378342
 20
694.096290
 30
0.0
 10
401.378342
 20
693.159523
 30
0.0
  0
SPLINE
  5
110
100
AcDbEntity
  8
0
 62
5
100
AcDbSpline
 70
8
 71
3
 72
8
 73
4
 74
0
 40
0
 40
0
 40
0
 40
0
 40
1
 40
1
 40
1
 40
1
 10
401.378342
 20
693.159523
 30
0.0
 10
401.378342
 20
692.222756
 30
0.0
 10
401.878102
 20
691.357147
 30
0.0
 10
402.689366
 20
690.888763
 30
0.0
  0
SPLINE
  5
111
100
AcDbEntity
  8
0
 62
5
100
AcDbSpline
 70
8
 71
3
 72
8
 73
4
 74
0
 40
0
 40
0
 40
0
 40
0
 40
1
 40
1
 40
1
 40
1
 10
402.689366
 20
690.888763
 30
0.0
 10
403.500630
 20
690.420380
 30
0.0
 10
404.500149
 20
690.420380
 30
0.0
 10
405.311413
 20
690.888763
 30
0.0
  0
SPLINE
  5
112
100
AcDbEntity
  8
0
 62
5
100
AcDbSpline
 70
8
 71
3
 72
8
 73
4
 74
0
 40
0
 40
0
 40
0
 40
0
 40
1
 40
1
 40
1
 40
1
 10
405.311413
 20
690.888763
 30
0.0
 10
406.122677
 20
691.357147
 30
0.0
 10
406.622437
 20
692.222756
 30
0.0
 10
406.622437
 20
693.159523
 30
0.0
  0
LWPOLYLINE
  5
113
100
AcDbEntity
  8
0
 62
5
100
AcDbPolyline
 90
1
 70
1
 10
437.880430
 20
693.704987
 30
0.0
  0
SPLINE
  5
114
100
AcDbEntity
  8
0
 62
5
100
AcDbSpline
 70
8
 71
3
 72
8
 73
4
 74
0
 40
0
 40
0
 40
0
 40
0
 40
1
 40
1
 40
1
 40
1
 10
463.162692
 20
588.469317
 30
0.0
 10
463.162692
 20
589.406084
 30
0.0
 10
462.662933
 20
590.271693
 30
0.0
 10
461.851668
 20
590.740077
 30
0.0
  0
SPLINE
  5
115
100
AcDbEntity
  8
0
 62
5
100
AcDbSpline
 70
8
 71
3
 72
8
 73
4
 74
0
 40
0
 40
0
 40
0
 40
0
 40
1
 40
1
 40
1
 40
1
 10
461.851668
 20
590.740077
 30
0.0
 10
461.040404
 20
591.208460
 30
0.0
 10
460.040885
 20
591.208460
 30
0.0
 10
459.229621
 20
590.740077
 30
0.0
  0
SPLINE
  5
116
100
AcDbEntity
  8
0
 62
5
100
AcDbSpline
 70
8
 71
3
 72
8
 73
4
 74
0
 40
0
 40
0
 40
0
 40
0
 40
1
 40
1
 40
1
 40
1
 10
459.229621
 20
590.740077
 30
0.0
 10
458.418357
 20
590.271693
 30
0.0
 10
457.918597
 20
589.406084
 30
0.0
 10
457.918597
 20
588.469317
 30
0.0
  0
SPLINE
  5
117
100
AcDbEntity
  8
0
 62
5
100
AcDbSpline
 70
8
 71
3
 72
8
 73
4
 74
0
 40
0
 40
0
 40
0
 40
0
 40
1
 40
1
 40
1
 40
1
 10
457.918597
 20
588.469317
 30
0.0
 10
457.918597
 20
587.532550
 30
0.0
 10
458.418357
 20
586.666941
 30
0.0
 10
459.229621
 20
586.198558
 30
0.0
  0
SPLINE
  5
118
100
AcDbEntity
  8
0
 62
5
100
AcDbSpline
 70
8
 71
3
 72
8
 73
4
 74
0
 40
0
 40
0
 40
0
 40
0
 40
1
 40
1
 40
1
 40
1
 10
459.229621
 20
586.198558
 30
0.0
 10
460.040885
 20
585.730174
 30
0.0
 10
461.040404
 20
585.730174
 30
0.0
 10
461.851668
 20
586.198558
 30
0.0
  0
SPLINE
  5
119
100
AcDbEntity
  8
0
 62
5
100
AcDbSpline
 70
8
 71
3
 72
8
 73
4
 74
0
 40
0
 40
0
 40
0
 40
0
 40
1
 40
1
 40
1
 40
1
 10
461.851668
 20
586.198558
 30
0.0
 10
462.662933
 20
586.666941
 30
0.0
 10
463.162692
 20
587.532550
 30
0.0
 10
463.162692
 20
588.469317
 30
0.0
  0
LWPOLYLINE
  5
11a
100
AcDbEntity
  8
0
 62
5
100
AcDbPolyline
 90
1
 70
1
 10
406.622437
 20
693.159523
 30
0.0
  0
SPLINE
  5
11b
100
AcDbEntity
  8
0
 62
5
100
AcDbSpline
 70
8
 71
3
 72
8
 73
4
 74
0
 40
0
 40
0
 40
0
 40
0
 40
1
 40
1
 40
1
 40
1
 10
380.426748
 20
587.733915
 30
0.0
 10
380.426748
 20
588.670682
 30
0.0
 10
379.926989
 20
589.536291
 30
0.0
 10
379.115725
 20
590.004675
 30
0.0
  0
SPLINE
  5
11c
100
AcDbEntity
  8
0
 62
5
100
AcDbSpline
 70
8
 71
3
 72
8
 73
4
 74
0
 40
0
 40
0
 40
0
 40
0
 40
1
 40
1
 40
1
 40
1
 10
379.115725
 20
590.004675
 30
0.0
 10
378.304460
 20
590.473059
 30
0.0
 10
377.304941
 20
590.473059
 30
0.0
 10
376.493677
 20
590.004675
 30
0.0
  0
SPLINE
  5
11d
100
AcDbEntity
  8
0
 62
5
100
AcDbSpline
 70
8
 71
3
 72
8
 73
4
 74
0
 40
0
 40
0
 40
0
 40
0
 40
1
 40
1
 40
1
 40
1
 10
376.493677
 20
590.004675
 30
0.0
 10
375.682413
 20
589.536291
 30
0.0
 10
375.182653
 20
588.670682
 30
0.0
 10
375.182653
 20
587.733915
 30
0.0
  0
SPLINE
  5
11e
100
AcDbEntity
  8
0
 62
5
100
AcDbSpline
 70
8
 71
3
 72
8
 73
4
 74
0
 40
0
 40
0
 40
0
 40
0
 40
1
 40
1
 40
1
 40
1
 10
375.182653
 20
587.733915
 30
0.0
 10
375.182653
 20
586.797148
 30
0.0
 10
375.682413
 20
585.931539
 30
0.0
 10
376.493677
 20
585.463156
 30
0.0
  0
SPLINE
  5
11f
100
AcDbEntity
  8
0
 62
5
100
AcDbSpline
 70
8
 71
3
 72
8
 73
4
 74
0
 40
0
 40
0
 40
0
 40
0
 40
1
 40
1
 40
1
 40
1
 10
376.493677
 20
585.463156
 30
0.0
 10
377.304941
 20
584.994772
 30
0.0
 10
378.304460
 20
584.994772
 30
0.0
 10
379.115724
 20
585.463156
 30
0.0
  0
SPLINE
  5
120
100
AcDbEntity
  8
0
 62
5
100
AcDbSpline
 70
8
 71
3
 72
8
 73
4
 74
0
 40
0
 40
0
 40
0
 40
0
 40
1
 40
1
 40
1
 40
1
 10
379.115724
 20
585.463156
 30
0.0
 10
379.926989
 20
585.931539
 30
0.0
 10
380.426748
 20
586.797148
 30
0.0
 10
380.426748
 20
587.733915
 30
0.0
  0
LWPOLYLINE
  5
121
100
AcDbEntity
  8
0
 62
5
100
AcDbPolyline
 90
1
 70
1
 10
463.162692
 20
588.469317
 30
0.0
  0
SPLINE
  5
122
100
AcDbEntity
  8
0
 62
5
100
AcDbSpline
 70
8
 71
3
 72
8
 73
4
 74
0
 40
0
 40
0
 40
0
 40
0
 40
1
 40
1
 40
1
 40
1
 10
231.549205
 20
593.402651
 30
0.0
 10
231.549205
 20
594.339419
 30
0.0
 10
231.049445
 20
595.205027
 30
0.0
 10
230.238181
 20
595.673411
 30
0.0
  0
SPLINE
  5
123
100
AcDbEntity
  8
0
 62
5
100
AcDbSpline
 70
8
 71
3
 72
8
 73
4
 74
0
 40
0
 40
0
 40
0
 40
0
 40
1
 40
1
 40
1
 40
1
 10
230.238181
 20
595.673411
 30
0.0
 10
229.426917
 20
596.141794
 30
0.0
 10
228.427398
 20
596.141794
 30
0.0
 10
227.616134
 20
595.673411
 30
0.0
  0
SPLINE
  5
124
100
AcDbEntity
  8
0
 62
5
100
AcDbSpline
 70
8
 71
3
 72
8
 73
4
 74
0
 40
0
 40
0
 40
0
 40
0
 40
1
 40
1
 40
1
 40
1
 10
227.616134
 20
595.673411
 30
0.0
 10
226.804870
 20
595.205027
 30
0.0
 10
226.305110
 20
594.339419
 30
0.0
 10
226.305110
 20
593.402651
 30
0.0
  0
SPLINE
  5
125
100
AcDbEntity
  8
0
 62
5
100
AcDbSpline
 70
8
 71
3
 72
8
 73
4
 74
0
 40
0
 40
0
 40
0
 40
0
 40
1
 40
1
 40
1
 40
1
 10
226.305110
 20
593.402651
 30
0.0
 10
226.305110
 20
592.465884
 30
0.0
 10
226.804870
 20
591.600275
 30
0.0
 10
227.616134
 20
591.131892
 30
0.0
  0
SPLINE
  5
126
100
AcDbEntity
  8
0
 62
5
100
AcDbSpline
 70
8
 71
3
 72
8
 73
4
 74
0
 40
0
 40
0
 40
0
 40
0
 40
1
 40
1
 40
1
 40
1
 10
227.616134
 20
591.131892
 30
0.0
 10
228.427398
 20
590.663508
 30
0.0
 10
229.426917
 20
590.663508
 30
0.0
 10
230.238181
 20
591.131892
 30
0.0
  0
SPLINE
  5
127
100
AcDbEntity
  8
0
 62
5
100
AcDbSpline
 70
8
 71
3
 72
8
 73
4
 74
0
 40
0
 40
0
 40
0
 40
0
 40
1
 40
1
 40
1
 40
1
 10
230.238181
 20
591.131892
 30
0.0
 10
231.049445
 20
591.600275
 30
0.0
 10
231.549205
 20
592.465884
 30
0.0
 10
231.549205
 20
593.402651
 30
0.0
  0
LWPOLYLINE
  5
128
100
AcDbEntity
  8
0
 62
5
100
AcDbPolyline
 90
1
 70
1
 10
380.426748
 20
587.733915
 30
0.0
  0
SPLINE
  5
129
100
AcDbEntity
  8
0
 62
5
100
AcDbSpline
 70
8
 71
3
 72
8
 73
4
 74
0
 40
0
 40
0
 40
0
 40
0
 40
1
 40
1
 40
1
 40
1
 10
837.291207
 20
612.736070
 30
0.0
 10
837.291694
 20
613.622526
 30
0.0
 10
836.819056
 20
614.441853
 30
0.0
 10
836.051443
 20
614.885222
 30
0.0
  0
SPLINE
  5
12a
100
AcDbEntity
  8
0
 62
5
100
AcDbSpline
 70
8
 71
3
 72
8
 73
4
 74
0
 40
0
 40
0
 40
0
 40
0
 40
1
 40
1
 40
1
 40
1
 10
836.051443
 20
614.885222
 30
0.0
 10
835.283831
 20
615.328591
 30
0.0
 10
834.337953
 20
615.328591
 30
0.0
 10
833.570341
 20
614.885222
 30
0.0
  0
SPLINE
  5
12b
100
AcDbEntity
  8
0
 62
5
100
AcDbSpline
 70
8
 71
3
 72
8
 73
4
 74
0
 40
0
 40
0
 40
0
 40
0
 40
1
 40
1
 40
1
 40
1
 10
833.570341
 20
614.885222
 30
0.0
 10
832.802729
 20
614.441853
 30
0.0
 10
832.330090
 20
613.622526
 30
0.0
 10
832.330577
 20
612.736070
 30
0.0
  0
SPLINE
  5
12c
100
AcDbEntity
  8
0
 62
5
100
AcDbSpline
 70
8
 71
3
 72
8
 73
4
 74
0
 40
0
 40
0
 40
0
 40
0
 40
1
 40
1
 40
1
 40
1
 10
832.330577
 20
612.736070
 30
0.0
 10
832.330090
 20
611.849614
 30
0.0
 10
832.802729
 20
611.030286
 30
0.0
 10
833.570341
 20
610.586917
 30
0.0
  0
SPLINE
  5
12d
100
AcDbEntity
  8
0
 62
5
100
AcDbSpline
 70
8
 71
3
 72
8
 73
4
 74
0
 40
0
 40
0
 40
0
 40
0
 40
1
 40
1
 40
1
 40
1
 10
833.570341
 20
610.586917
 30
0.0
 10
834.337953
 20
610.143548
 30
0.0
 10
835.283831
 20
610.143548
 30
0.0
 10
836.051443
 20
610.586917
 30
0.0
  0
SPLINE
  5
12e
100
AcDbEntity
  8
0
 62
5
100
AcDbSpline
 70
8
 71
3
 72
8
 73
4
 74
0
 40
0
 40
0
 40
0
 40
0
 40
1
 40
1
 40
1
 40
1
 10
836.051443
 20
610.586917
 30
0.0
 10
836.819056
 20
611.030286
 30
0.0
 10
837.291694
 20
611.849614
 30
0.0
 10
837.291207
 20
612.736070
 30
0.0
  0
LWPOLYLINE
  5
12f
100
AcDbEntity
  8
0
 62
5
100
AcDbPolyline
 90
1
 70
1
 10
231.549205
 20
593.402651
 30
0.0
  0
SPLINE
  5
130
100
AcDbEntity
  8
0
 62
5
100
AcDbSpline
 70
8
 71
3
 72
8
 73
4
 74
0
 40
0
 40
0
 40
0
 40
0
 40
1
 40
1
 40
1
 40
1
 10
7.073126
 20
611.624401
 30
0.0
 10
7.073126
 20
612.561168
 30
0.0
 10
6.573367
 20
613.426777
 30
0.0
 10
5.762103
 20
613.895160
 30
0.0
  0
SPLINE
  5
131
100
AcDbEntity
  8
0
 62
5
100
AcDbSpline
 70
8
 71
3
 72
8
 73
4
 74
0
 40
0
 40
0
 40
0
 40
0
 40
1
 40
1
 40
1
 40
1
 10
5.762103
 20
613.895160
 30
0.0
 10
4.950838
 20
614.363544
 30
0.0
 10
3.951320
 20
614.363544
 30
0.0
 10
3.140055
 20
613.895160
 30
0.0
  0
SPLINE
  5
132
100
AcDbEntity
  8
0
 62
5
100
AcDbSpline
 70
8
 71
3
 72
8
 73
4
 74
0
 40
0
 40
0
 40
0
 40
0
 40
1
 40
1
 40
1
 40
1
 10
3.140055
 20
613.895160
 30
0.0
 10
2.328791
 20
613.426777
 30
0.0
 10
1.829032
 20
612.561168
 30
0.0
 10
1.829032
 20
611.624401
 30
0.0
  0
SPLINE
  5
133
100
AcDbEntity
  8
0
 62
5
100
AcDbSpline
 70
8
 71
3
 72
8
 73
4
 74
0
 40
0
 40
0
 40
0
 40
0
 40
1
 40
1
 40
1
 40
1
 10
1.829032
 20
611.624401
 30
0.0
 10
1.829032
 20
610.687634
 30
0.0
 10
2.328791
 20
609.822025
 30
0.0
 10
3.140055
 20
609.353641
 30
0.0
  0
SPLINE
  5
134
100
AcDbEntity
  8
0
 62
5
100
AcDbSpline
 70
8
 71
3
 72
8
 73
4
 74
0
 40
0
 40
0
 40
0
 40
0
 40
1
 40
1
 40
1
 40
1
 10
3.140055
 20
609.353641
 30
0.0
 10
3.951320
 20
608.885258
 30
0.0
 10
4.950838
 20
608.885258
 30
0.0
 10
5.762103
 20
609.353641
 30
0.0
  0
SPLINE
  5
135
100
AcDbEntity
  8
0
 62
5
100
AcDbSpline
 70
8
 71
3
 72
8
 73
4
 74
0
 40
0
 40
0
 40
0
 40
0
 40
1
 40
1
 40
1
 40
1
 10
5.762103
 20
609.353641
 30
0.0
 10
6.573367
 20
609.822025
 30
0.0
 10
7.073126
 20
610.687634
 30
0.0
 10
7.073126
 20
611.624401
 30
0.0
  0
LWPOLYLINE
  5
136
100
AcDbEntity
  8
0
 62
5
100
AcDbPolyline
 90
1
 70
1
 10
837.291207
 20
612.736070
 30
0.0
  0
SPLINE
  5
137
100
AcDbEntity
  8
0
 62
5
100
AcDbSpline
 70
8
 71
3
 72
8
 73
4
 74
0
 40
0
 40
0
 40
0
 40
0
 40
1
 40
1
 40
1
 40
1
 10
776.894431
 20
838.131837
 30
0.0
 10
776.894919
 20
839.018293
 30
0.0
 10
776.422280
 20
839.837621
 30
0.0
 10
775.654668
 20
840.280990
 30
0.0
  0
SPLINE
  5
138
100
AcDbEntity
  8
0
 62
5
100
AcDbSpline
 70
8
 71
3
 72
8
 73
4
 74
0
 40
0
 40
0
 40
0
 40
0
 40
1
 40
1
 40
1
 40
1
 10
775.654668
 20
840.280990
 30
0.0
 10
774.887056
 20
840.724358
 30
0.0
 10
773.941178
 20
840.724358
 30
0.0
 10
773.173565
 20
840.280990
 30
0.0
  0
SPLINE
  5
139
100
AcDbEntity
  8
0
 62
5
100
AcDbSpline
 70
8
 71
3
 72
8
 73
4
 74
0
 40
0
 40
0
 40
0
 40
0
 40
1
 40
1
 40
1
 40
1
 10
773.173565
 20
840.280990
 30
0.0
 10
772.405953
 20
839.837621
 30
0.0
 10
771.933314
 20
839.018293
 30
0.0
 10
771.933802
 20
838.131837
 30
0.0
  0
SPLINE
  5
13a
100
AcDbEntity
  8
0
 62
5
100
AcDbSpline
 70
8
 71
3
 72
8
 73
4
 74
0
 40
0
 40
0
 40
0
 40
0
 40
1
 40
1
 40
1
 40
1
 10
771.933802
 20
838.131837
 30
0.0
 10
771.933314
 20
837.245381
 30
0.0
 10
772.405953
 20
836.426053
 30
0.0
 10
773.173565
 20
835.982684
 30
0.0
  0
SPLINE
  5
13b
100
AcDbEntity
  8
0
 62
5
100
AcDbSpline
 70
8
 71
3
 72
8
 73
4
 74
0
 40
0
 40
0
 40
0
 40
0
 40
1
 40
1
 40
1
 40
1
 10
773.173565
 20
835.982684
 30
0.0
 10
773.941178
 20
835.539316
 30
0.0
 10
774.887056
 20
835.539316
 30
0.0
 10
775.654668
 20
835.982684
 30
0.0
  0
SPLINE
  5
13c
100
AcDbEntity
  8
0
 62
5
100
AcDbSpline
 70
8
 71
3
 72
8
 73
4
 74
0
 40
0
 40
0
 40
0
 40
0
 40
1
 40
1
 40
1
 40
1
 10
775.654668
 20
835.982684
 30
0.0
 10
776.422280
 20
836.426053
 30
0.0
 10
776.894919
 20
837.245381
 30
0.0
 10
776.894431
 20
838.131837
 30
0.0
  0
LWPOLYLINE
  5
13d
100
AcDbEntity
  8
0
 62
5
100
AcDbPolyline
 90
1
 70
1
 10
7.073126
 20
611.624401
 30
0.0
  0
SPLINE
  5
13e
100
AcDbEntity
  8
0
 62
5
100
AcDbSpline
 70
8
 71
3
 72
8
 73
4
 74
0
 40
0
 40
0
 40
0
 40
0
 40
1
 40
1
 40
1
 40
1
 10
292.395656
 20
820.487197
 30
0.0
 10
292.395656
 20
821.423964
 30
0.0
 10
291.895897
 20
822.289573
 30
0.0
 10
291.084633
 20
822.757956
 30
0.0
  0
SPLINE
  5
13f
100
AcDbEntity
  8
0
 62
5
100
AcDbSpline
 70
8
 71
3
 72
8
 73
4
 74
0
 40
0
 40
0
 40
0
 40
0
 40
1
 40
1
 40
1
 40
1
 10
291.084633
 20
822.757956
 30
0.0
 10
290.273368
 20
823.226340
 30
0.0
 10
289.273850
 20
823.226340
 30
0.0
 10
288.462585
 20
822.757956
 30
0.0
  0
SPLINE
  5
140
100
AcDbEntity
  8
0
 62
5
100
AcDbSpline
 70
8
 71
3
 72
8
 73
4
 74
0
 40
0
 40
0
 40
0
 40
0
 40
1
 40
1
 40
1
 40
1
 10
288.462585
 20
822.757956
 30
0.0
 10
287.651321
 20
822.289573
 30
0.0
 10
287.151562
 20
821.423964
 30
0.0
 10
287.151562
 20
820.487197
 30
0.0
  0
SPLINE
  5
141
100
AcDbEntity
  8
0
 62
5
100
AcDbSpline
 70
8
 71
3
 72
8
 73
4
 74
0
 40
0
 40
0
 40
0
 40
0
 40
1
 40
1
 40
1
 40
1
 10
287.151562
 20
820.487197
 30
0.0
 10
287.151562
 20
819.550430
 30
0.0
 10
287.651321
 20
818.684821
 30
0.0
 10
288.462585
 20
818.216437
 30
0.0
  0
SPLINE
  5
142
100
AcDbEntity
  8
0
 62
5
100
AcDbSpline
 70
8
 71
3
 72
8
 73
4
 74
0
 40
0
 40
0
 40
0
 40
0
 40
1
 40
1
 40
1
 40
1
 10
288.462585
 20
818.216437
 30
0.0
 10
289.273850
 20
817.748054
 30
0.0
 10
290.273368
 20
817.748054
 30
0.0
 10
291.084633
 20
818.216437
 30
0.0
  0
SPLINE
  5
143
100
AcDbEntity
  8
0
 62
5
100
AcDbSpline
 70
8
 71
3
 72
8
 73
4
 74
0
 40
0
 40
0
 40
0
 40
0
 40
1
 40
1
 40
1
 40
1
 10
291.084633
 20
818.216437
 30
0.0
 10
291.895897
 20
818.684821
 30
0.0
 10
292.395656
 20
819.550430
 30
0.0
 10
292.395656
 20
820.487197
 30
0.0
  0
LWPOLYLINE
  5
144
100
AcDbEntity
  8
0
 62
5
100
AcDbPolyline
 90
1
 70
1
 10
776.894431
 20
838.131837
 30
0.0
  0
SPLINE
  5
145
100
AcDbEntity
  8
0
 62
5
100
AcDbSpline
 70
8
 71
3
 72
8
 73
4
 74
0
 40
0
 40
0
 40
0
 40
0
 40
1
 40
1
 40
1
 40
1
 10
552.110846
 20
821.602727
 30
0.0
 10
552.110846
 20
822.539494
 30
0.0
 10
551.611087
 20
823.405103
 30
0.0
 10
550.799823
 20
823.873486
 30
0.0
  0
SPLINE
  5
146
100
AcDbEntity
  8
0
 62
5
100
AcDbSpline
 70
8
 71
3
 72
8
 73
4
 74
0
 40
0
 40
0
 40
0
 40
0
 40
1
 40
1
 40
1
 40
1
 10
550.799823
 20
823.873486
 30
0.0
 10
549.988558
 20
824.341870
 30
0.0
 10
548.989040
 20
824.341870
 30
0.0
 10
548.177775
 20
823.873486
 30
0.0
  0
SPLINE
  5
147
100
AcDbEntity
  8
0
 62
5
100
AcDbSpline
 70
8
 71
3
 72
8
 73
4
 74
0
 40
0
 40
0
 40
0
 40
0
 40
1
 40
1
 40
1
 40
1
 10
548.177775
 20
823.873486
 30
0.0
 10
547.366511
 20
823.405103
 30
0.0
 10
546.866752
 20
822.539494
 30
0.0
 10
546.866752
 20
821.602727
 30
0.0
  0
SPLINE
  5
148
100
AcDbEntity
  8
0
 62
5
100
AcDbSpline
 70
8
 71
3
 72
8
 73
4
 74
0
 40
0
 40
0
 40
0
 40
0
 40
1
 40
1
 40
1
 40
1
 10
546.866752
 20
821.602727
 30
0.0
 10
546.866752
 20
820.665959
 30
0.0
 10
547.366511
 20
819.800350
 30
0.0
 10
548.177775
 20
819.331967
 30
0.0
  0
SPLINE
  5
149
100
AcDbEntity
  8
0
 62
5
100
AcDbSpline
 70
8
 71
3
 72
8
 73
4
 74
0
 40
0
 40
0
 40
0
 40
0
 40
1
 40
1
 40
1
 40
1
 10
548.177775
 20
819.331967
 30
0.0
 10
548.989040
 20
818.863583
 30
0.0
 10
549.988558
 20
818.863583
 30
0.0
 10
550.799823
 20
819.331967
 30
0.0
  0
SPLINE
  5
14a
100
AcDbEntity
  8
0
 62
5
100
AcDbSpline
 70
8
 71
3
 72
8
 73
4
 74
0
 40
0
 40
0
 40
0
 40
0
 40
1
 40
1
 40
1
 40
1
 10
550.799823
 20
819.331967
 30
0.0
 10
551.611087
 20
819.800350
 30
0.0
 10
552.110846
 20
820.665959
 30
0.0
 10
552.110846
 20
821.602727
 30
0.0
  0
LWPOLYLINE
  5
14b
100
AcDbEntity
  8
0
 62
5
100
AcDbPolyline
 90
1
 70
1
 10
292.395656
 20
820.487197
 30
0.0
  0
SPLINE
  5
14c
100
AcDbEntity
  8
0
 62
5
100
AcDbSpline
 70
8
 71
3
 72
8
 73
4
 74
0
 40
0
 40
0
 40
0
 40
0
 40
1
 40
1
 40
1
 40
1
 10
526.466156
 20
443.217650
 30
0.0
 10
526.466156
 20
444.154418
 30
0.0
 10
525.966397
 20
445.020026
 30
0.0
 10
525.155133
 20
445.488410
 30
0.0
  0
SPLINE
  5
14d
100
AcDbEntity
  8
0
 62
5
100
AcDbSpline
 70
8
 71
3
 72
8
 73
4
 74
0
 40
0
 40
0
 40
0
 40
0
 40
1
 40
1
 40
1
 40
1
 10
525.155133
 20
445.488410
 30
0.0
 10
524.343868
 20
445.956794
 30
0.0
 10
523.344350
 20
445.956794
 30
0.0
 10
522.533085
 20
445.488410
 30
0.0
  0
SPLINE
  5
14e
100
AcDbEntity
  8
0
 62
5
100
AcDbSpline
 70
8
 71
3
 72
8
 73
4
 74
0
 40
0
 40
0
 40
0
 40
0
 40
1
 40
1
 40
1
 40
1
 10
522.533085
 20
445.488410
 30
0.0
 10
521.721821
 20
445.020026
 30
0.0
 10
521.222062
 20
444.154418
 30
0.0
 10
521.222062
 20
443.217650
 30
0.0
  0
SPLINE
  5
14f
100
AcDbEntity
  8
0
 62
5
100
AcDbSpline
 70
8
 71
3
 72
8
 73
4
 74
0
 40
0
 40
0
 40
0
 40
0
 40
1
 40
1
 40
1
 40
1
 10
521.222062
 20
443.217650
 30
0.0
 10
521.222062
 20
442.280883
 30
0.0
 10
521.721821
 20
441.415274
 30
0.0
 10
522.533085
 20
440.946890
 30
0.0
  0
SPLINE
  5
150
100
AcDbEntity
  8
0
 62
5
100
AcDbSpline
 70
8
 71
3
 72
8
 73
4
 74
0
 40
0
 40
0
 40
0
 40
0
 40
1
 40
1
 40
1
 40
1
 10
522.533085
 20
440.946890
 30
0.0
 10
523.344350
 20
440.478507
 30
0.0
 10
524.343868
 20
440.478507
 30
0.0
 10
525.155133
 20
440.946890
 30
0.0
  0
SPLINE
  5
151
100
AcDbEntity
  8
0
 62
5
100
AcDbSpline
 70
8
 71
3
 72
8
 73
4
 74
0
 40
0
 40
0
 40
0
 40
0
 40
1
 40
1
 40
1
 40
1
 10
525.155133
 20
440.946890
 30
0.0
 10
525.966397
 20
441.415274
 30
0.0
 10
526.466156
 20
442.280883
 30
0.0
 10
526.466156
 20
443.217650
 30
0.0
  0
LWPOLYLINE
  5
152
100
AcDbEntity
  8
0
 62
5
100
AcDbPolyline
 90
1
 70
1
 10
552.110846
 20
821.602727
 30
0.0
  0
SPLINE
  5
153
100
AcDbEntity
  8
0
 62
5
100
AcDbSpline
 70
8
 71
3
 72
8
 73
4
 74
0
 40
0
 40
0
 40
0
 40
0
 40
1
 40
1
 40
1
 40
1
 10
312.453985
 20
444.764311
 30
0.0
 10
312.453985
 20
445.701078
 30
0.0
 10
311.954225
 20
446.566687
 30
0.0
 10
311.142961
 20
447.035070
 30
0.0
  0
SPLINE
  5
154
100
AcDbEntity
  8
0
 62
5
100
AcDbSpline
 70
8
 71
3
 72
8
 73
4
 74
0
 40
0
 40
0
 40
0
 40
0
 40
1
 40
1
 40
1
 40
1
 10
311.142961
 20
447.035070
 30
0.0
 10
310.331697
 20
447.503454
 30
0.0
 10
309.332178
 20
447.503454
 30
0.0
 10
308.520914
 20
447.035070
 30
0.0
  0
SPLINE
  5
155
100
AcDbEntity
  8
0
 62
5
100
AcDbSpline
 70
8
 71
3
 72
8
 73
4
 74
0
 40
0
 40
0
 40
0
 40
0
 40
1
 40
1
 40
1
 40
1
 10
308.520914
 20
447.035070
 30
0.0
 10
307.709650
 20
446.566687
 30
0.0
 10
307.209890
 20
445.701078
 30
0.0
 10
307.209890
 20
444.764311
 30
0.0
  0
SPLINE
  5
156
100
AcDbEntity
  8
0
 62
5
100
AcDbSpline
 70
8
 71
3
 72
8
 73
4
 74
0
 40
0
 40
0
 40
0
 40
0
 40
1
 40
1
 40
1
 40
1
 10
307.209890
 20
444.764311
 30
0.0
 10
307.209890
 20
443.827544
 30
0.0
 10
307.709650
 20
442.961935
 30
0.0
 10
308.520914
 20
442.493551
 30
0.0
  0
SPLINE
  5
157
100
AcDbEntity
  8
0
 62
5
100
AcDbSpline
 70
8
 71
3
 72
8
 73
4
 74
0
 40
0
 40
0
 40
0
 40
0
 40
1
 40
1
 40
1
 40
1
 10
308.520914
 20
442.493551
 30
0.0
 10
309.332178
 20
442.025168
 30
0.0
 10
310.331697
 20
442.025168
 30
0.0
 10
311.142961
 20
442.493551
 30
0.0
  0
SPLINE
  5
158
100
AcDbEntity
  8
0
 62
5
100
AcDbSpline
 70
8
 71
3
 72
8
 73
4
 74
0
 40
0
 40
0
 40
0
 40
0
 40
1
 40
1
 40
1
 40
1
 10
311.142961
 20
442.493551
 30
0.0
 10
311.954225
 20
442.961935
 30
0.0
 10
312.453985
 20
443.827544
 30
0.0
 10
312.453985
 20
444.764311
 30
0.0
  0
LWPOLYLINE
  5
159
100
AcDbEntity
  8
0
 62
5
100
AcDbPolyline
 90
1
 70
1
 10
526.466156
 20
443.217650
 30
0.0
  0
SPLINE
  5
15a
100
AcDbEntity
  8
0
 62
5
100
AcDbSpline
 70
8
 71
3
 72
8
 73
4
 74
0
 40
0
 40
0
 40
0
 40
0
 40
1
 40
1
 40
1
 40
1
 10
67.919680
 20
838.708493
 30
0.0
 10
67.919680
 20
839.645261
 30
0.0
 10
67.419921
 20
840.510869
 30
0.0
 10
66.608657
 20
840.979253
 30
0.0
  0
SPLINE
  5
15b
100
AcDbEntity
  8
0
 62
5
100
AcDbSpline
 70
8
 71
3
 72
8
 73
4
 74
0
 40
0
 40
0
 40
0
 40
0
 40
1
 40
1
 40
1
 40
1
 10
66.608657
 20
840.979253
 30
0.0
 10
65.797393
 20
841.447636
 30
0.0
 10
64.797874
 20
841.447636
 30
0.0
 10
63.986610
 20
840.979253
 30
0.0
  0
SPLINE
  5
15c
100
AcDbEntity
  8
0
 62
5
100
AcDbSpline
 70
8
 71
3
 72
8
 73
4
 74
0
 40
0
 40
0
 40
0
 40
0
 40
1
 40
1
 40
1
 40
1
 10
63.986610
 20
840.979253
 30
0.0
 10
63.175345
 20
840.510869
 30
0.0
 10
62.675586
 20
839.645261
 30
0.0
 10
62.675586
 20
838.708493
 30
0.0
  0
SPLINE
  5
15d
100
AcDbEntity
  8
0
 62
5
100
AcDbSpline
 70
8
 71
3
 72
8
 73
4
 74
0
 40
0
 40
0
 40
0
 40
0
 40
1
 40
1
 40
1
 40
1
 10
62.675586
 20
838.708493
 30
0.0
 10
62.675586
 20
837.771726
 30
0.0
 10
63.175345
 20
836.906117
 30
0.0
 10
63.986610
 20
836.437734
 30
0.0
  0
SPLINE
  5
15e
100
AcDbEntity
  8
0
 62
5
100
AcDbSpline
 70
8
 71
3
 72
8
 73
4
 74
0
 40
0
 40
0
 40
0
 40
0
 40
1
 40
1
 40
1
 40
1
 10
63.986610
 20
836.437734
 30
0.0
 10
64.797874
 20
835.969350
 30
0.0
 10
65.797393
 20
835.969350
 30
0.0
 10
66.608657
 20
836.437734
 30
0.0
  0
SPLINE
  5
15f
100
AcDbEntity
  8
0
 62
5
100
AcDbSpline
 70
8
 71
3
 72
8
 73
4
 74
0
 40
0
 40
0
 40
0
 40
0
 40
1
 40
1
 40
1
 40
1
 10
66.608657
 20
836.437734
 30
0.0
 10
67.419921
 20
836.906117
 30
0.0
 10
67.919680
 20
837.771726
 30
0.0
 10
67.919680
 20
838.708493
 30
0.0
  0
LWPOLYLINE
  5
160
100
AcDbEntity
  8
0
 62
5
100
AcDbPolyline
 90
1
 70
1
 10
312.453985
 20
444.764311
 30
0.0
  0
LWPOLYLINE
  5
161
100
AcDbEntity
  8
0
 62
5
100
AcDbPolyline
 90
1
 70
1
 10
67.919680
 20
838.708493
 30
0.0
  0
SPLINE
  5
162
100
AcDbEntity
  8
0
 62
5
100
AcDbSpline
 70
8
 71
3
 72
8
 73
4
 74
0
 40
0
 40
0
 40
0
 40
0
 40
1
 40
1
 40
1
 40
1
 10
415.791687
 20
501.896600
 30
0.0
 10
415.995490
 20
501.336690
 30
0.0
 10
416.527726
 20
500.964036
 30
0.0
 10
417.123573
 20
500.964057
 30
0.0
  0
SPLINE
  5
163
100
AcDbEntity
  8
0
 62
5
100
AcDbSpline
 70
8
 71
3
 72
8
 73
4
 74
0
 40
0
 40
0
 40
0
 40
0
 40
1
 40
1
 40
1
 40
1
 10
417.123573
 20
500.964057
 30
0.0
 10
417.719420
 20
500.964077
 30
0.0
 10
418.251631
 20
501.336767
 30
0.0
 10
418.455396
 20
501.896690
 30
0.0
  0
LWPOLYLINE
  5
164
100
AcDbEntity
  8
0
 62
5
100
AcDbPolyline
 90
2
 70
0
 10
415.791687
 20
501.896600
 30
0.0
 10
399.489140
 20
546.684723
 30
0.0
  0
LWPOLYLINE
  5
165
100
AcDbEntity
  8
0
 62
5
100
AcDbPolyline
 90
2
 70
0
 10
434.190037
 20
545.133728
 30
0.0
 10
418.455396
 20
501.896690
 30
0.0
  0
LWPOLYLINE
  5
166
100
AcDbEntity
  8
0
 62
5
100
AcDbPolyline
 90
2
 70
0
 10
538.609928
 20
507.128565
 30
0.0
 10
434.190037
 20
545.133728
 30
0.0
  0
LWPOLYLINE
  5
167
100
AcDbEntity
  8
0
 62
5
100
AcDbPolyline
 90
2
 70
0
 10
519.070490
 20
453.454909
 30
0.0
 10
538.609928
 20
507.128565
 30
0.0
  0
LWPOLYLINE
  5
168
100
AcDbEntity
  8
0
 62
5
100
AcDbPolyline
 90
2
 70
0
 10
414.720534
 20
491.429504
 30
0.0
 10
519.070490
 20
453.454909
 30
0.0
  0
LWPOLYLINE
  5
169
100
AcDbEntity
  8
0
 62
5
100
AcDbPolyline
 90
2
 70
0
 10
314.607195
 20
455.002279
 30
0.0
 10
414.720534
 20
491.429504
 30
0.0
  0
LWPOLYLINE
  5
16a
100
AcDbEntity
  8
0
 62
5
100
AcDbPolyline
 90
2
 70
0
 10
295.076309
 20
508.679222
 30
0.0
 10
314.607195
 20
455.002279
 30
0.0
  0
LWPOLYLINE
  5
16b
100
AcDbEntity
  8
0
 62
5
100
AcDbPolyline
 90
2
 70
0
 10
399.489140
 20
546.684723
 30
0.0
 10
295.076309
 20
508.679222
 30
0.0
  0
LWPOLYLINE
  5
16c
100
AcDbEntity
  8
0
 62
5
100
AcDbPolyline
 90
2
 70
0
 10
11.496515
 20
618.006674
 30
0.0
 10
90.490560
 20
596.842138
 30
0.0
  0
LWPOLYLINE
  5
16d
100
AcDbEntity
  8
0
 62
5
100
AcDbPolyline
 90
2
 70
0
 10
68.208026
 20
829.658792
 30
0.0
 10
11.496515
 20
618.006674
 30
0.0
  0
LWPOLYLINE
  5
16e
100
AcDbEntity
  8
0
 62
5
100
AcDbPolyline
 90
2
 70
0
 10
198.987136
 20
794.616946
 30
0.0
 10
68.208026
 20
829.658792
 30
0.0
  0
LWPOLYLINE
  5
16f
100
AcDbEntity
  8
0
 62
5
100
AcDbPolyline
 90
2
 70
0
 10
205.976300
 20
820.696712
 30
0.0
 10
198.987136
 20
794.616946
 30
0.0
  0
LWPOLYLINE
  5
170
100
AcDbEntity
  8
0
 62
5
100
AcDbPolyline
 90
2
 70
0
 10
258.131573
 20
806.716386
 30
0.0
 10
205.976300
 20
820.696712
 30
0.0
  0
LWPOLYLINE
  5
171
100
AcDbEntity
  8
0
 62
5
100
AcDbPolyline
 90
2
 70
0
 10
261.627979
 20
819.761602
 30
0.0
 10
258.131573
 20
806.716386
 30
0.0
  0
LWPOLYLINE
  5
172
100
AcDbEntity
  8
0
 62
5
100
AcDbPolyline
 90
2
 70
0
 10
313.783251
 20
805.781275
 30
0.0
 10
261.627979
 20
819.761602
 30
0.0
  0
LWPOLYLINE
  5
173
100
AcDbEntity
  8
0
 62
5
100
AcDbPolyline
 90
2
 70
0
 10
310.289947
 20
792.747636
 30
0.0
 10
313.783251
 20
805.781275
 30
0.0
  0
LWPOLYLINE
  5
174
100
AcDbEntity
  8
0
 62
5
100
AcDbPolyline
 90
2
 70
0
 10
362.445220
 20
778.767310
 30
0.0
 10
310.289947
 20
792.747636
 30
0.0
  0
LWPOLYLINE
  5
175
100
AcDbEntity
  8
0
 62
5
100
AcDbPolyline
 90
2
 70
0
 10
358.952099
 20
765.734350
 30
0.0
 10
362.445220
 20
778.767310
 30
0.0
  0
LWPOLYLINE
  5
176
100
AcDbEntity
  8
0
 62
5
100
AcDbPolyline
 90
2
 70
0
 10
412.104361
 20
751.488368
 30
0.0
 10
358.952099
 20
765.734350
 30
0.0
  0
LWPOLYLINE
  5
177
100
AcDbEntity
  8
0
 62
5
100
AcDbPolyline
 90
2
 70
0
 10
355.081855
 20
538.759116
 30
0.0
 10
412.104361
 20
751.488368
 30
0.0
  0
LWPOLYLINE
  5
178
100
AcDbEntity
  8
0
 62
5
100
AcDbPolyline
 90
2
 70
0
 10
299.947312
 20
553.529800
 30
0.0
 10
355.081855
 20
538.759116
 30
0.0
  0
LWPOLYLINE
  5
179
100
AcDbEntity
  8
0
 62
5
100
AcDbPolyline
 90
2
 70
0
 10
303.731473
 20
567.654940
 30
0.0
 10
299.947312
 20
553.529800
 30
0.0
  0
LWPOLYLINE
  5
17a
100
AcDbEntity
  8
0
 62
5
100
AcDbPolyline
 90
2
 70
0
 10
252.586425
 20
581.356827
 30
0.0
 10
303.731473
 20
567.654940
 30
0.0
  0
LWPOLYLINE
  5
17b
100
AcDbEntity
  8
0
 62
5
100
AcDbPolyline
 90
2
 70
0
 10
256.080205
 20
594.398060
 30
0.0
 10
252.586425
 20
581.356827
 30
0.0
  0
LWPOLYLINE
  5
17c
100
AcDbEntity
  8
0
 62
5
100
AcDbPolyline
 90
2
 70
0
 10
205.908377
 20
607.839221
 30
0.0
 10
256.080205
 20
594.398060
 30
0.0
  0
LWPOLYLINE
  5
17d
100
AcDbEntity
  8
0
 62
5
100
AcDbPolyline
 90
2
 70
0
 10
202.416083
 20
594.803534
 30
0.0
 10
205.908377
 20
607.839221
 30
0.0
  0
LWPOLYLINE
  5
17e
100
AcDbEntity
  8
0
 62
5
100
AcDbPolyline
 90
2
 70
0
 10
148.266734
 20
609.310282
 30
0.0
 10
202.416083
 20
594.803534
 30
0.0
  0
LWPOLYLINE
  5
17f
100
AcDbEntity
  8
0
 62
5
100
AcDbPolyline
 90
2
 70
0
 10
155.253775
 20
635.390233
 30
0.0
 10
148.266734
 20
609.310282
 30
0.0
  0
LWPOLYLINE
  5
180
100
AcDbEntity
  8
0
 62
5
100
AcDbPolyline
 90
2
 70
0
 10
104.463402
 20
648.997407
 30
0.0
 10
155.253775
 20
635.390233
 30
0.0
  0
LWPOLYLINE
  5
181
100
AcDbEntity
  8
0
 62
5
100
AcDbPolyline
 90
2
 70
0
 10
90.490560
 20
596.842138
 30
0.0
 10
104.463402
 20
648.997407
 30
0.0
  0
LWPOLYLINE
  5
182
100
AcDbEntity
  8
0
 62
5
100
AcDbPolyline
 90
2
 70
0
 10
748.770575
 20
597.955665
 30
0.0
 10
827.765193
 20
619.118523
 30
0.0
  0
LWPOLYLINE
  5
183
100
AcDbEntity
  8
0
 62
5
100
AcDbPolyline
 90
2
 70
0
 10
734.795644
 20
650.112101
 30
0.0
 10
748.770575
 20
597.955665
 30
0.0
  0
LWPOLYLINE
  5
184
100
AcDbEntity
  8
0
 62
5
100
AcDbPolyline
 90
2
 70
0
 10
684.007687
 20
636.503844
 30
0.0
 10
734.795644
 20
650.112101
 30
0.0
  0
LWPOLYLINE
  5
185
100
AcDbEntity
  8
0
 62
5
100
AcDbPolyline
 90
2
 70
0
 10
690.994463
 20
610.424297
 30
0.0
 10
684.007687
 20
636.503844
 30
0.0
  0
LWPOLYLINE
  5
186
100
AcDbEntity
  8
0
 62
5
100
AcDbPolyline
 90
2
 70
0
 10
636.845114
 20
595.917551
 30
0.0
 10
690.994463
 20
610.424297
 30
0.0
  0
LWPOLYLINE
  5
187
100
AcDbEntity
  8
0
 62
5
100
AcDbPolyline
 90
2
 70
0
 10
633.351481
 20
608.954598
 30
0.0
 10
636.845114
 20
595.917551
 30
0.0
  0
LWPOLYLINE
  5
188
100
AcDbEntity
  8
0
 62
5
100
AcDbPolyline
 90
2
 70
0
 10
583.180945
 20
595.513785
 30
0.0
 10
633.351481
 20
608.954598
 30
0.0
  0
LWPOLYLINE
  5
189
100
AcDbEntity
  8
0
 62
5
100
AcDbPolyline
 90
2
 70
0
 10
586.675596
 20
582.472936
 30
0.0
 10
583.180945
 20
595.513785
 30
0.0
  0
LWPOLYLINE
  5
18a
100
AcDbEntity
  8
0
 62
5
100
AcDbPolyline
 90
2
 70
0
 10
535.023714
 20
568.631405
 30
0.0
 10
586.675596
 20
582.472936
 30
0.0
  0
LWPOLYLINE
  5
18b
100
AcDbEntity
  8
0
 62
5
100
AcDbPolyline
 90
2
 70
0
 10
538.691419
 20
554.940958
 30
0.0
 10
535.023714
 20
568.631405
 30
0.0
  0
LWPOLYLINE
  5
18c
100
AcDbEntity
  8
0
 62
5
100
AcDbPolyline
 90
2
 70
0
 10
484.059876
 20
540.305030
 30
0.0
 10
538.691419
 20
554.940958
 30
0.0
  0
LWPOLYLINE
  5
18d
100
AcDbEntity
  8
0
 62
5
100
AcDbPolyline
 90
2
 70
0
 10
427.153874
 20
752.599650
 30
0.0
 10
484.059876
 20
540.305030
 30
0.0
  0
LWPOLYLINE
  5
18e
100
AcDbEntity
  8
0
 62
5
100
AcDbPolyline
 90
2
 70
0
 10
480.301370
 20
766.841971
 30
0.0
 10
427.153874
 20
752.599650
 30
0.0
  0
LWPOLYLINE
  5
18f
100
AcDbEntity
  8
0
 62
5
100
AcDbPolyline
 90
2
 70
0
 10
476.808058
 20
779.881457
 30
0.0
 10
480.301370
 20
766.841971
 30
0.0
  0
LWPOLYLINE
  5
190
100
AcDbEntity
  8
0
 62
5
100
AcDbPolyline
 90
2
 70
0
 10
528.968743
 20
793.855436
 30
0.0
 10
476.808058
 20
779.881457
 30
0.0
  0
LWPOLYLINE
  5
191
100
AcDbEntity
  8
0
 62
5
100
AcDbPolyline
 90
2
 70
0
 10
525.475976
 20
806.897902
 30
0.0
 10
528.968743
 20
793.855436
 30
0.0
  0
LWPOLYLINE
  5
192
100
AcDbEntity
  8
0
 62
5
100
AcDbPolyline
 90
2
 70
0
 10
577.635686
 20
820.875519
 30
0.0
 10
525.475976
 20
806.897902
 30
0.0
  0
LWPOLYLINE
  5
193
100
AcDbEntity
  8
0
 62
5
100
AcDbPolyline
 90
2
 70
0
 10
581.130420
 20
807.834362
 30
0.0
 10
577.635686
 20
820.875519
 30
0.0
  0
LWPOLYLINE
  5
194
100
AcDbEntity
  8
0
 62
5
100
AcDbPolyline
 90
2
 70
0
 10
633.287641
 20
821.807413
 30
0.0
 10
581.130420
 20
807.834362
 30
0.0
  0
LWPOLYLINE
  5
195
100
AcDbEntity
  8
0
 62
5
100
AcDbPolyline
 90
2
 70
0
 10
640.724387
 20
794.048267
 30
0.0
 10
633.287641
 20
821.807413
 30
0.0
  0
LWPOLYLINE
  5
196
100
AcDbEntity
  8
0
 62
5
100
AcDbPolyline
 90
2
 70
0
 10
771.503912
 20
829.082795
 30
0.0
 10
640.724387
 20
794.048267
 30
0.0
  0
LWPOLYLINE
  5
197
100
AcDbEntity
  8
0
 62
5
100
AcDbPolyline
 90
2
 70
0
 10
827.765193
 20
619.118523
 30
0.0
 10
771.503912
 20
829.082795
 30
0.0
  0
SPLINE
  5
198
100
AcDbEntity
  8
0
 62
5
100
AcDbSpline
 70
8
 71
3
 72
8
 73
4
 74
0
 40
0
 40
0
 40
0
 40
0
 40
1
 40
1
 40
1
 40
1
 10
333.880427
 20
815.067851
 30
0.0
 10
334.285712
 20
816.579981
 30
0.0
 10
333.388461
 20
818.134359
 30
0.0
 10
331.876343
 20
818.539685
 30
0.0
  0
LWPOLYLINE
  5
199
100
AcDbEntity
  8
0
 62
5
100
AcDbPolyline
 90
2
 70
0
 10
331.120949
 20
804.772144
 30
0.0
 10
333.880427
 20
815.067851
 30
0.0
  0
SPLINE
  5
19a
100
AcDbEntity
  8
0
 62
5
100
AcDbSpline
 70
8
 71
3
 72
8
 73
4
 74
0
 40
0
 40
0
 40
0
 40
0
 40
1
 40
1
 40
1
 40
1
 10
252.341200
 20
839.859241
 30
0.0
 10
251.615027
 20
840.053893
 30
0.0
 10
250.841271
 20
839.952096
 30
0.0
 10
250.190155
 20
839.576245
 30
0.0
  0
SPLINE
  5
19b
100
AcDbEntity
  8
0
 62
5
100
AcDbSpline
 70
8
 71
3
 72
8
 73
4
 74
0
 40
0
 40
0
 40
0
 40
0
 40
1
 40
1
 40
1
 40
1
 10
250.190155
 20
839.576245
 30
0.0
 10
249.539039
 20
839.200394
 30
0.0
 10
249.063901
 20
838.581278
 30
0.0
 10
248.869269
 20
837.855101
 30
0.0
  0
LWPOLYLINE
  5
19c
100
AcDbEntity
  8
0
 62
5
100
AcDbPolyline
 90
2
 70
0
 10
331.876343
 20
818.539685
 30
0.0
 10
252.341200
 20
839.859241
 30
0.0
  0
SPLINE
  5
19d
100
AcDbEntity
  8
0
 62
5
100
AcDbSpline
 70
8
 71
3
 72
8
 73
4
 74
0
 40
0
 40
0
 40
0
 40
0
 40
1
 40
1
 40
1
 40
1
 10
196.689134
 20
840.794456
 30
0.0
 10
195.962948
 20
840.989111
 30
0.0
 10
195.189177
 20
840.887307
 30
0.0
 10
194.538055
 20
840.511440
 30
0.0
  0
SPLINE
  5
19e
100
AcDbEntity
  8
0
 62
5
100
AcDbSpline
 70
8
 71
3
 72
8
 73
4
 74
0
 40
0
 40
0
 40
0
 40
0
 40
1
 40
1
 40
1
 40
1
 10
194.538055
 20
840.511440
 30
0.0
 10
193.886932
 20
840.135573
 30
0.0
 10
193.411797
 20
839.516435
 30
0.0
 10
193.217182
 20
838.790238
 30
0.0
  0
LWPOLYLINE
  5
19f
100
AcDbEntity
  8
0
 62
5
100
AcDbPolyline
 90
3
 70
0
 10
248.869269
 20
837.855101
 30
0.0
 10
246.106730
 20
827.547969
 30
0.0
 10
196.689134
 20
840.794456
 30
0.0
  0
SPLINE
  5
1a0
100
AcDbEntity
  8
0
 62
5
100
AcDbSpline
 70
8
 71
3
 72
8
 73
4
 74
0
 40
0
 40
0
 40
0
 40
0
 40
1
 40
1
 40
1
 40
1
 10
61.657715
 20
849.021763
 30
0.0
 10
60.145527
 20
849.426949
 30
0.0
 10
58.591188
 20
848.529546
 30
0.0
 10
58.186002
 20
847.017358
 30
0.0
  0
LWPOLYLINE
  5
1a1
100
AcDbEntity
  8
0
 62
5
100
AcDbPolyline
 90
3
 70
0
 10
193.217182
 20
838.790238
 30
0.0
 10
186.961396
 20
815.447041
 30
0.0
 10
61.657715
 20
849.021763
 30
0.0
  0
SPLINE
  5
1a2
100
AcDbEntity
  8
0
 62
5
100
AcDbSpline
 70
8
 71
3
 72
8
 73
4
 74
0
 40
0
 40
0
 40
0
 40
0
 40
1
 40
1
 40
1
 40
1
 10
-5.862111
 20
607.984426
 30
0.0
 10
-6.056691
 20
607.258238
 30
0.0
 10
-5.954820
 20
606.484495
 30
0.0
 10
-5.578909
 20
605.833418
 30
0.0
  0
SPLINE
  5
1a3
100
AcDbEntity
  8
0
 62
5
100
AcDbSpline
 70
8
 71
3
 72
8
 73
4
 74
0
 40
0
 40
0
 40
0
 40
0
 40
1
 40
1
 40
1
 40
1
 10
-5.578909
 20
605.833418
 30
0.0
 10
-5.202999
 20
605.182340
 30
0.0
 10
-4.583842
 20
604.707262
 30
0.0
 10
-3.857650
 20
604.512697
 30
0.0
  0
LWPOLYLINE
  5
1a4
100
AcDbEntity
  8
0
 62
5
100
AcDbPolyline
 90
2
 70
0
 10
58.186002
 20
847.017358
 30
0.0
 10
-5.862111
 20
607.984426
 30
0.0
  0
SPLINE
  5
1a5
100
AcDbEntity
  8
0
 62
5
100
AcDbSpline
 70
8
 71
3
 72
8
 73
4
 74
0
 40
0
 40
0
 40
0
 40
0
 40
1
 40
1
 40
1
 40
1
 10
97.041281
 20
577.479356
 30
0.0
 10
98.553478
 20
577.074202
 30
0.0
 10
100.107798
 20
577.971636
 30
0.0
 10
100.512953
 20
579.483832
 30
0.0
  0
LWPOLYLINE
  5
1a6
100
AcDbEntity
  8
0
 62
5
100
AcDbPolyline
 90
2
 70
0
 10
-3.857650
 20
604.512697
 30
0.0
 10
97.041281
 20
577.479356
 30
0.0
  0
SPLINE
  5
1a7
100
AcDbEntity
  8
0
 62
5
100
AcDbSpline
 70
8
 71
3
 72
8
 73
4
 74
0
 40
0
 40
0
 40
0
 40
0
 40
1
 40
1
 40
1
 40
1
 10
128.170420
 20
600.021117
 30
0.0
 10
127.975868
 20
599.294929
 30
0.0
 10
128.077763
 20
598.521198
 30
0.0
 10
128.453688
 20
597.870138
 30
0.0
  0
SPLINE
  5
1a8
100
AcDbEntity
  8
0
 62
5
100
AcDbSpline
 70
8
 71
3
 72
8
 73
4
 74
0
 40
0
 40
0
 40
0
 40
0
 40
1
 40
1
 40
1
 40
1
 10
128.453688
 20
597.870138
 30
0.0
 10
128.829613
 20
597.219077
 30
0.0
 10
129.448775
 20
596.744019
 30
0.0
 10
130.174964
 20
596.549471
 30
0.0
  0
LWPOLYLINE
  5
1a9
100
AcDbEntity
  8
0
 62
5
100
AcDbPolyline
 90
4
 70
0
 10
100.512953
 20
579.483832
 30
0.0
 10
113.753037
 20
628.900967
 30
0.0
 10
134.423925
 20
623.363060
 30
0.0
 10
128.170420
 20
600.021117
 30
0.0
  0
SPLINE
  5
1aa
100
AcDbEntity
  8
0
 62
5
100
AcDbSpline
 70
8
 71
3
 72
8
 73
4
 74
0
 40
0
 40
0
 40
0
 40
0
 40
1
 40
1
 40
1
 40
1
 10
211.705284
 20
574.707293
 30
0.0
 10
213.217489
 20
574.302169
 30
0.0
 10
214.771790
 20
575.199636
 30
0.0
 10
215.176914
 20
576.711841
 30
0.0
  0
LWPOLYLINE
  5
1ab
100
AcDbEntity
  8
0
 62
5
100
AcDbPolyline
 90
2
 70
0
 10
130.174964
 20
596.549471
 30
0.0
 10
211.705284
 20
574.707293
 30
0.0
  0
SPLINE
  5
1ac
100
AcDbEntity
  8
0
 62
5
100
AcDbSpline
 70
8
 71
3
 72
8
 73
4
 74
0
 40
0
 40
0
 40
0
 40
0
 40
1
 40
1
 40
1
 40
1
 10
232.490183
 20
572.067626
 30
0.0
 10
232.085060
 20
570.555421
 30
0.0
 10
232.982526
 20
569.001119
 30
0.0
 10
234.494732
 20
568.595996
 30
0.0
  0
LWPOLYLINE
  5
1ad
100
AcDbEntity
  8
0
 62
5
100
AcDbPolyline
 90
4
 70
0
 10
215.176914
 20
576.711841
 30
0.0
 10
217.935666
 20
587.009438
 30
0.0
 10
235.250422
 20
582.370771
 30
0.0
 10
232.490183
 20
572.067626
 30
0.0
  0
SPLINE
  5
1ae
100
AcDbEntity
  8
0
 62
5
100
AcDbSpline
 70
8
 71
3
 72
8
 73
4
 74
0
 40
0
 40
0
 40
0
 40
0
 40
1
 40
1
 40
1
 40
1
 10
303.470686
 20
435.867850
 30
0.0
 10
304.005986
 20
434.396679
 30
0.0
 10
305.632552
 20
433.638006
 30
0.0
 10
307.103723
 20
434.173307
 30
0.0
  0
LWPOLYLINE
  5
1af
100
AcDbEntity
  8
0
 62
5
100
AcDbPolyline
 90
4
 70
0
 10
234.494732
 20
568.595996
 30
0.0
 10
283.062584
 20
555.584546
 30
0.0
 10
277.740653
 20
506.581977
 30
0.0
 10
303.470686
 20
435.867850
 30
0.0
  0
SPLINE
  5
1b0
100
AcDbEntity
  8
0
 62
5
100
AcDbSpline
 70
8
 71
3
 72
8
 73
4
 74
0
 40
0
 40
0
 40
0
 40
0
 40
1
 40
1
 40
1
 40
1
 10
526.571455
 20
432.626104
 30
0.0
 10
528.042484
 20
432.090773
 30
0.0
 10
529.668974
 20
432.849203
 30
0.0
 10
530.204468
 20
434.320172
 30
0.0
  0
LWPOLYLINE
  5
1b1
100
AcDbEntity
  8
0
 62
5
100
AcDbPolyline
 90
4
 70
0
 10
307.103723
 20
434.173307
 30
0.0
 10
375.408643
 20
459.026726
 30
0.0
 10
457.982299
 20
457.586780
 30
0.0
 10
526.571455
 20
432.626104
 30
0.0
  0
SPLINE
  5
1b2
100
AcDbEntity
  8
0
 62
5
100
AcDbSpline
 70
8
 71
3
 72
8
 73
4
 74
0
 40
0
 40
0
 40
0
 40
0
 40
1
 40
1
 40
1
 40
1
 10
604.768179
 20
569.713367
 30
0.0
 10
606.280356
 20
570.118596
 30
0.0
 10
607.177714
 20
571.672960
 30
0.0
 10
606.772485
 20
573.185137
 30
0.0
  0
LWPOLYLINE
  5
1b3
100
AcDbEntity
  8
0
 62
5
100
AcDbPolyline
 90
4
 70
0
 10
530.204468
 20
434.320172
 30
0.0
 10
555.612690
 20
504.115025
 30
0.0
 10
555.702085
 20
556.564769
 30
0.0
 10
604.768179
 20
569.713367
 30
0.0
  0
SPLINE
  5
1b4
100
AcDbEntity
  8
0
 62
5
100
AcDbSpline
 70
8
 71
3
 72
8
 73
4
 74
0
 40
0
 40
0
 40
0
 40
0
 40
1
 40
1
 40
1
 40
1
 10
624.085289
 20
577.825922
 30
0.0
 10
624.490498
 20
576.313819
 30
0.0
 10
626.044738
 20
575.416461
 30
0.0
 10
627.556868
 20
575.821565
 30
0.0
  0
LWPOLYLINE
  5
1b5
100
AcDbEntity
  8
0
 62
5
100
AcDbPolyline
 90
4
 70
0
 10
606.772485
 20
573.185137
 30
0.0
 10
604.011873
 20
583.486802
 30
0.0
 10
621.325336
 20
588.125123
 30
0.0
 10
624.085288
 20
577.825922
 30
0.0
  0
SPLINE
  5
1b6
100
AcDbEntity
  8
0
 62
5
100
AcDbSpline
 70
8
 71
3
 72
8
 73
4
 74
0
 40
0
 40
0
 40
0
 40
0
 40
1
 40
1
 40
1
 40
1
 10
709.086156
 20
597.663467
 30
0.0
 10
710.598361
 20
598.068590
 30
0.0
 10
711.495828
 20
599.622892
 30
0.0
 10
711.090704
 20
601.135097
 30
0.0
  0
LWPOLYLINE
  5
1b7
100
AcDbEntity
  8
0
 62
5
100
AcDbPolyline
 90
2
 70
0
 10
627.556868
 20
575.821565
 30
0.0
 10
709.086156
 20
597.663467
 30
0.0
  0
SPLINE
  5
1b8
100
AcDbEntity
  8
0
 62
5
100
AcDbSpline
 70
8
 71
3
 72
8
 73
4
 74
0
 40
0
 40
0
 40
0
 40
0
 40
1
 40
1
 40
1
 40
1
 10
738.747833
 20
580.597513
 30
0.0
 10
739.152956
 20
579.085308
 30
0.0
 10
740.707258
 20
578.187841
 30
0.0
 10
742.219463
 20
578.592965
 30
0.0
  0
LWPOLYLINE
  5
1b9
100
AcDbEntity
  8
0
 62
5
100
AcDbPolyline
 90
4
 70
0
 10
711.090704
 20
601.135097
 30
0.0
 10
704.837305
 20
624.477168
 30
0.0
 10
725.508530
 20
630.015869
 30
0.0
 10
738.747832
 20
580.597513
 30
0.0
  0
SPLINE
  5
1ba
100
AcDbEntity
  8
0
 62
5
100
AcDbSpline
 70
8
 71
3
 72
8
 73
4
 74
0
 40
0
 40
0
 40
0
 40
0
 40
1
 40
1
 40
1
 40
1
 10
843.119486
 20
605.624336
 30
0.0
 10
843.845696
 20
605.818889
 30
0.0
 10
844.464872
 20
606.293969
 30
0.0
 10
844.840794
 20
606.945057
 30
0.0
  0
SPLINE
  5
1bb
100
AcDbEntity
  8
0
 62
5
100
AcDbSpline
 70
8
 71
3
 72
8
 73
4
 74
0
 40
0
 40
0
 40
0
 40
0
 40
1
 40
1
 40
1
 40
1
 10
844.840794
 20
606.945057
 30
0.0
 10
845.216716
 20
607.596145
 30
0.0
 10
845.318588
 20
608.369903
 30
0.0
 10
845.123998
 20
609.096104
 30
0.0
  0
LWPOLYLINE
  5
1bc
100
AcDbEntity
  8
0
 62
5
100
AcDbPolyline
 90
2
 70
0
 10
742.219463
 20
578.592965
 30
0.0
 10
843.119486
 20
605.624336
 30
0.0
  0
SPLINE
  5
1bd
100
AcDbEntity
  8
0
 62
5
100
AcDbSpline
 70
8
 71
3
 72
8
 73
4
 74
0
 40
0
 40
0
 40
0
 40
0
 40
1
 40
1
 40
1
 40
1
 10
781.525972
 20
846.440738
 30
0.0
 10
781.120790
 20
847.952856
 30
0.0
 10
779.566554
 20
848.850244
 30
0.0
 10
778.054411
 20
848.445157
 30
0.0
  0
LWPOLYLINE
  5
1be
100
AcDbEntity
  8
0
 62
5
100
AcDbPolyline
 90
2
 70
0
 10
845.123998
 20
609.096104
 30
0.0
 10
781.525972
 20
846.440738
 30
0.0
  0
SPLINE
  5
1bf
100
AcDbEntity
  8
0
 62
5
100
AcDbSpline
 70
8
 71
3
 72
8
 73
4
 74
0
 40
0
 40
0
 40
0
 40
0
 40
1
 40
1
 40
1
 40
1
 10
646.048473
 20
839.899106
 30
0.0
 10
645.643349
 20
841.411311
 30
0.0
 10
644.089047
 20
842.308778
 30
0.0
 10
642.576842
 20
841.903655
 30
0.0
  0
LWPOLYLINE
  5
1c0
100
AcDbEntity
  8
0
 62
5
100
AcDbPolyline
 90
3
 70
0
 10
778.054411
 20
848.445157
 30
0.0
 10
652.751730
 20
814.877853
 30
0.0
 10
646.048473
 20
839.899106
 30
0.0
  0
SPLINE
  5
1c1
100
AcDbEntity
  8
0
 62
5
100
AcDbSpline
 70
8
 71
3
 72
8
 73
4
 74
0
 40
0
 40
0
 40
0
 40
0
 40
1
 40
1
 40
1
 40
1
 10
590.395256
 20
838.968102
 30
0.0
 10
589.990026
 20
840.480279
 30
0.0
 10
588.435662
 20
841.377637
 30
0.0
 10
586.923485
 20
840.972408
 30
0.0
  0
LWPOLYLINE
  5
1c2
100
AcDbEntity
  8
0
 62
5
100
AcDbPolyline
 90
3
 70
0
 10
642.576842
 20
841.903655
 30
0.0
 10
593.156564
 20
828.663837
 30
0.0
 10
590.395255
 20
838.968102
 30
0.0
  0
SPLINE
  5
1c3
100
AcDbEntity
  8
0
 62
5
100
AcDbSpline
 70
8
 71
3
 72
8
 73
4
 74
0
 40
0
 40
0
 40
0
 40
0
 40
1
 40
1
 40
1
 40
1
 10
507.385661
 20
819.658079
 30
0.0
 10
505.873662
 20
819.252898
 30
0.0
 10
504.976302
 20
817.698830
 30
0.0
 10
505.381233
 20
816.186763
 30
0.0
  0
LWPOLYLINE
  5
1c4
100
AcDbEntity
  8
0
 62
5
100
AcDbPolyline
 90
2
 70
0
 10
586.923485
 20
840.972408
 30
0.0
 10
507.385661
 20
819.658079
 30
0.0
  0
SPLINE
  5
1c5
100
AcDbEntity
  8
0
 62
5
100
AcDbSpline
 70
8
 71
3
 72
8
 73
4
 74
0
 40
0
 40
0
 40
0
 40
0
 40
1
 40
1
 40
1
 40
1
 10
458.716365
 20
792.642287
 30
0.0
 10
457.204160
 20
792.237164
 30
0.0
 10
456.306694
 20
790.682862
 30
0.0
 10
456.711817
 20
789.170657
 30
0.0
  0
LWPOLYLINE
  5
1c6
100
AcDbEntity
  8
0
 62
5
100
AcDbPolyline
 90
3
 70
0
 10
505.381233
 20
816.186763
 30
0.0
 10
508.140538
 20
805.883148
 30
0.0
 10
458.716365
 20
792.642287
 30
0.0
  0
SPLINE
  5
1c7
100
AcDbEntity
  8
0
 62
5
100
AcDbSpline
 70
8
 71
3
 72
8
 73
4
 74
0
 40
0
 40
0
 40
0
 40
0
 40
1
 40
1
 40
1
 40
1
 10
382.542396
 20
788.053886
 30
0.0
 10
382.947680
 20
789.566016
 30
0.0
 10
382.050430
 20
791.120393
 30
0.0
 10
380.538311
 20
791.525720
 30
0.0
  0
LWPOLYLINE
  5
1c8
100
AcDbEntity
  8
0
 62
5
100
AcDbPolyline
 90
6
 70
0
 10
456.711817
 20
789.170657
 30
0.0
 10
459.471893
 20
778.868115
 30
0.0
 10
434.754914
 20
768.935757
 30
0.0
 10
403.496921
 20
767.824694
 30
0.0
 10
379.783223
 20
777.759315
 30
0.0
 10
382.542396
 20
788.053886
 30
0.0
  0
LWPOLYLINE
  5
1c9
100
AcDbEntity
  8
0
 62
5
100
AcDbPolyline
 90
2
 70
0
 10
380.538311
 20
791.525720
 30
0.0
 10
331.120949
 20
804.772144
 30
0.0
  0
ENDSEC
  0
SECTION
  2
OBJECTS
  0
DICTIONARY
  5
C
330
0
100
AcDbDictionary
  3
ACAD_GROUP
350
D
  3
ACAD_MLINESTYLE
350
17
  0
DICTIONARY
  5
D
330
C
100
AcDbDictionary
  0
DICTIONARY
  5
1A
330
C
100
AcDbDictionary
  0
DICTIONARY
  5
17
330
C
100
AcDbDictionary
  3
STANDARD
350
18
  0
DICTIONARY
  5
19
330
C
100
AcDbDictionary
  0
ENDSEC
  0
EOF
